<mxfile host="Electron" agent="Mozilla/5.0 (X11; Linux x86_64) AppleWebKit/537.36 (KHTML, like Gecko) draw.io/24.7.17 Chrome/128.0.6613.36 Electron/32.0.1 Safari/537.36" version="24.7.17">
  <diagram name="Page-1" id="y5cDMIoNWBEWQ94frJKz">
    <mxGraphModel dx="1788" dy="1116" grid="1" gridSize="10" guides="1" tooltips="1" connect="1" arrows="1" fold="1" page="1" pageScale="1" pageWidth="1100" pageHeight="1700" math="0" shadow="0">
      <root>
        <mxCell id="0" />
        <mxCell id="1" parent="0" />
        <mxCell id="azgMCvpfqpiOP1GUNGo0-38" value="" style="shape=image;aspect=fixed;image=data:image/png,iVBORw0KGgoAAAANSUhEUgAAAPIAAAFyCAYAAADPr4fIAAABhGlDQ1BJQ0MgcHJvZmlsZQAAKJF9kT1Iw0AcxV9bpaIVQTuoOGSoDmIXFXGsVShChVArtOpgcukXNGlIUlwcBdeCgx+LVQcXZ10dXAVB8APE2cFJ0UVK/F9SaBHjwXE/3t173L0D/PUyU82OGKBqlpFKxIVMdlUIvqIH/QDGMSQxU58TxSQ8x9c9fHy9i/Is73N/jl4lZzLAJxDHmG5YxBvEM5uWznmfOMyKkkJ8Tjxh0AWJH7kuu/zGueCwn2eGjXRqnjhMLBTaWG5jVjRU4mniiKJqlO/PuKxw3uKslquseU/+wlBOW1nmOs0RJLCIJYgQIKOKEsqwEKVVI8VEivbjHv5hxy+SSyZXCYwcC6hAheT4wf/gd7dmfmrSTQrFgc4X2/4YBYK7QKNm29/Htt04AQLPwJXW8lfqwOwn6bWWFjkC+raBi+uWJu8BlzvA4JMuGZIjBWj683ng/Yy+KQsM3ALda25vzX2cPgBp6ip5AxwcAmMFyl73eHdXe2//nmn29wONo3KxLKoqfgAAAAZiS0dEAP8A/wD/oL2nkwAAAAlwSFlzAAAuIwAALiMBeKU/dgAAAAd0SU1FB+gLEgArENDEcEcAAAAZdEVYdENvbW1lbnQAQ3JlYXRlZCB3aXRoIEdJTVBXgQ4XAAAgAElEQVR42sS995cj15Um+IUFAh5Ib6qyvPesorciKVIaatR9pk//tmf3v5qzf8Lu9umeXUl9zkhFjUQjklVkGZbPMlkmfSY8AoHw+8OL+/ACGcjMItUz4AGRlQkEIl6867773XulP/+Pr8L/97/9DouLi6jXm1hZWYFhGABkAEAYhggDIEQAhBIghZAgA1IIWVIgyeB/D/wQkgwosgpFlYFQgiSDfy4MgCD0EfghP54kgx9HfF+IAEEQAAAkSYo96XdhGCII2PvCMOTn6/s+fN+Hqqpgv+wfF1LI/03nS98vQebnRd9PT0mSIMvCmgjfF4Yh/zudV9J7APD30HXQtSQ9fNeLXT8Afq1hGEJRlNjnaT3oVVEkSHIIhDKC0EPgA5IcQpZUyAoQ+ACkAAhl/hrC5/9WVB2SFEKSFAABwlBCEHgIAiAIPIShBEkKIcsqJCmM9gx7Xxj68LwAQeDB90MAAWRZBVtC9j76Pf178JXWatgeoP0xdB2jNae1EV8Hf056D+2f7T47eK/Fc/R9P7qe5If4mcH7DMiwey7CMEQ6nYbnOzAMA71eD4qiwHVtzM7OIgh8HD9+HOrjhQXMP36ERqMFCQoyuQIqlQoURYXnedGmAMLQByDzGytJIRRFQxB48LwArmvzG6OqOlRVhmXZsRsMWYIUSJAkAKHPjyO+hqEPyBIQ+oj26ZabKF54EATwfT+2sHIQQAnYRmC/728Qug4ggJZSE7+fNqIoOIOCTJtIVDayLPPvDMOQr5+4AUSB54om4SGHgCPbW4Re3DiDSoF+z845gGEYfP1JAEnwFEVCr+ckrgu9KprOPy9JIV8XeqXjSZLCBZT+DgRwHC/2vYqiQZbB15kt3XBBHhTMQcHb6aHKSqKQ08+e5217fLrf2wn+UEGWw0iQsWXPivtg8CGeZ+ADvh8ilUohCDzk83lYPRNBEKDb7aBWq8E0TaRSKah37tzDxkYVGSMHwzCg6ylomg7fZzc8DEMgjPRKKEOWAVlSIckhPDdAiBCBD6at/RAhQiBkVkyRNW4RIAUIg+giAYSQIUGBJIeQoEBWEFkEGWEgAZISXVSQKPD0e993+wpAsAgxbS18v2iBFFkDpACypMYsUhhICOFH1rWvwGRZBRAgCADfd2MbW5bBNyr9nq1ff2OLx4kpOOG8uWBJAXQtzddHkkN+XvRK90GCEjv/wAdC+HAcF7QvSMDZBgoRBAo0TRMEv28J2IZS4HkevwcDtgSAhCDwo01Knyflx17Z8VWudFRVjXktgxZ1izKT5S0KddC72U7IZUjbWvQkRSoeZ6fjbyvIkZGBFPB/D3oY5FElnkMoI5Uy4DgOFEWBbdvQtBTCMISmachkMlhbW0Ov10O93oD6+PFjmKaJkcoYMpksXDeA5wXwPA+ypCIIQvg+aZcQsg/IMtu4tu1yTSxLKhQlRBBIbCMGIVRVYwInR66ZFFlkAEEg8Q3NBVRWEIYywkiASLMhlGMbmjau5wbwA1IoARAi2vDMq9I0LVqYaDMqcYFh3yvTLUcICQhDhCH7jCTLbNOGcuR6KwhpH0OOQoXIdZclpiCAKPQAFFkRFFPAr4ME0PdCMK0mR68SICF6vwRVUWOKLJQlpiSiV0lS2FlH18HOn92fMJSgqthirWlD0SZiwiTFPA++2f0gWosw2X0NJbATpydtwii8iLxbSZJZ+AL2SsZBgjxciiU6l74iYOca0g2AHFlcdt5bXV/P8we8IPBnf19gwFImeub8+rYqtDB2Tv216J8/+60EKdpn9G/PDRJdd3p13YCHiN2uCdd14Tg9ZLNZyApQLpfR6bSYUvL9ELqWRqlUhq6n4fshdF2HBAW9ngPf9+G6LnxfQRC5q/2numVTiBvCtm1+IYASXZwCSQoiIZbYTY5pKjXadNFmCILIFZcHNj3zDoIg2uRB5GaCCd3gjWJuXyjcEHKBEbmNQBgGCIJ4nMnOObKaMtvYvs/iv75LHyAMFUD1EYZyZKEQuw626UMgkBDK7JUEjukPOdqMfeXhCxaPNk4YMovHvteL/h4OxMlkEXWm+IS4HQAURYGiiBY3+UEWOyk8oOOIgj9ooRzH4Xsh7vb3sY2dLDKknWPaJNwCAFzb2TE0G+Z2034eXJ9hYU6SRY6OMiQG3t6yh6EE33OZEjLU6L6HURjrQ/aBQjGHVMqAoihQbdvmUs+fig5FUdDt9uD7ATzPh+d58H0/FgvSJnNd9je6OfS35BiANmwQ/Szx17imC4QYY+uT3Wg1irnCRPfF94Ntb74sb70pTJBDhGEw5H2IPBS2qOI5S3zThdFGSBKCuAVJAsS46xjEN8fgDaf7MbhBmIAE6HadLZ8ll05RFKiqiiAI+L0dBO1kVUkEFOm7koA7UVhd1xeASYmDY3Q8ur/JjyAmSEmCOEwYOOg5oKgGBVfcn0nvo/Ud9vkkd79/jkjc/+KDDKB4DHGdA7+vMEmuFEWJlKQbGRQPrusyQQ5DZoUNw0DPciIgIIAsK5DlMPGExC+ngxF4QBuFod99hPnlHhK/kYMuHz0dx4HneYlKZtAdSkIcRaGPXVcgQXj3FgEapokHhXbwRotCJUkSXNfdRiOH0GQF8jaCQhY1CVEPQxbaSAMWTRTkbre7RZBpXWRZhqTIXOBECyrGmINZBPH8dF1PtER0rEGwafDhum6EKcixeyte63brJw0gw4N7UPQIkqxzkiAnWeRBz6KPAyAyCBL3psRXQEIYBjFvsP9vhj25rgvTNOH5DgqFAjzPg+M4cBwH6XSao9hqp9nCzNQU4AOarLFnOo1Wq8U1QVJwLmpL0hSiy8UgcjcBTQ1j6ZPBTUipI6ZtXP69cQEFt3i00USEsP9+iW+YOPrMvtd1/C03hW1all5RNTnmfdB1ixu7vy4SPM+H7wfCMYNtb/Rg2mzQMgdBiABhYvoDYPG5BECWovieB3nMO3A8d0uaQ5Zl+CEg+QFcP0qvhUAAprxkWQZkhlOoigZJCiIwMa6QRNda3BNMKdB9tAUB9LcIweBr3KtioE4/KxFAlkMeZjBFpQ5VrGHos/sibd13g9Yz0SUOpUiQlaEuubi/h2UlmLfIvFBIEaoPhgExj5HAVECSVSBKz/qBC1mRockqej0LkiTB6vXgOMzLGh0dhaSoKJZG0WjUoPqut+VEfY8BMaK1o80rxmJJrsHgZtwJ9RMtVKJd3iaGG7wpcXcvHrMnua7iocn9I7d+R39BOG9xgyfFbTvlK5POjYFF4baf2fFB+eGf8Nhu3V/m80kCkLRWW79XRhh6iWszbI9tl6t96fOXAfjytp/vpzexxWr3rzVKt3JgT46stByh/HIsW9D/fbQWUghZiYeNfD1BBgFQHccZcAf6Auy6Ln9STjQpZoiDQ4hp1iQBTyJTJAvaTiBBH8VksTMDkBSFXQs7Zz969lMsXPvLId/wBFoxVzRIJG0kuWlJmr7/++QYSgwZthVqbA/m/NzHbokpu1VqwwQ36efBtUxyYYcpwp0UWuxvEobG1LtVYoOh0aAgD/59MIQaRiQRFdvw+9P3CsnTHFxr3/eZIG+JPSPBFZlNSRcjusyDMdRONyNJmJPclJexyHGtFQokhT4SyBZFSUQjh4EpOymU7VDU3W7GRIsrYdsYcCcw5eda091auyTXc9hzu028ncAlYRHDlCn7fchBxSS0edArTEachyuLQUOVtBbD4vOdvInYmsnx0FKW5S14RhAEUF3XjVljCvIHUcqtgiLFUMftNup2G3s7SzNcuMgD8Abe2/8b0GfYyKEcQ43JYvPvk6KbLjMyC8tFBwCUbV3+7VDU7dZht4IyzP3crUUOJHE7xjOhRPMIAJa3j75LliRGSfkZ1pl7HtFxgsHvl4Q8s/BvSXi/FJ1/KEsIWNqZYR4SvT/6exSCiP9B+L0UChae/DfhZzqv2HXTtSv9FCUpB3ovQ6UJ0BJyztHnQ/QzZztZ32H7KJCi85FlSIoCSVUQSICPEF4YwGekAfhhCJWQuTjIwqBu+MmBPFkCUZCHbc6dXOukXN12rt+wTczPPfQghYwwIstyBA4OopOBkN/ub+0k7byTOziIGsdjwOTPJsXZSdiBqNkHAbPdCXPwP8W1Hqrchlq67TGS7Sx6EmqcvBfkRHdXXMdhoSKlSRUFW/LdSfc76Z5sp4RFiu1u7mWSRyNiVpIkQR2mLciEJxUlDLrYSa/sQkQiQxBjwfQ3tixA9Bh4H10IAVBSlH+low4goUBkSQOOWvbdfnpPRAMdcE05sgiRJSSCYqGQw2Z/k2WJx+UUo+8E4A0r/kiyxEzjhzyXHQRhArMIW9Yr/vNPfwSi1Rae0hC+Uzhg4bdTiMPWJglMolfRnd1V+onvFSnaZ6HwczDAxJL43/rCKiWGcINpy6GAXAL3IcYDk4Q1jd4Tip5IEHD22mBhzCBnQ00K6EXfe/BDSbnT3VrkYf/e2WIkvEdIQ/Q50XR8f0tKqb/QUUWL5EJWNEb35AoE27J+drJAgzHgbgR5J4u8Haj0H/X4ex17uxzsbvgFw2LvnfZOEqC0G4wjkVk2kGodBHK385J+Soy8m2scZFDKsgxV0zSOSouIquu6iXHydrSywXxwEnNq2EUmLzBjlRmGAVVVYTtWlJ9TYFk2L+eybRuOY8dIIZTjJPYLK+tToOsppFIp6LoOx+lBUbSI0aYgDCR4XgjfD+D7HiRJh+d50DSNE1BEps1gKDIszbXbtMjg78TvZuQICbquw/d92LbNWT7kOSVlE8Tcuoh6ivzlQQ42aXnbdaLYMoQf0UIZbZKda6fTxujoKGRZRq/XY5+XVfiRh6WpGnq9HoIgQDqdRjqdRhAE0f1ykEqlYiwqCtXoPBRV4tc3mLem9Gev14NlWSgUCpAkCd1uF6lUKjpXbPEwKferKAra7TY/L1oL2kNsbYNEwJfWNpfLwXEcdLtdENZEhRie50HVNIQA/CQqqiTBF+WL+ACEHUjMu9Q0Fa7rotvtAmD3PwgCfh2e57H9+1M01XYWN74pf55mFzUi8XaJBNDrdaNNEqeGqhpbTOISq5LKNzw7lg/LsmBZFnK5HGc+EVsmDENoagqGYcB1+5srCR3fnmK4vcXZDdtN5EIPbvJUKrWlmmbw1e26MVdMZIKJqTBx/UTrkzLSQm1znzNA6UlVVUHMQN/3Y4IpusXi9ZBy0XWdnw8X3Og7SJl4fp+5J5aIiuuXSqWgqipSqRRXdvRdqZTGvTGipDLqKDNchmHErnmwQkvTUjwN6zjOFmXZaDT4v0nhqqoKTdOgKAqsXu+l0naxuFtiZBZaC1HZkRyIMqsOItEvk2Qf5i78vV0zztqKrtNxeuj1etHG8DnirKgKdF1FOp3mC6soGt8gjuPANE2YHYsrgVQqhXTaiDZKVK0jh1H5WTiUubMT4f/vdf0irXKQ+DJY7zoopPl8HgHiBQokMIqioNPpQApl9iQ0WOrnrxVF4TRY2uSi90UWLggC6LoOVVXhOA63FoGiIEAIRVOh6hr/vBYdm6y4COixeylDkmXoaqofU4YhPN+H63kxLyOdTsOIOOOuZUFibiazgrIEz41AIUVGWktDlTQEYIqnVCrBcRzYtg0v8KFpGlRd4wqjZ9tciIlHoaoqZEUBJAmKqsa8PyJPyUEANdp/O1FQB2mxXPFGZBglUABZgpbSoeoaAofB9Yqmsoo7md0zVTzIsHTJy6Y9XibFsh1xgDQQWSBIQWRNTQAhstkM/MCNrAmQyWRQLBZRKpWQyWRQqVSgaRo0LYUgCGCaJqrVKjbWq2i321hdXYXrurBtB7lcDrlcDqqqotfrodvtQIIGzwvYDY6s/G6RxmE5z0HCw3YPchHFJgSu63IllgQwcnRWAsKeDz/su4VkLXRd59ZSpN0OWgXf99Hr9WDbduy9ZAFlWWaEfVXl1o0smCzLSKfTXAhoo4vWbTBUY1ZQi3kbVIFl2yyEIu+Awhu6Jt/3ubueSqWY4nZ7/PtpDcgy67rOXdZOp8M9DDIA5JkRt5mugfjjpOhImaZSqRgtebtszHYxdczKRveclJamsVCFFODo6Cg/V3UwpbQd22gnOuVw7DNMwD5DTtxg6SCZg06MnxpG5ZN9QfZ8Fo/0ehYyGYMtusyELJ/PYmJiArOz05iZmUGpVMLc3FwkgBo8z0O73cbGxgY2NpggX716FSsrK1hb3YDj2NA0FZlMGYrCzsXs2NH3s9pf9srO0ffdAdQTWxBkSVK3ZAR2m3sGAFkBXNdjtawy27g9u4uuxYodLMsaDpJE8aIfsctIQEgAPM/D1NTUlhhZFORGu8VdZwUKujYTasMwUNZUSFFeV43ym47rwAsDpLMZpFIpaDKzuu12m1t013XR6XQA3wOUuHvIMAwd6XQauq5D0xQhlOrBdd3o933hpso9ElK6Rt/30Wl3mfBpaciSDKvLFIFhGMhms9hY3+CuO6uWcnl7nSAIkM8jJsjkspPQp1Ipfm0jIyMoFAq8CYDjOFH9+/CHkctuLVThXW9caIoC32ffR2tDGEkul4uFVj/btR5eCRQI/NGf9hBz3K5nR6COB1mWkE6nEcJHNpvD+Pgo5ub24NChQzh06BD27J1FqVTC5MR4pB1ZkbZlWWi1Wuh0WHw9NzeH27dv47tvr+LFixdoNpvQdR2FQgHZbA6rwToc24uBLKIb+DLMqp9CqyR6LLm4juOg1+vBMAyUSiXuLid5TUEUtwVgljiTyUDTNJimyZTX2hoXUrLODKDsK/Rms4lcLofx8XHk83lUq1UsLy/z+0JKwPcZ7kAbrlAoIJ1OY2VxCaZpAmBF8BMTE8hkMhysocYPnufBsiw0m000Gg202224to2ZPTMc6/B9H5lMBjMzM9B1Hc1mE7VaDd1uF4ZhRCFSmsfK7XYbrutiepopdkmSsLS0hNXVVW5dVVXF+Pg4Jicnkc/nAYC52ZHQDlZ9kVXUdVbma5omnj59imq1yu+PbdtotVpM+MPddEAJt5QGkyAHngfPcxG4LjL5PIpFlyuzkZGR2L5UB12q7dJDfy+O725dawBIp9PwAxf1ep27a5LEYuBcvoiJiQkcOXIIp06dwJEjRzAzO41isQhVARdihkIzgSiVSiiXy7yC5NChQ5iZmcE333yDh/OP0Wg0IEkSRkZGMTY2BrNj8ThQVCy7sahJ+fmXwREG3UjbtqHrOo4cOYKzZ8/i+PHjMRQ1VqscAUGhxNYwn88jDEM8efIEf/vb3/Djjz9yRFk8hvgsl8s4fPgwXn31VYyPj+P+/fv48ssvsb6+zuNmkeVHgBcAmKaJRqMBwzAwNzeHCxcu4MyZM5icnOR10CJoWK1WMT8/jxs3buDWrVvYWF2JgXOZTAaHDx/GW2+9hXQ6jadPn+LWrVtYWFjgCD7dGxYadVEul3H27Fm8/fbbUBQF3377Lb788ktsbGzANE2Mjo7izJkzeOedd3D48GGoqgrTNHl2gjXGkHidPllEEuQ7d+7gyy+/xJUrV9But9FoNDhGoKoqwsDf8f5ux/aiNVbSaaiqCsuy0Gg0oOs6SqUSSqWS4FrLoosbaQr8PCBH5Lj+1Hwl3cBUWkOnY6Ner8MwUhgZGWGuXBBgamoKe/fuxbFjx3Dy5EnMzc0hk9EiawZsbGzAdX0eU8qyzN2qdDqN6ekJjI2NYWxsDKlUCmbHwr179yLLpGBubj9kqYVOp8PjM1J4SXnEv7dFJiFmqTK2ubLZLI4ePYr3338f7733GqcHstJLRI0SmSCHUXF7JgNQaPfDDxNYWVnB8+fP0Wg0Ys0LxVRPEAQ4fuI4XnvtNXz66aeYmJhAsVjE/Pw8VldX0Wq1UC6XOXZAx5BlGZZloVqtQlEUjI+P49y5c/joo49w6dIljI8X+f0JQ8AwAFUF6nUft27dQiqVQq/Xg+/7ME2Tu5LZbBYnTpzAJ59+jEK+hLt376LVamFtbQ2WZXGhUxQNrstKUUdGRnDixAl8+OGHfA0fPHiAWq3GgabR0VGcO3cOr712FroOdLtAr8f2Srfb5feAYS2sfZKiALIMVCoVbG5u4t69e6hWqwgChqeMjY2hPDqCffv27ZrOurXTjofA86Dr/dTn8vIKbt++jZ5QzkjhqyrLMjzHhe956LomVEWBJ8nQVXlLykFMUwy6lUnWh2ndcEsiexCRFT8jujNGJhXFogF6vS7C0Mfk5CQyGeZK7d2zD//lv/wj9u7dC9e1YVk2HMdDr9dDtVpFt9vjqavNzXVomoZyuQzDSGFqagqSlEcmk8K+fXvx0Ue/AABUaxu4f28eup7C3j0STp8+i4cPH2J+fj4CiRDFzVrMgyEQm1WrSNumFgbXYFg6z/F8wPPgRcJm2TbQ6aDZbqPT7WJppY5KpQxdBxqtLkzTjIA+Db2Og0IpheXlGnq9DCqVNF68qOLevXvY3Nzkm59ctVQqhVarhXq9jkqlgqNHj+Kzzz7DhQsXcOrUSRgGcOjQIYyNjcUE37IsbrGy2Sy63S42NjaQy+UwUirik08+xmeffYYjR45gZCQHSQI2NzvY2NjgFr1YLKJYLOLcuTMYGSlDUSQsLb2AIufx5NFDAAHOv3IRB/bP4ejhwxgZKcDudTE+NoKUrqJrsiZtgQ94jg8EEnQ9jVKpgsPHjmLuwBwkCTh28gSm98zi7oP7kCQglTFgey42alU8fLKEYrHIw4SRkRH48FEu52DbAZ49fwbTNJHJZKCqTLl8d+U73H1wH/VWG4Eko9uzkIKE46dO47e//S0OHTrAu6xYlgXHcaLPq2i32xykKxaLyGaz6EXpKob+92Ck0tB0FVa3h7W1NVz59ltsbGzg8aNHzDg5DkI/gNxndgUxKiTv7QQJQUJZ1k7x9FA21ku62cxdC2KbjSzr+Pg4PvnkE5w4fgKQgOVlFvsyUgDbKI16h1nhTCrqQOhHrnMRmUwmSiMx4TEMAzMzMzhw4ABWV9bRbrdZZwbP4wCL6OqJiOVPQep3uxYkNKkUy223221888032NzcxP3791EoFGAYBsIwRKVSwbFjx1CpVNBut/F44Qnu3bsH27aRyWSwsbGBR48eYWFhAa1Wi7uIZEWbzSYkScK+ffvw1ltv4fjx45icnISiAJYFbikHr3kwhaQoCjKZDN599128/vrrOHz4MDRNw4sX61hdXcXjx4+xuLiIWq0GXdcxOzuLY8eO4dChQ9yCLyws4Mb165BVDYHv9osWJClq75TAABP6wG3n8dHvnz59il6vh+XlZRQKBZ6TLhQKOHnyON58801ouorNjSq+++473L9/nwGIUeOE1dVVPHz4ELVaje2hKFMyNTWFqakpXHz1HBSFeR7tNouh8/kcdB0wTQ+GocI0HaRSOlIpwHHYdek64HlAu2kil8/C9wIUi0Wsr65ifHwcq6urffRcCiCHYFxrfnHhcOJ+rJdTZJGTONg/xQ3fDuxhqCFDSjOZDBzH4XHi5OQkAHDXmaWSbFSrG1hdXcXaapW50DOTKBaL6HY7kStmYnJyEmNjY3AcRAhlHocPH8bFixfx4vkS7t9/gGq1ipmZLrLZLHK5HHdFdV3nqZafk3bbjWtNiKlhGCgWi3BdF2tra6jX63jy5AlXcCMjI3jttdewd+9elMtl2LaNq1ev4m9/+xuWlpY40MU2os8VImUGKKWxd+9efPjhh/jHf/xHlEYqyOczUczb5TG16H2JeVRCw1VVRaVSwRtvvIGzZ89idDSPR49e4Ntvv8XNmzdx7949LC0todFoQNM07N+/H++88w4ymQwuXTqJV155hV3f48cwDAPdrj/A8R9CpgjlIe2bkosa8vk8ms0mrl+/Hgud9u7dC1kGLl68CN/30W63ce/ePfz3//7fsby8jCBgIQuFART+EIbSarXw7NkzPHgwEbWY1nlKjildxioLgiwHHSkHTy2ygiCAKkswDAOFggyAhYGZTIZzIsSHuhu21nYtUZLarZKLudt88zBOrOd5kRVwUSgUkMlkYNs28vk8Tpw4gZGREXS7PbQ7zai/bx2rq6tYX19Fq9VBNpPnaZdsNgvPY0BEtVrF/fv3oWlaRB5h1m52dhYXLlzA7Vt38eABiwX37KljbGwMIyMjME2TI71JbXr+3g+RyEJAF1lgWZZ5HjwIAkxPT+P48eNIp9PIZtOo12W8ePECDx8+xMLCAt8csiwjl2M9zG3bjqh/LJ48cOAALl26hE8++QSnTs1ibdONFGoY68cmItZimEWCrCgKyuUypqamUCwWYZoefvzxR1y+fBm3bt3C2toaOp0OT9X0ej2USiWcOXMGFy+exOhoAbOzsygWi0in0+h2Ozwcoba2g9RUtn+EDEw4WIO8dX3z+Tza7TZPP3meB8c0sZ5OR4IWcE/IdV3UajV0ajXI6QxyuRwjoxgG7zfd6XTQbrdx48YNVKtV3LhxDfligQNTc3NzOHr0KFRVxfLyMtrtNh48YAaDQD9VZYSmMAxRLhZw8uRJHDt2jGMR1J20N8AaU4cVdg8rik/qgjC8F1I4kIIKE+pmZOEZzz/3Oy3KyGRy0HUVvu9jbGwcBw8ewuiogefPq1hZWcHGxgaWl5e5lp+ensbePfug6zqyOSPia7PvsCxmmarVKsrlMgoFRpDIZAwcOHAAx44dwzfffIuN9RrW19cxOTmJ0dFRVKtVbsGSBHm3JZcv461QHEWpKN9nDCQ2RULim4dIFoweyFI69DfXZYqQ0GIiRZAFqFQqePfdd/HrX/8aZ8+eRTabxeamh7t372J8fBylUonnTYmkMNgHWwyHFEVBPp9HPp+HrutoNBp49OgR7t69i7W1NaRSKZRKJYRhiM3NTXS7XSwtLWFpaQnttod0WuVINaWoREEWyULx85C3GBUFEuQIEJSCEFIQQg4Zr9nt2Qg9H6okQ08bCPQUarYD+AEbGeB50BUVRioFTVEghSFkXcdYZQSVSkXo26HReqUAACAASURBVBYRhYwM2l4bG6trEQh2B5qmIZvNYu/evfjFL36BwwcPoVAqo53N4ff/3+9w7do1LC4ucsol5ds9z8OpUyegKAqmpqYYIKsb0LV0jJi0xSKLrvVOXSMHre8wxHmnjZzkjscsP+JMojBkBRTT09MYHx+PYo82Wq0WNjY2UKvVkM1msX//fszNzWFsdCLqeMJiO11XoxvgYWNjA5ZloVgscvdc14GxsTGeknrxnCkIx3FQLBaRy+W4Bt+pUPzv8XAch2toSoeQ++Y4DicFkEUh1o9thxzZJP4xCUW32+V5WcdxIMsyxsbGcPbsWbz33lvI5YAnT2r45ptvMP/4Ec6dO4czZ86gWCxyRtige03KQUxhEhtOlmU4joNarYZqtQrP8zA2NoZKpcLj9GaziXq9jnq9DsuykErlOYtKkiSEA7W3jBfgbun+Ke6reN0xEkk5RCwR2VOe56FYLKJcLkdodT/9R3l2Avc6nU6EHis8l01gWRAE6HQ6MDsdwHWxvLyM2dlZvPfee5iYmICu63j8+DHu3LmDjaUlSFEhD4U9cBzk81nUarWo6ETmZJekPbatRU7qPjiMU72TcL88x7i/uHQBjuMin89jcnIS2WwaQQCGjlbGsL62yRP8Y2Nj7DhR14nA9RAGAcLAR9owkDay8BwHlmUhretQIKHd7sDVXExOVrBnZgZT4xNQNRn1ehWm2UaxmEcqpUUVNaxOdGtBhRzzOOSomjfkVb2I5g30/Q/iNW/pcgHAEXK1ImVvsACBLC0JLxUliHTDwfsk1mp3Oh08f/4c16/fQiaTwTfffIO//vWvaHdNVCoVnDx5EqmUHCNMUL5YFGTRWhNQR/2dB4s36Dhi2qsvKP1WuwRyiYIZBODYQdw7iree2qkJAX0fEVTEc6HKM1pysWcdscoGK98Io6H4O6/koaoqmrVarPMoudGjo6PRtIgOSqUSstksbNvmnhR5WrIsQ9fRr3bzwi34zLYx8nZCvF3NrSiMPwfwIiCFNDsRDorFIlQV6HRYPJbL5TjgMDExgXK5zBlMTMu5EbBjw7Is5AtZzpAi9I/F4iEUBSgWiygUCtA0DZZl8XhE1IZi7vQ/6kHXbJrmluIJ3/fR7Xa51RKLKTIZKWKnZfn1iak/YicR/3x1dRVfffUVqtUqdF3H/fv3cevWLVTGRtFsNqNrBy+fJPc5nmbsx6e0LkzAGSElk8kgnU7zNEy73Y7xq+nJrF1/0yb37EJi04vBvbuTsSDcQSztJIvabDYjK9xn2InVXMzD06NrUHgJZbPZRDqdRrlchuexdJMkSZyvkM/noarxyjZJkngsLrbbIt42KUhSbpIksXll6I8pUsXe0ik9Ddf1YXUd3lPYcR1+ESRQ4qTBpGmIfQBieNE03UDxZohMIbGGtlgswvM8tFodHDhwCKVSCSx0kqBpbEMWi0XIsoxsJo9sNsvcyVQGlmWh3baQz+cxMzOFRqOBtbVVbuVt20YYSFGD/kwUQ1scxUzpqdimilW5bEPRpB5ROzF7tuuiKSqOpAIMqu+l8ktCUGUZ6HQ6vCigUCjw91EcTRujVCoBABYWFvDw4UMUi8V+/XMQYrRcwWi5Ailgnk3OyCCTSsPqmChkc3Bcl7EjtACh56Nndtl9SBvRxkOMLEJFHxTjiww2qjunuV2i5UulUhycy2Z1zq8WrXoYsrpn3w9Q3VyDazvwPS9i+UnwXBeObfMmW6qiwI2IFarChgGEQQBVUZDWUwj9AAjYVEcjlUZaT8Hp2Qh8H67joFGvs5BFVRB4PvLZHFJa3z2u1WqwbRszMzN4+4038fqlVzE9MQYEQKfZQnV9A9X1DXQbDfSyOUyMjiGTSsPt2Wg3mrwIo9XqoNsd4Tl3wzD4vaTvUocVSgwSubcrYdxNjPjy4I/MharT6XDghFyYwe9h7ofO4xciOKTTaRSLRfR6PTx79oxbk6SRJQwRBCdG0HHJFRQbF/zPePyUUEVcYyIfELJNioHiS1on2jDdbhe1Wg0Awx7Gx8cFZFiOeUiD6ycCNWITA5bzTe56kTTvmKURFc4xH0xFMuWHWCFFEETFDK4X5cR7AsJNPc53X2obPz8kdo4lHICNOI2UVzYLTdPgOA6a9QY818WePXvw1ltv4YMPPsCxY8eQyQDtNriVHhkZ4XXN3W6XeyteZDxTqRRyuRwyGfA6Z3FuM/UnU5PmzohxlOwPH969u8FYYv8uMdUkCd0H432TxO/qmj1oqolctsC1crttRlpaRr3eQ6PRgCzLmJqawvj4OFK6Ad8L0esxWD+fz0ZunRnFo8wtpThNljxeEhcEbEHJnSUiCHFwaV1+at785wj1sNAnaVyNWDdNHoRIsvd9H81mE/l8npNjMplMrOtIUgcYsZ55sE2r6F73+0khcS4XKZatQuzCdVM8jTXYQWRQUeVyOfh+yDgGdsA50al0hmERrLQ8eg2hsJmeUCBxBJt2nhzGn6okQ5UBTVagSjJHwOEHgB9AlWQEno/QZ3tCkSTYjoN2s4mO2cbs3j24cP48/vNvfoPXX38duVwKngv4nodSsYi9e/ZgbHQUTx4/xvraGhr1Os9MyIqCyclpjI+zgo4gANptE51Ol5OURG9WFd3hwbYmgxY5qa9y0kyj3UyfS0rQb9V6ErfAJEDNZhOrq6ucBUN5SHIXnz9/zpHacrGIarWK1dXlKB2ShSzL3LpmMhkWI0nMmrPKnBCNRgOtVgtBEHA3vdPpxFq6EBr7v/KRBFSKQkcWazBNQyAYhQeUvywUCtwyiI3dku6RiFQP3n9y40WLRpZE5BOL7XXIRSSATEzHDNbME4BGwu84XuSq94ErcbSP+JmkPT1MWZJHER9aKG0Bg3VdRzabRRAEqNfr8H0f42MTePvtt/H+++/jwoULyOdTWF7e5MUcc3NzuHTpEtbX11GtVrG0tMSJP2NjY5iemcH777yL48ePQ1VVPH9ew7179/DixQt0u10eVnFBFoVYvOFizJrk5iXV1b5sa9XtrBqdl1hDG4QBWq0WXrx4geXlGkZHKxGwUEGn08Hjx49x9epV1Ot1TE9P47Nf/xq+66HTasMyu5AwFpWftSFJEibHJ1DI5flA92xGwfJyDQuPn2BlZQWyLKNQzEFRJXStDrpWB47L4jtVk+G4QTw3vmVccAAp7D8JtZZCRM9AzI30X6OChzCUE5sUiDG2SI9MmmghyzI0TeMCS+4w/Y6sr9jlgpQVuXKDCpbew1J2LJwRUzMkeOQG0+9FJH2wFFL0LlQV3OKQ9yYi9rIMnqphZBmXx9HEUnOd3lAyyHbh0VavZrgCiHmusox2uw3btnHkyBF8+OGH+NVnv8KBAwdQLObx4MECvv76a3S7XVy4cAGXLl3EyZMnI9pmHs+fP4dlWdB1HTMzM9g7N4c33ngDU7MzaLfbuHbtGq5evYrFxUX4vs9TkrRG21rkYRZ1cBzlMC72doUBgymrYVPucrkcL6JXVJY/XVlZwYMHD1Auv4psNsthf9d1sbGxgWfPGMH92cJT7Nu3D8ViEfV6Hc1mE4VCgXOMCVBKp9l4VtcBHj16hPv376PZaiCbKfA8s8jqEgkK2yKj4c9rTCsLamI7ZHZrV84+hZDSRISyiz2wbNvmfycWHdUVa0KrGrFJuwhwttttZLNZ3tGD8AlywSl+JfwilUpxEEt03bk7HBFOaCvwLigCo4mlY5hbnc/nkU6nuSATmCZWirE+YqweXWzZs5se6UnCL+5vUmAUJ3c6HaRSKZw7dw7/9E//hFffOBZxumv48ssv8fvf/x6tVgsrKyswTROvv/46Lly4gMOHD6PRaPBOLNlsFsVSCeVyCT3Xxd27d/HVV1/hzp076HQ6EXsvGzs3dbfkj6T5NsPcu52GQw9bsKSZSoyixxapUChAU1NoNBqYn5/H4cMHUS6XOXR/6NAh+L6PZ8+exbo2UqfDEH6U7K/E4twgAGw7wOKLZVy5cgXz8/OQJJbCyeVyPEammJlSF/+rH9vVjvenAUqxNjdiSEStYohI4jgOL4rPZrMIPB++68F3PQSeBikEZDY6jCkpP+DeBb038HyEUgCnZ0eCA07uoF5qjuNwASD+McXqTDj6BRo07J46jZimCUli/AHilTcaLdRqNUhoc2VlZHIYHR2NSDN90JQIMWIefPtm8tgy0lW0ziy9x4pOXNflAtZqtfD8eSOiat7Al19+ievXr6PRaPAGF7qu4/jx45ibG8eePeO8gs73mUf39OkLLK2u4M9//gu++upvWF1ajrIVmS3GVCXd349JpW3R6WGzbX5KG6Bh76cOnKStfT+E4/RQKJSg6yoc28Pa2hqePHmKs2eLyOUKsG0bxWIRY2PjOH36DHRdQ1plhQJB4GF6mjUcmJwa58qBsXFYaWKz0cajR49w48YNvHjxAoqkcI3e6XTQ6/ViwkE5yKHWNAR8SbStgWBjByfvJb0mr9OwJgU8diUbLksxkgLxygmpJiEhAgKFMVSYQfxisuD9Ms3+phatKL2X0nYdsxX7nBgjixMfJEniFsYwjMiSB5wdFYZsjE+v1+P3gdzos2fP4tq1a6hW64xlZTOspFIpY2pqAuVyMcI4wJU5KYikfmFbpqIk1OUPGjLm4sq8uUEQBHj27Bk+//xzXLt5Dc1mE0+ePMHdu3fRaDTgu8yjfPjwIf71X/8V7733Ho4fP849CqJnOq6L+fl5LDx/hqtXr+LBgwcIPT9WsKNGyihKnyncjUmnZMEFC+A4dgzGp5shDukeBBUG42txUuNgrpksxGBs3WcChZBlFdlsLgI13CipXsTS4go2N2pYfLGMffv2IZ8vYnV1NepxXEK5XES31eJ5N3L1LMvEZrvG3LZQxugIa/GytraBzz//H7h+/SZ36ffs2YN2g7FrckaO92JybAearCH0BtobBSGgMFkN5CjlAQmQZEgKgFCOJkAqCKWoW6Qks8HqIdirRAo1SnUNAFkyAC9aYz3N8APT6sLzPchqNB9IiCU1jfX+1rQiJCmMCCZtnlteXFyDaZqYmZnB7Owsj3kNw8D+/fsxPjkGy+5CdzRkcgYuvXYRmZyBzc1NFItFtNttLC8vo1qtMoUAHykjhWfPn2NxcRErq0s4cmQGv/nP/wmZbBo//PAD1tbWeC5Z0zRMTEzglVdewfvvvw8jo+Du3XnMP7yPpaUXyBlptFUddtdCs9bAnR9vY2J0HAcPjOPZkxI++9WvMTk2jvn5edi2i0qlgsnJSZRKJXz22a9x8OB+AECttomlpRewLJMZA6cX68HGYnkVrmvDdW2eIZGkPjqeSqV4pxbP85DNZiPyCFvPPXv2YGNjA9evX8ft27ehpRknnjCFffv2QdM0tFotXL9+HU+ePMH9+/dx+PBhzpUgWq6eSuHBg4d4/HQBi4uLrCNOocgr/Wzbhq5pXHGqxAwhXnPcUuweuPp7FAkMWhwWTxHFj5EcLKuHdLqHZrOJ//pf/0+cP38ev/jF+zh37hz2ze1jHUHsblQapkXCa/HFVxRmaQuFEqamCjBN4ObNm/j973+Pzz//nNemTk/PxNxyMfUkUiS3dcsCSqcF/dnLgQRJZkLL6koiK530Ku3c95oYQJIkQdZYjKrogG6kY80giElE7CwCrSRJwp49e/Dee+/hrbfewvj4OAdvFEXBzMwMpqYmoCjA1NQULl26hGPHjvHSz2aziTt37uCHH37A/Pw8XNeFaZp4/vw5/vDvv0MQeshmP8XU1Dg+/fRTnDlzBpubmzzHT3n+iYkJFAoFLC6u4tq1a7hy5Qoa1Rpvltfr9fDgwQN8/fXXyOVycN3zeOWVV3Do0CG88sor2NzchG3b/Hi5XA6zs7PwfR/37j3EF198gevXr2NtbY234hFJJbRW5Kl4nodyuQxZxpY5S2SUer0e77xJuW7KsVuWBS/0uLGjuJ2UgaZpWF1d5fXQxAzjzQU0Del0Bh2ry4Q4l4MmKzyjQIQe+j51WFXTYCHFTuNLdjPYfLAzyE6xn67rvFaTSs5WV1dh2z2EYYibN69jbW2F54dfuXgexWIeeiqPIPBhaApsm3VtJLQ2nU6jVCqhUEjD95kQ/8u//Av+8Ic/4NGjR8jlclE3zlnUGy10uxb/PFmrpG4nw657uwHvw+Lc3SpEETAiwj9rSjeDVqvFU2iD6DCBPrQpqCHBO++8g/37x6OCDbLo7NVxwAUkndaRySBikDGFu7CwwL22IAjQaTbwpz/9iQNrr776KmZmZnD+/El4HtDpdFEoZBCBr7BtYGFhEd999x3+8pe/4OrVq9hcWUM2m0U+n+c1vkSS6PV6+OSTT1AqlTAzU4kALeYFaRprH+T7wO3bj/H555/jT3/6E3788UfemUOsxSYBprCD9p1t26jVbF47TaHe4IA4Ygi6rsutd7VaRbfXjZXjUoOHVCqFSqXCv2dlZaWvdD0P/QlbIRTDQLk8wlKjrscxAGpeSC2TY5Mmkphcu+mrlSSEwzZqkhJIQmLpGBR7jI6ORi7wGkyzg8nJSRw+fBiWZeHq1avo9Xp49HgeBw8exNzcHKanJ5HPZCBJGiQpz3s2ua6LRqOBej3El19+iR9++AF//etfsbi4iGKxiOnpaeRyOc6btW03NsFgEMHczdzjYcKZtHYv671Qk3YA2NzcxI0bN1Cv17G5uYm1tTUO7FBIJE5CEM+r0WjgxYsXMcSZNjqvyBEq0RilldU01+t1VKtVmKYZsZAyaLfbsHom5ufn8fvf/x4LCws4deoUjhw5Elk6meMMtm3jyZMnuHLlCr755hvcvn0bq6urUGWF87Tp3i8vL+P777/n9cJjY2O87pmsIoWDT58+xY0bN/CXv/wFt2/fjuidWQ5YUs6Z7idlM8IwxOLiIr7++muUSiWsLK/i6dOnvFONJDGvjHkGLny/T4+tVCpc0TTaDd4vXbTqhEWILYCy2SxGRka4xfZ8nwF4URfJbrfLCCzCeUpS2OeoJ1nj3Q4g+znN5rY7jkhgFycqVCpldLsmL2SYmZnG2toams0mvv/+ezx6PM/LEA8c2IcDc/sAqU90t20bm5ubWF5exubmJr744gvebSOfz3MU1DRNLC2vAJCjftZKDKQZHB3yU0OK7RB8mhe80xqSe2pZFhYXF/HnP/8Z5XIZrVYLS0tLnNRCaR8qMkmn02g0Guh2u1hcXMTly5fx5MkTTE5OIpfLQdd1tFqtWLqK0lkiqUNRFDx79gy3bt3C6uoqKpUKcrkcEyaFNUCsVqu4c+cOrl69ioMHD2JsbIxnFGiTPn/+HHfv3sXTp095H7CpqSleFKLoGlIZxjF+/HQB69VNLK+tolAooFKp8CIX0Qg8evQIy8vLePHiBayehWwhH3GxfZ4DdwOfp8xSGYMz3m7fuwv7/3ZQKBTQ7bK1tRwbiq5BVRngBEWG5wSQFAVaBDy5vo9eu41GqwUAmJmZwenTpyN0vYEnT55gfX2dD0tot9swDANHjx7F6dOnucHygwCNZg0vlpYwP/8IGxsbjJkWhYakHKhYSE2yMoM1ysMm6W1nlXeaSL/T7FhyHTOZDFzXRbPZRKXCGDHr6+totVqQogHl+Xyes75WVlZw584d5HI5TE+MQ1b6E9+pKd/S0hKv9KGNPjExgUqlwkeZsHxdBqoqx0A+Mdc+rIHgy1jkn+Nak4UlcgRrOMiGmFmWhVSkzSnVQu4jlYayHKyNRqOB9fV1/Pjjj8jn89yFVhQWk5ELTig1gZG1Wo1X7FSrVZ7GomYIBIratg3TNFGr1XD37l0uOOl0OkYuofrebDaLUqnEz48wDvIs/MhaUYtkquYiT4PWUWy4QF6E2GtNTMuRN0r3uVZjNdlsPpjMGzqIeXnTNFnKKZPnKD/z9uroWRb2HWDsrc8++wyzs7OYn5/H7373O7x48YIXVBSLRZw9exa/+tWv8OabbzKKcSoFPZXCwtPHuHXnDv70p8/x3XffYWN1jWNHDB9R+xmBl7HIL5NS2qkf9k7WWOwHRS5It9tFpVJBpVKCabaxsrKCYrGIygi76bICngvd3NzEwqOHW1qkiKSAfXMzPC1jGAYc24XjmPA9JtyqytwoElyxlpQ2atK18muTAvDZ0MJ8XEmKuscJs5b77xNnHcs7rjVn9kTADaVoXNeFnDG4cqawglIXVDNLrjblj6l3F41fId754CA1iulM04zSfmMCLZPRQPUUQ7/pflNhhji5sN1uw/c8GJkMMpkMb26fzWZRr9djlWZUMTXYHUQcKSMKqLiH6JpEkJIwBvq51+vxNBgrHGnBNE3Icn/MDFM8foxcQ8LlOA7q9Tps28bcvn341a8+xbvvvovXXnsN6XQKS0tLPIfc7XaxZ88e7N+/Hx9//DF++ctfYt++fTw0yBd0GJkTKI9WopgeuPrtVSwtLXHiScZI8b2p7uQ2/0fO4d1NzyqyIrqu8z7Huq4jn89zFlK73YZlWfxmaxEsX11f48geadRsNotKpYJyuczjC0mSYFkW06TRRmbHMWJdNsR6ULGaaDeEjSRg8Oei/GJBBMVOVPwhcpUpZUIVRYSi0nVReo6OIzKYyJUWgSxKw1GMSK5eq9VCs9nkOXcjk+LrRgqAFGcmk4FhGBHmYTI2U7EYOz8iTdAECVo7EmLK49PvxIFrhKqTsqOUjVgeS2tEe4uAVbLylUolWueQf4atW78Zv9hthZRJsVjEpUuX8PHHH+P48eMoFlNYX29hYWEhxpW+cOECjh8/jjfeeAP79u1Dp9PB7du3UavVkCtkcf78OVQqFVy4cIHhHmub3JKLXoXneVDT6XTM0tDFBD0rsVeSqJnJsg1zm2NDxQZc0iTrLxLoGeuHzVyyrG7UUysTuTM2b63iOA7kqOid5QYZQKIoEsbHxzExMQFVVbG+vo5ms4mREdY4fHR0FJ1OJyqqWOWF5OSeOY4Dw+hbF/F6CTkVrYLI+EmqJBvWCmnwveLfqcqFrC33JoShXrSBSGBEN9Gze1zRUR8tIm+QxRW/X7wWQmLF9Am5qWKzB13XuftNgi8CZCLlk5Qmqy1nbCyiJBIbSlxHcoXJ/R6cUzw6OhrbL+K9IiCLhLlWq8GyLD6cgAA+OidqeEfosud5GB8f462d6P6TsqPwRFVVyJLKm/Kn02m88cYb+OCDD3Dq1CkcODCKhYUq/vjHP+L777/Hixcv4PQsHDlzFhcuXMCbb76JV145B8ty8O233+Ly5ctYXl5GOpOCaXbw5jtvYs/eWbz19psIfR9r6yu4f/s2XC/LPYFErnW8fxH+Q8r1dns8ct2o73R/Izg8zxcEATRd4fNyyO3zfR+GnuILT+CKLMuc10rvIxpmq9WCZVm89e52LLTt50Jjx5TTbrwdMbYVK4B6UW5bS+lxt16WYuWBTiSIYuwotsihrACxqCjWJPSXEFSxOwUpSlKiSTOwRC4yCRZ5UuJaiCQisVyR0HKnxzqmkuWjGmpSgqurq1tq5+kYdF7iSNhsNsuxBMdxeENCsYqLjiP2E9c0PYb6e16/RRIAaGqKpzaLxSIOHjyI06dPY2xsFL0ecOvWLXz11Vd8Oka+WMKBAwcieuYcVBV49uwZrly5wmLhjQ3oaQ2ZjIHSSAmXLrE2x0ePHsXevXvx8OFDwRsUZj+JRHg+MFxV0eslt/jZDTiz22FwScUVYjqM0icsPgqhqjKfTh/CR71ex8ZGLdKcDp9aQEgt3VhF15CWoh7NPQu2xyiF6XQa6WwGRVmCj5BZ/MCH5djIpvXEEsHdItA/VwGKnswgdkBpoNg5yPG6Xynwt1RHkVITLS4Jm1gRJXYUEQkTYoonqfpNFE7RcotgoUi6IEtKLrQIkJEQB0GAbo9hJBQepXSd01FFd1kU5F6vhyAMoSgybyHsOA5SQpsdorW6ft+7DBECsgQ3YsvJVEcvSzCyGQRR+x+ahikrUaeOwIeiqSiUipicnoJhABsbJm7fvs3JKJ7nRThPBdPT0xgdrUSFFU9x7do13LlzB77rAIqEazkDb7z9Gi5evIixsSxmZqYxNjbKvYctPbtEiyz2htrOPRxWkZO08XcjCMM6RlBMxaiFXV71EgQBniw8ivXUymQyvE+VpmkcxbUsKzZnmOY/maYJ0zS521cul1EqlaKNGyD0kuPbl/FShsXJL0v4ENvlkHdiWt24BxPGhYlc7sEWTKIFoi6d5IpSHC3iAYNhDwFD5JoPrg3tm3q9vqWBgDjGVJyVTECSpmlckHVdj2EWlN8Wm+AP7lvxHFqtFq+4orARAAyDtUcmEI+OKSofyoKwLiAhDzkLhQJSOgPdeJpNVnnRBHl6zJtka0BuPbnjlOJi7ZjYnDHLsmCaZqSQDCiaHCN/+H46FqYmNqhPKpYW2UtJC/UyxRDbbebt6pyJAkdxIMXGREJYXFzE2NgY9u3by4dqt9ttrK0xmL7ZbPPYql+ULiGVsmCaVsSVtfnPrKmfCt/vwrYtaLKWmCpKUmDJSL04ExoxV6hftJz0PvY3RdG5dRGtWxAJhOj+03DzWHOBMNiSWiTXlYSBFAYh1sRgA8BzuGJnEHHkqGiZk+qiRUVBHpKI9NKgNG7ZIreWct6O40SosYxyucxnS5EX0Wq1+HkMYi9UOcfSRxJPRbFsBMMcisUiv26irVKKiTUCVLggE5jKvAGDly6KBSGUnqMsCIGCdH60boRcU/2yYWQ4wYbGu3qBC6tnomO2eBdXXVdhGCmoKpubLO4ZddAtYZo32LEV7s91rXdKSdF5DaZLiKiwurqKycnJiOqm8bGWlEIYHR3Fa6+9wW+K4zhoNpuoVqv8fbQRxPiPXDvTNFHMFbeloO40fnZYWuplYmQSLnECQTNqlarqWkz5+YjfJ0PXYqkycTQo5ZppI9I6kZVst9vc4ooA2GC9+OAoITpeGIZIG1muRClXLLbspc1OHGWaGUUINaHq9Bmxukrk9YwUhQAAIABJREFUmotCLI5XpdZFnU6HA2lsiJ/BLTZZUXGYOV2PYaQjZSXFe4FLKvcoWFiQ5p8jby+bzUCR+zhHt9tl32f3eCxNtfHU14yKJoIggGV34fkWH9WqaUChUOBFQINltDFBFuF9sc/vMPrky7rWu40L6Un5vDD0oWlpniao1TcBKcDMzEwEXmzCNE0UCgWcOHECJ06cwNGjR3HmzDmO1FIT+7W1NSwtLWF9fR2XL1/mWrHb7SKfzyOXy/FOkp7tDXWtfyp762XWghQYhTni3CZVVbG5uRlzf7kgs05zMNKpxJQehRKiAJKVEsGjarUaC7XELiKe52FkZGRLLy+Rg9zrWbz2eLB3ta7rsCwr1ouLiCeEBpMrSzO/aD08z0O1WsXY2FjMYxD7S/s+G9hHaTUxG9FqtRCGIZaWlmLxOx3btm2Evo9ez4qURN+bge9DUpgiLBQKPBwRQxO2nyyMjhh8PxmGgVarBUhMmezduxeTk5PQNBWWFfIh751Oh3tCExMTGBkZiRQPeBhJnkOCa02IH03UiypBECa2a/2pQM52Tey3ozrKsspd7OWVRXQ6HYyOVtBqNbjGP3bsKN5++228+uqrOHDgICYmJqAoCgoF1v3DNGfQ7R6A5zmo15tYX1/FxMQEfvzxBr7//hqq1Q14nofR0QpkWY20cwBA2VZAdyOoP1WYqW+1qqrodru8F3SuUMD4+DgOHz2ypcmDF7LGcEwwOnx0iyzLfPg4FdcTtmDbdsQrt3mL3NHRUczNzW3p/EHVYJZl8fSR2F1TVMaO2+MCnkqlOL5RqVRQLBa5JTRNk08MMU2TF3uUy2XkcjnmhTSb8H2fcwDISosTLigONk2Tl/uVy2U+R6rX62FzcxPNZpP/jVhkJGwisi/LUuQBhDHEPZdl85yePXuGdruNbrdfK82aQ7bZeNqygXQ6jZGREYyPj8OJhiIUi0Xe9CAI4kIcUi+5tIZzFy7i8KGjEU3UxcrKClZWVtDpdHh8zkhHgBpKMmzHge060PU0ZEUBZAm+727pMrGdBRWHZIvaO6kAI8lN3Tq1gc3yse0eJicnsbDwmA1V2zuDCxfOoV6vsUoox8I//MM/4J//+Z9x/PhxjI4WIEuMOPX8eRWOk4breqhWN9Hr2SiVipiZmcLRo7PYv38/FhbexOXLn+Py5T/hzp27WFl6hkKpglOnTkFXGMFiY2MDvh9wsIXFTT5nMslUVxzrOCmxDhqSxPp0JVWXRSGOFMZDZCn6XyaTgR+G8IMAoSTBijb+iVOn8Jvf/AYHDx7kloYTNTyXoV6yBMNgNbWFQoGz46rVKr744gtcvXqV51lJUXSaDaSzORw7dgxvvfUWDh8+HHNzyW1cX1/HvXv38MMPP+Bvf/sbut0uSqUSB8pM0+QVY4ZhYHJyEufPn8fbb7+N/fv3c2tCzDGaqfzgwQP8+OOPbNDb8hLyxTIarU7k6puYmpnB//a//x+4ePEiFhYW8MUXX+CPf/wjFEVBqVRi+IeRRb3ZhtNzUKhU8M57H+Djjz9GKpXCt99+i7/85S9om6vwXReZXAEXX30dv/nNbzA7O8uJQ2z0bggpamhAYY0f3U+isN6+dReXL1/Gv/7rf+PrXK/Xcf/+fTx+/Bj5PCPKvP/BB+iYJv785z/DcRy8+eabOH/hAkrlImq1Bm7evIkH8/PoWhaAENlcDmfOnsJrr72BPXP7UCoaWF1r4/a9+3ixvAKaF65oMsyeDS/0oLJYOLKGoRxL/fw9Uig/50ET+zqdDmzbjsjxOV7iOD4xitOnT+PXv/4UBw7sixhaPrcc9Xo9noJSGBLY6bTh+wb27BlBsVjggqeqKq5duwbL6qJer+HIwaP8WJ1OJ5bDJBdwMF0mKi6RxD84AnQ3ZaCO4/AmAZTTLJVKOHjwIE6dOoWPPnotagBP84udGLKcL+aiod05pFLsPQ8fPsWTJ09w+/ZtNpsoavPrOA5Gxidw7tw5/PKXv4zmIx8CpSt9n5UtKgrQbvs4deoUDMNAo9HA48ePeeO4TCbDraHjOJidncX58+fxwQcf4J133sHs7DiEPnoIAqZ0220P8/PzfFQuteUhA5LN53Ho0CGcP38+6kqZx5UrV2K9tMn11nUdPUXBxMQEjh8/HlEk0+h0Orh79y6Wl5fRjQaMj4yMYHZ2FidPnkShoEXn4kPXFfS6Frpdk6fsZJmFJZkMG2tjdW3cvHkTo6OjfLTL6uoqfvzxR/zbv/0bRkaYCz0zM4NPP/0Uhw4dQq/X4znhdtvkBSf3799Ho8EU6ZkzZ/Dhxx/i3XffxeTkJFZWW7hx4wbu3r2LjY0N1igym+XWGAiYIA+Op0yaMbtTscTPoXIOK7Ig8IM2xvT0NIIgwMrKCtLpFN555x389re/xSuvnOeTKIhdVK/XsbS0FCNTEOhlGAZKpRKCACiVNJw/f56zeggNN02TN3DLZrPodDr8hlKTgUEiRFLPrEFeMG088bODaRtq1eO6PuTovWJxAMV96+sWLwbpdrucvUWlga7rYnNzkw+hEyc0NptNqKqKer0O0zQxMjKCV199FZ9++inef/99HD48A8cB2u1+Mzuxj9r+/ZP45JNP0Gq1YNs2Hj58yMv8qG63VCrh9OnTeOedd3D+/HmUSiU0mxbnddN6srlHKo4dOwZZlnkt9aOFJ9ylLpfLmJmZwcGDBzE9nUOtNoJsNhvrsU0psVQqBTkq+DAMA1NTU8hm2TghAroQueurq6tYWFhAOp3mRTOu62JkpBxr2ctSRR7HGHzfZx1QVlbgujbS6RQfz1utVvH1119jbm4PLly4gPPnz+P06UM4d+4Qej02plbTJHz11be4du0avvjiC9y9exduz8Lo7B6cOXMGH330EY4dm8VGzcJ3332Hzz//HFevXsX6+jofyodQ7o+MGWyDO9ineFjfrqQmAS9b0rdTnpkqVjqdNm8u8Oz5Y7TbbZw6dRIff/wxLl26iHQaqNV6vFjejabf3b17l2tpiuMqFUZCHx8fQ6fjolDQkM2qOHjwIF599VUsLi5ylLNer3MiAaVs6EYTMDJs9CwAaIrKLRO9dzDmFEGgWKZAAkJJQWoAyKnVavjhhx8QhiG+/fZbvqnCMMSePXtw6tQpjIyMsBrfm4/xww8/wLIsjuC2Wi3cuXOHaf+o/FFVVZw4cQKfffYZfvGLX6BYLGJpqY4rV65gdXWVezakfPbt24dz585hbm4P3njjDS54z58/x+bmJkeHP/roI6FoII0HDx7g9u3bWFhY4HzjbDaLyclJHDhwAEeOHMGxY8c44vx//cv/wxR0NPUjExVWEH4gekREVBkc5cPKPHUYBjiYmc1mkclk0Ol08OjRI1y+fBk3b97kqalMJoPjx49i39690CPk//nz53j8+AnP9Xqeh5s3buHatWtoNBrRyCKW26Y88b//+79jZWUFjUYD58+fx549e+B5HlZWVlCtVvGHP/wB9+/fx/379yPDIfH9ZXdtPHtWxbWb/z9x7/0c1ZXnDX9u6pykVishQCCBEFlggtcJPJ7H6/XanlBb+7xv7b+3v0zV1js7+8yOZ9mxB2xsbDJICIRyVnerc7zx+eHc7+nTV90C2+N9VaVCgNS6fe8555s+4QH++H/+D77//nuk02k0Gg0ENHUPzl/1Gka/Dt3QG5FfRWX8Md1dUTiOcTYZGimXyyEQCOD06dOYnJyEogC5XJUrbc7OzmJ1dZWB8St1PpuTZRmVSgWZTIY3ek6dOgXHYWoSAwNJXLhwARsbG5ibm8PGGluUwWCQjx3q9XobBrqTJplYBxO0UATyK4oC1bagWGab91UnJwVJaXWu6V6WSiU8fvQQq6ur3PScFvnVq1cxOjqKgYEBWJaFR4+e4M9/voG1tbU2VlKlUnEdC2zYNpPwuXLlTfyv//X3OHw4jpWVIr755g7+8IffY2lpCdlsFpFIBKqqotls4sSJEygUCvjss89w4sQJPqctl8vYWF9HIBjkiiOXL1/G8PAQ5uZe4ubNm7h161YbSd/n86GnpwcnTpzAP/zDP+CDD65hcnKSCUY8uI9ischVPQhfL8JWRfdE0WaV6K2kosmUQzRe7lDQIWlacU4/ODiIZrOOQyMjvDOdTqdx8+Zfsbq6ClVlUOGd7QyKxSJCoRBXZxHpn7Ozs6hWq0in03j27BlGR0chyzI2NzeRyWRw8+ZNFAoFNwNIotFooFqt4vvvv2fXJzt4/vw57j+4h3w+3yKPOK4ggoBKUDsBQfakeV3GQ38rZlS31JrmuQz80MNHGePj43jnnXcwOJhCtdrk4gJLSyu4ffs21tfX4fP5cOggW9QDAwOQZRnpdBqZTIaTuyORCIaGhhCNRhAIAIcPD+DChQu4c+cOpqeneRpDoH7RxkTcxOLiEYEnouuD11Klc3debr/ngooFzYCDwSDqtQrzFM5lofkCHBxy5MgRXrvTiGZtbQ07mxscfKL6AxwtR4iqWCyGaDTq9hiAubk5PHjwAA8ePMDGxgaatSoicWZMXi2xDmtfXx/efvttHD16EInEFayurroH4Bon1I+NjfGad2VlBQ8ePMDDhw+R292F6mYShOMmQ/nTp09zYUBRLEC8p7YNvnlF2KeIHhPpjM2mBcdR+L0sl8utWlogSdi2DavRQCaTwYEDQ7BtC+FwmJdc09PTmJ+bg+pj47FgIMy9mVjHvc7dS4LBIMrlIjY3N5HP5zE7O4u+vj6oqopCocA723TgxONx1Ot1pNNp3L9/H0tLS3BkZgTfrJTgdw+lWq0GvV7b41umetE4Yr32ukT3nyJZ020TiwRqQsvU68xV8dKlS7h8+TJ8PoZlLZVKmJ+fx5Mn09jY2ICiKBgfH8fY0WPcXpSiYSAQQC6XQ7FYxNOnT90NdAC2HUQ4LGFkZASTk5N4/vw5luaXsbOzg4GBAQ7GoDGEyGcVQQle3eNOhBTRAtULj21DaqHFpiKwQTKZhB6NcqomAWSoho5EIohGmRhDX18fEokEv280T6XPUqnECf3379/nPz83N4enT5/y1/f5fOjt7WWjnVKRlz1snskahdFoFLFYjNf0vb29GBgYQCIho9kER+cpioKo+0yIrEFz/Gq1yjcka0qyZpzj0vYoMzKM1kYWfZ5JKla0fW2RItBmvk41PI3gCPtdcKmINJ0I+FVYhgpTN2DqBuAAiiSzyYBjuZ9MzUWRAdsyYFsS4rEI6rUIe06NBjbLZWQzGU5Usdxmm2EYsEwTpmHAp2mIhMMoFovY2NgAFMAxTUDzIxHvQTgQRLVUhmnaXG6IeOtqNxhlR+mZvzFX+VXpN20EmqU2Gg309PTg1KlTOHp0AI0GeE1MjvcUZc+fP494rKeNr6yqKpLJJG8YiSczA8Gz3zMwMIDR0VFsb+xwGCLVmKJViei/QxtZNDfzmlF7DzqxJu5Y2shqmw8zHRDE5RVHfURLZBEBfDORaCFtZBEA0tfXh2w2i0wmg1u3buH58+eIRCKoVqvI5/NQFIl7SJP0raRqiMViSKVS7gEJ5PM1niKKxAymCgk0Gi0vKHbQRN3ZaI0/H9qEYsayu7vL/ZnF9+rzgTetCITiZXnRBm9hk6U2tRExcxLVKGk6EfT7XbJESzHV5/MhnkggFApzXLjXqZMiPPGZSSuO6avbbXzxcDjMZ+cEGe3p6WF9oWoVkGzY7vuKxWKQ4PCsVLTQAQBVlGehFj11FDvVfV5cNrFjvIqSneht3kbZ69AYxUhYq9UQjQVx4cIFWBawvLzCT3NSKBwbG8ORI0f4TS2Xy1yfiY0QZFdFMyZEFRWVCovs0WgU586dY7VZoYLFxUVBmtfh4H6RlypS6LrqbwkjKq/+l1gft42nJKUNukcRlQ4Jmu3StYmMKBLfo+40oakoDaff29PTwzcdlR5E/FdVmaOnMpkMdF3HiRMncOnSJYyMjGBkJIlSiTUWFxbYnJ91oMMuUKKGep0Zte/s7GBrawu6riORSPBrodEeHWiML8y6/QeHD+CJ+ghVMEdEckGUHcDSDQR9fsTCEWQyGcDnh+bzwWzqgGXDr2qQHUCBBJ/iblrbgWNaba6Mer0BR9NggGUfflWDbZhcdaTRaMAwm1zthD0nG8lkL2q1uruhHIRCAdh2gN9Xqp2pviflEV3Xee+lXC5z8QKSoKKGXjKZhGE2GY7AMFByHUeDwRD8mg+1ShU98QQUWYMCiaXWXgVNb6rbCaL4Q9U1X+dDdI4Xdbs0TW27JgaFY11ITdNQqzG0UKOhI5lMcoXCbKali0wYXrFrTJ3oRqPJ74GmaRgcHMSpU6cwO/0c2WyWI4ZEb2XRiEzEHXcbJ4mbVEwfu21kWZZhOVLbRhYFCem1CRtN4H/2CY4lJ2AGUQQpglCUILSVmOpSN1lVWYOQDoRkMomJiQm89dZbuHLlCtbXd7G8vIznz5/j5cuXPDUmBBlBFukaSUGDUmzCTXsFGciNUURtib0JcnikACIaztHhSNnB60pMdVvH3czb9vP+ojVB6TnvRLtBR9d19PX14Re/+AX6+/tRr9dx//59zMzMcHKGZVmQFMDukK2JuPc9WGsvwfpV8ML91C+6jZf2Gz9185Ri3c2WAqTIwCEbUOIrk3cQRSvCpAaDQb6QRa8h2hzVarVt5kva1n6/nwv/Ef5X3GwkadPpACS4ZDfDNe9GFrMfWjy21arF6VopuooOipTOkQlbo8G+LhbL3Es6GDTgOBJ03YBpMgF1Nlc3oesVnmUw8Qa2SHK5HDY3N1EpFtGbSuHChQv4+OOPuZA9IcQePHiAJ0+ecOCOJEkcaCJuZJp3UwOLcMMiM4sdVCx1pgNXxHN7bVbF++t1PGmtM+DHVIEihlyWZTiwYDvmnufVbTMTZoGDe9zUnXDq//iP/4gjR47wEo8gn1T7u+S1NlIIvWdFUZj/cyfShAhU6EQ97FZLdzPZ7iSotx/WuuNmENwSqOnFogbgNFT+AOl9iGMrSqUpgom0OnJ5JLAJneKEaV5ZWcHOzg5yuRyXLCV2EI2WaNF2QmuJG7mblI9X0GEP8suWeI0sklhEb2PCSoucWvGB0+Ygmh7Vh6Sn7D1UKXIWCkxJslEtIRJP4MqVK/j0009dUfgwNjczuHfvHu/wZ7a3oPj8sEwTsruWvJmcqG1FB65oLUQbX1XBzdcp8nQ6LKnxSK8rsubo9+83Pn3diCweIJ0skrq9Fj0jOsioDpdlVrIkk0kcOjQMXbcxNDTEyyI6wJruexL14SRJguQp5fhGFmFu4gLYT7a2mydvJ5O3VwFBXkWyoDqcGi+EuqL3QlE2FApxLqjP54PebKk+0AYmvLA4fqHroAi8uLiIr7/+GsvLy3zGSFGQ0kdRHfJVEdmrhS3+nDeStM3moXTsUdCnKKZHpzTrBfjabEepIUjpKC0oiuoic4lEAxyHXVP/0DAuXbqEjz/+GNeuXcPQUBgbG2XcvXsXd+7c4fBMxceyooorHE+0SFEwwBskxHUiztslCRzj7VUMpXUp6oJRVBfvsfd+t0/1Xi88S7IDVWL1uSrJUCBBsh1IjgPYru+1JIFwtAqjHUGC5LLMJcCyYekGZAcIaG4NLiuIR6Jo1uqwdAcBTUYkGIJf1aBKMmS3wcb3j8P8wcj50nGbcHsAIWI6J546+3WvXyUs53Xce11AiHeWTTpd1NjR9SaWlpaQy11BLO7nqTOb5VX4yU4nNqXXVAfSgiITMfJXJgH2nZ0dzM/P4/79+1hbW+PSLKTsQCmTqI/8uvWW98ATO67imIkrajhy2/dQrSiOv0Q9ZiLFB4Ne/+Bm27OjiBWNRlGtVnmaLYrglQt5pAYH8fbbb+Gf/umf8N577yGV8mNzs4I//elP+OMf/4jZ2VnU63XupkCTBdPtULOD089hnXTvxSypU8bG9om9Z+MS6EPXWxgDUhAhFRlat5S274dK3Pd5Oaw55t0bnXjoErrjAuh6xNGXWBpQtCXnT0rDHZNlfY5wKHl9zPdsZG+DSgQ5dKuNXwXh7KQQ4k2tuzXWxJpH7NLKsozsbh6PHz/GuXNnceXqFMdjE+6Wmju2bSPZmxL8etB2kpOMayDg49pdwaCE3d1dPHv2DPPz89xoLBwO85seCAT4IhHhn5261pJt7esvTZFRfDDiRjYNu40a6N3I4iiDoiv7ewvFpApYbVH+lbIcUgKhEV8rO3Bw9uxZfPjhh7h27RpiMR+mp1fx3//93/jDH/6Ae/fu8U44TRbo2k33XjABA8Cy/Pz1xS6/1z+p5fTJuLeWacJ2N7JpGDANA4auwzQAQ9fdrxnCSVNVuG7skCUJjmW1kE9OS0ZcAiBLEv9a6qDZIglRXbzGTgdz5zKRUdnEZ0Tvlw5VYlWxZ4q2jSzOv20BZCRmJeJoU3Lk1kb2jn26mZF162j/LT68qiQsIqut01uyUSyW8fLlSywsLGBqaspNjwMIhSLcy5hq3pJr20ERV1y0rSYGuPQuwPyFlpaWkE6n4VO1NtldEblFc1svYqvtvthyx/LDi2cXD8228ZRltHVtRfUN6tSKAvyt2ehe/rdXCI/E4cX0O51Ow3EcJJNJHD8+juvXr+Pq1auIxXx48mQO//7v/44bN27g2bNnqNfrSCQSvBalEaYYbdg9BlRVamukeuWAxYyCZTpsoXdKpdkidvaguuiTz5tVFU4HoaUfkl57+z77QZL3ew3KDKlXIYJC2LoKtmmRa5qGSDgCw7YA22YHk7An2KcH2QXbgSLJUCQZposyUVxurWh2LYq20Wku1tSd2vVeozDvySKOHrwRzbZtJBJxFAo5lMtFaD4JssyI4EtLS7h//wGuXbuOeDwGy6yjVm0gFIzANxiAYbpaSbrVJkBP6TNFB8MwsLNTc8EFDl68WMXMzAybS9o2Ir0x+Pw+VBtVFilMA9XdKveD0i0TChQosgZAdmsjam6B+x4DEkAPwnG43WarIdOq4RzbgU3jKcdkaCJxYZntHX1/0AcbFiq1MgqlPOrNGnQT7E+9AVkGTFOHJIWYDpmmoVaruBYsGgIBHxzHQqlUQL1ShC8YwrFjY7h27Rr+3//9/yAQCGDh5SbufPMd/vrFTdz//j4AG5FoHKqsYTeTQ14usNmwKsOvBdCbSMKvBVxvYKDZZNh0kqPN5XLcXL3hyg0NnjjBvZ5sm5EddMOA5vNBCwQRi8cRjcUQCAZh2TYSPT2QFQUDg4NYmHuB1bU1rntuGQb8wSCGD45AUhWYjo1wSIaqaYDE6td6o4GwaUJ1Z/BkAk9NUgBQND8UnwTHlGA6NhTNj3A0ztBahgHVx6CwtiO1FDxtA5AkKKoC29a5RhcBXgKBAErlImKuOISiKC4FlU0c6vU6VzmtVsvwBQOwHVYuypoGyXYA24LE95AJGxZrdnlzfzrt96sBvRTG1+lM71dP701d2CmcTCahqKyDGg6HMTw8jFqtgoWFBTx8+BDHjh1DX1+SG4OZpgkHbCOUipW25hcZnom2L0xy1YetrW18/fXXuHXrFlZWVgA4e5pYoojA/ieyLIjqda+XX+UN9SpGmShRI0Y0xhtWeKed7r04f6bGmCgCcOjIUZw7dw4ffvgh3n33XSSTMZRKdWxubnLyBCQJoVAU/f39XB5JZB9R+ri5uYmNjQ0XXebD+Pg4zp8/zwERNPPu6e1Ff38/3njjDZw6dQrJZBy6bnP2GdnfkGBdpVLB4GA/hoaGcPbsWS7VRCqVjC8cQk9fEm+88QaOjo/B75eRyVSwtLqCbD7H0126L6r7c2JQUVXV7eyjbWZPI8dOkrTev3tHuSLWQMx6xaXkhfwqkGAKe0SWZUg2TYXs7nK4tEBIveFVnORXmbF1U530Uia9qpqOA1fRMQRNa4nrDQ0NQZIcLCws4PPPP0etVsObb15Ff38/UqlUm67R8WMn2nWY3KaD2GiJRHyoVg08efIEf/rTn/DNN9+gWqkg3tO7Z67equvcDMLtJjoSvUfZjazOvgKDnVRGu2l97zcxEAkF1OhiqTa44yI15bxa0lRDU8PowIEDePfdd3H9+nVcunQJY2MDqFfBFTwCgQDGxsY4fjuVSnF3DpHDTWVBOp3G3bt3EQwGMTV1EqdOnUK1WkV/fz+Wlpa4HlgikcCxY8dw8eJFXLp0CcEgsLS0gdnZWezu7vKsrVQqYXFxEc+fP0cqlUIqlcQ777yDcDiMVCrFgTs+nw+Dg4M4cOgg3njjDZw4cQKGATx79gwPHjzA1tYWT19ptu1z7x2lvj5FhWMScg/w+317hPsZPJNKou7Wwp16SxLkNrsfyxKmG47Fx6fdphWdAp8qnhCi7jGd1t0ibLcX7EiS30cS11szeRc4Edcpzc/lcnAcdsO/+uorVznDh6mpKYyMDLhY4ZDrJMDSlnK5zpkmsVjMdfpTYNtAqdTAkydP8MUXX+Dhw4eolksIhMKIxWKwrHYZ3Vb63wJsiAfhKzuhnvf4Km8oBsyw9z0UaDGIQBERG+5telHnXbQ17enpwYULF/DJJ5/gypUrCAaDyOcN1Crs+Y+OjiIWi+Hy5ct8IbO0mTUgX7x4gRs3bmBmZoaP57a2tvDllze5XvjIyBAuX77M3TTJriUSibhwzyGEQsDWVgUPHjzAd999h3K5zBF5pVIJs7Oz+OKLLxAIBHD+/HmMj48jGo3ixIkTnCXn9/u5VVAwEobml/BidgG3b9/GvXv3uAunqMElHnAQMhfCrZsm2kzuOzV79+Oli/uLor3X6sarIc7GT/YeSepuGVxbs8vbPX2dMcrrCNJ1WrDdopL3+xuNBhRZQ39qEE29jmw2i3A4jFgsgZ2dLdy7dw+VShlra2t46623MDExgVhMARBAuWy3RSBRfseygMXFZTx79gx/+ctf8NVXXyGfzyMcjXGp2GAw5MkUlLaNLUZedr1OhxS7VSqw19gTY9taMq2H6rgHveL5Hoe/Dlt3jFPfkwiZAAAgAElEQVSsKDLq9SbS6Syy2RGUShWUy6yeDwRC8PuDbf5Ffn/QJSTIiMUSOHRoFMePn8DQUBC6DqTTzMA7HI5iYKAPExOHeB1Pkj+SxL7u6+vH4uIylpZWUKnU0GwaqNdKuH//PgKBAKLROC5evIjh4WGMjY1iYmLUzbjYJzWcX75M4969e/jrX2/h4cPHqFbL3DjdcRyk02ncunULpmkil8vh+vXr6O3txaFDw1AU9lqOA/h8gKYBW+kqFhc3cevWLXzzzddYWHgJw2giHApC1WT4VA22ZXDTcFUCIqEggkGGJ2Cyy0Wuoy4K67OxlyL0OPaub0dirhVsz9iwbAuSqkDWVFZz+zSofh98QQmBcAiBcAiaPwAt4Ifq96FRbU1gOm3oVwrU7/cD+3XwRFZPN4RYN3ld72FCB0ogEOBd5nyBpRzUqk+lUiiVSrh9+zaWl5exsbGBN998E6dOncKBAwdcqxAfolEf6vU4T8/n5+dRLBbx5ZdfYnp6Go8ePUIul+OKk5Zlue72EU+0fNXhtT/QpRuizRvN+WEhO/va04oZFC30+/fvcxcD0oESR2U0uqBajw7LjY0NPH36lF9LvV6H5DDtrHy+nVVEEY2e09LSEjfCI3peIBBAPscMzn0+H7a3t3Hs2DEcOnQI/f39TFjQbXyVy2XkcjlMT0/j7t27mJ6exvr6OmKxCAf6EB1za2sLN2/exO7uLizLwuHDh3Hw4EE+WRA/V9ZX8Pz5c9y9excvXrxAtVrlfRLqdouGhLID/r62d7Zw+/ZtPH/xDI1GAw8fPkTeVSqhLn0wGGpLrb3rmfaBSJCh+ydKE/v94O+TpiQ+nw+NKl57HamdWEuiG8B+L7BfQ+t1TM86nmKeGlrTWuBwWVJhmU1OBPf7fVyHanFxCeVyGTMzMxgfH8fRo0cxPt5SgaxWq8hkMtjY2OAKIrSB9UYDgVAIgQDrXgMSIpFoB0KEw4Ea7RFYhuMI//8DSSLezj8H1MDq0Dto156mTnytVsPq6ipu3ryJR48eoVAoYGtrB6VSqU2AkF6DuMYkj/TkyRPU63UMDg7yxa4pKt/4It9anAUbhoHnz59jenoaxWIRwWAQfX197uGho1Qo4v7de1haWEQqlUJ/fz+SySRH12UyGVexhDHNFhddOR1ZhixJaNTrKBWLkAD0p1JMcTOdxuNHj1AplzE6OopUKiVESbZxmrqO9G4a8/Pz2NragmVZCHFWF1MNbdYbbe9Dc8X16vU6FhcX8W//9m8Ihlh03t7e5uo0JB7QrSfkLTHFjUxNSUmSuKyw39+aDhFPgFB73k/2IJ29NEZvVPUial41K34VIaIbrW+/jcyuwYHP19K8Em0vIREPlUElSV1hdXUVz2ZmcPv2bQwPDyMUatmDiKSCapVJAxnNBmRVQ19/P3+NQqHAoz3NjlvX39k254eybPZrZrX1DbBXadOrPEKLolqtIpvN4smTJ3AcB5lMBiMjhzgHmMzQvILsJNiQTqd5A0pRFOZ93NTbZrPivRSx7KRDTQ03ivLJZBLlchmbm5tYWV6G5B46FHFisRgKhQJvsBaLRTTqVYQjMQwMDEA3WiMZeiY0YiqVSrh16xbm5ua4WESj0UAsFmPyvwAKxRzymQxravb28kyOH06mxTM+27bh13x8g+VyOSwvL7laxQzjqfqCnF3HwEfVV+IivMQOET9eKpU4Io58yGpurS9JEoI+reNGdrDXm1sVweqy7OOFPrE16AQRT2Z6qGL+3knWpptYgQiiEHG+IkGC5F9tW+MzOGqylMpMzLu3t9e9PoUbmFOaNj+/AMdy599aS3nSYl6xjD2V6OEi6NSxJEH0QqEAVSXgiOqJjLIH2ytzHe4fAgOkTeKlh/IxiNTOCffK8VL2RGJ3REigg0+SJPT09HAXB5FwT8wcso8hSxOKapRae4kdXlkjcgSJRCJ8Q+TzeRcGy5Q9U6kUf8akfVYsFl3xghZhJxQKobe3lze46o1qG/+bSP/9/f18rWQyGf5s6Xvz+Tz6BwYQj8dRazRgGQZ8aisoqLKCSCjMzf30egOq0CiMx+NsA8syZAUtqx0twOWRCXDEmmA+fpBRE5BmxyJngUQGGo0Gnj59iq+++gpjY2OwbRu3bt3C9vY24okEP1xgmW0G7YQE7IgS7CRp29ZVFVKDV0Whn6IU0iliVSoVF1jCcKctUkCA17HMxUDjqRoB9SORCFcFoQ0gKkKQQJrjOK7UqdHW/WULVdlzMDF4R3cp4B/Kw95/lCd3nEWLgBCRZkdzZCJ00BhO7FSLhAmib9Lmps4s3UNVVtrGJN6DhupsEqUgxBKpqiiKxoTehZ+hTUEdZnptcewpMqe4cZ1gtk4IvUOHDnEEGHXLycpl7OhRpLM7aOg6Gq7iptfE7lVrUlGljoFJ1DUX6ahimUqAI3LZEIMX1fp//OMfMTw8DFmW8fLlS2xvb/OGWr1eRyQYaLPzEVP1LpYxUscoYts2HOwdYIsv2K02+KELulPb3jB093eoYKAchqDRVD98mgXT0nmqR0QGEfxAqZ+3kUSLnw4EqrkpNSSSBi0ibnBnud65wkbrdN9aX7/OPZA8X7ci+36/w3FsIWNo76bT32tVZvXp2C68VFKgKhosWJAlE7alw3Qs2BZ7Xj7NzxswiqLA50rZ0CFHG4uajwSBpeYXy6osGAYbnbSgpxZM0xb8xdj7sm3ANG2YpiX0GnTUag1YlgFFbUFLKdto4eKDbQeTaZp8BEUjr2q9glDAD8vQIcsE5zThWGzD+VSV8ZRcWpEkrkUJvA726q/R6KiFWbfbNjN/nwCjdGoadBfU4vf7EQyFUK/X8ejxYywsLrrorjogSYi6HPumWwaKOuhEo7XsvcGva0TmBbqDjhu027jox2zgbnRIulGkjChOxBRFQa2u89EBPWgiWlAN5u2Ei408DsVzbzwtYLqWPTI+jhdI3/m+vW503k+UQZJkOLD31M7iySxSMEW8NhEoROqgCAih1wuHw20zfy/B3xEA+l6mkqjvLRI56PeyVFLryMGmQ4FKN1Gvq5VBOG2deVH2lrILeubifScwhWE0+SFERIVXUWsdz9c+RYUFpyOVkmVvhKRTueJJrVbjm850r5cyCuKC00gtk8nwfyPfbn5oSRKq1UpbxkPZpW40u/sje0/9zlAyqaNCyI9Ns/cbpLPfI7WlhmI0FVlRLR4r03yKRqOuLhXa/HPZmmiPduy0UwUJVRYZFUV77bQYkLpmNa+bVu83W+/GJhPTQ5E0QBvKMu22uprQbXRwUUYips5tNViHw0ZMhUX2l+gRxn/GshnbSJahyIqQhjLtrKDbQRbFE2zLgk9VoQaYRpvpNtxkWWa6XbINn6Jybq/ZZPWqX9UghRiWO6D5+OEgbkBVVpgCpvJ6dFpJklsYedvmzUcRskl1MT0PyggIK16tVtu01USBC1J3FV1J6BkFAgFIbo1crVZ5xuNtmNG6UF8F//I2qUSgiBdt8mNr504YbdZUaHaUwaGoSTeGRAFCoUCbsz0gt7nIi8QPOgQoTaSHQK8rOji03q+30y7hVQfh6x8G2Lfm7nSAekknoiyOLMto2M02DLFouE3KIp3YZ+KB2YkjTl9TJ5w2NTWz6OAtu9FJxIF3kuQhLDUpTQaDQYTCAV7iUD1NaTTdj1QqxeV8xXtBaqKREBO84+IQkryHyNNtEztwrxOCD7TnWZFIg9iZVlUVQ0NDGBsbQzgS4SM10cydfo7m2XSwktfV4OAgjhw5ArPBTPcWF5l1DmWpmo9Fb3Gd7Jtai2/Qy1Lq5pn8Yxtd3Shjou+RV8qHTirykJVlcDFxpg3l35NR0MlvGAZPcSjF9g7vKRI4tuTpLCttqXW3TffTUmupM//Ok+Z5pWjE90rRTpTLEUn6osG4101TPMg6HeYU9b1pt9iH8Hs0zsQgQA02MYNoqZpqe9YgLXYR2kg9EJoh07WIYhHt8EhPT0dwxZS8QQWs3rcgBBgPN4DWhCh+GAqFcOrUKVy7dg1Hjh7F3Nwc/vznP/M5O2U0lA15ZYxisRjOnz+P999/Hz3RCObn53Hz5k08efIE1WqVlRLy3rWlvjpatM9QJdfz03Fs3nRpgSMk7Lv6XnNTi/Ym4rxU9OeljivZaLAUpMwlgXp7e5FI9PIajKJ3pVJBLpdDqVTC1sY6PxFFaRk6KBRFYQ6VsD29Aafrhv1buW+8KnKLgm4is0nMYEzD2iPKTpta9LLy1tn0b14jcooIokiAmC2JB4amabDckkdMx73yTTT+8vlVhNUwbMfkHWox0xBHlJRZeLMT1vRsoFIJu5rabAbdrDdgaxocTdvj5LHfh2E5cGDBsSXIsgQJtqcf0JqrE7ijt7cXY2NjePPNN3Hs+DiOHz/O1+yLFy+4uJ6oF0evSXPwgwcPYurCOVw4M4bnLyZh20wscWFhAblcjjd3SdEFAFRqDtEC8Pv9yJsF90EbsB0TjiO5s1MJskyqhI77d9mtRW0O5CDTdNHGw7tRO0mMeoEplUoF8Xicz0UVRcHy8jLqdeYemOpPckACA3JomJycxNWrVzE1NYWJiUluP0K1SiaTwYMHDzA9PY3FxUWsrKwgl8shGAxy6xSK2nrThN+vwefTOOHAti0O1WwtCtujMeH+66vKDLezSV/z9+44sE0TptWKmFRDkTQP6XyLQgdms9GhG+4AsoKYa+RNh1b/QAobGxtQNQXhCNNfLldKTCIoxkAK9VoVjmOj2TQErS8Lus40xGu1lvooY5JFoGlM3KFQyKNWrsIwDTiwEQqEeE1oWmyTQrJRq1dg2QYCwQTC4RDq9Sry+RJqtRokReOQXLPKaIrxniSCIT+0gB/RRBSlagnrW+uscSc7MB0L/pDfxYHLaNTqCLlINcMwuA2PmHGYjtVajxJguQeiz80Q6DFS30bMSFoHmI1arQLT1KGqMnp7E4hEgVo9jLff+Tuomozf/97CnTt3kMnuQFElVKoljoIrFApo6k1UqiUUS3mX/w6Mjh7EtevvoVIto1ItY3tnC9Dbx3myLO+NyCIBoHXikYcy89BpRWHbs5BtdwHZXUcvIjrpVZGMaVU3OIiAnAlisRivgyuVCgDg4sWLuHbtXVy4cIHD9kzTRijEqGi23QvLYoZlg4ODePfdd/Hdd9/hzp07uHPnDnZ2dniqSfWYLPnaaiox6vxP+EaLEZT4u0Q8HxgYQCwWa4uMos6ziMKi+1coFITZvIL+/n5uMkalRjQaBQCuJtrf34+xsTEEg0E0Gg1sbW0hn8+jXq9zA3VxFEld2nA4jKOHj6CnpwfhcIhHdkVREAi22Eebm5vY3FznJgPRaBQTE8cQiUSQcw0CiHFFnWFJdrgZHWG7jxw5gkgkzJ0jq9UqHMuCKsswBcUSr/54N/oobdoWseWHoRcZcotlFkNDQ3jvvfd4pvf06VNsrq4inkzyGTMZuKXTaTx9+hR//euXKO7uYmLiGMbHj+L996+hVmOOHutrG2jUm3ASDm/eqvtdmNjcEGlYr9upfp0acT+IJz14sitZW1vjqUetVsP29jai0ShOnTqFzz77DB999CH6+0MwDEY9y2TyaDSCbjSXUa2ynyFh9nfeeYfLkt65cwfz8/PY2NjgLhQEC/U2lkSLmJ/zQ1RZIbSQLMs4dOgQpqamcP78+ba5rtd7ig7BXC6H2dlZ3LlzB9lsFrZtu9GTcXJLpRLHSMuyjGw2i0KhgHAwhPHxca5jvbKyglu3bvGN3NPT01Z7ExmD7FKuX7+Oc+fO4eDBEeTzec5c60v1cmjot99+i//+7//CkydPYJomRkZGcP36dUxOTmJ+cRV/+tOfMDs7y8ZtfhW6YcK22+1djh49ig8++ABHjoxie3sbi4uLqFQqKObzbfWsiGnvBnAS6aqve1h3+z4qEQKBAE6ePI5IJML//eG9e5w7H41GkUgkYFkWdrNZPHv2DICD59Mz+M1vfoV3330XFy9ewu4uM5Lb2U63jdQkSWoJC3RSMtyPufTqhdxCJe1n8taNgE3IrkQiwdUtHcfByMgI+vr6MDs7C0mS8MYbb+A3v/kN3n77bfT0BLGzU+WE9FgswTuf1aqOdJqB6NPpNBRFwfHjxzExMYFjx45hcnIS//qv/4q7391BvVrBodEjrQG8ZbUhc34s6OWHflDZI+ptBYNBHD9+HNeuXcMvf/lLXuoRtVBV2deyDJTL7P+KxTK+//57fuIXi0XuRqkoCnp6erjK6O7uLnK5HGzDwOlLl/Hmm2/io48+QiqVwt27d/Hs2TOeJZBuGSHJSMGDmojkOX38eBLVKrCzwySBepOMcrixUcLCwkILEAFgeHiY27EurWygWmXPc3t7G6al84yJolskEsHExATee+89nD59Ci9fvoRpmpidnWXpuaDrJY6OaHTWrdkqyzJsdHdbeR0vcFIZyeVykCQJo6PD+PWvf82723e//x47Ozvc02xoaAjBYBC5XA53795FvVzByZMncObMOQwMsKxjeHiYQz3F61W7dUNbG0rmfxLLh5A57emzI9Rm8p6RyasaW51GXqShRBjggwcPoL+/D4VCAZlMBr/69af49NNP8cEH7yMclrGzU8LOzg430aLamCwsyQeKNkWhUEBvby8nzm9vb2NtbQ3bm5uMHaSZXWWB/yc+qG8hjsw0TUMymcTRo0fh2gahXAbqdREHr7j8ZyASARKJKGT5KnK5HHK5HB4/fswpffF4nIvFZzIZ5PN5JBIJHDp0CB9++CGuXr2KM2dGoWnA0lIfBya0kFzmnhETzT6XVlcwv7SIvoEkVBUIx6IIRoBaA9jYYGqlsy9eYLeQhy0xMYT+oUEMHxxBJC5jcvIg3n//fWxubuLGjRvYSW9xAzk6oEOhEAYG+nHgwDD6+8PY3Ayj2WzyDUL3kWCjopif5ml+vY5EVadN3A1PQeXg8vIyVlZWcPLkSRw9ehCfffYZKx1yOWxsbCC9uclVWvr6+mCaJrbX1zi+vFwuY3g4juGhAxgcGOKoOjEIqq+KuF7N3h86J92vRn4Ve4rMyRk3OIy+vj7u9n7o0CH8y7/8C86cOYNgUMbaWhbr6+solUrccW9n52s0m03kcjnUajWEQiH09fXhwIEDGBoa4qSLbDYLVVVx6dIlrK6u4i9/+Quy2Sxkybdndt3NN/rn+PDWviK4RdM0NBrA1lYR8/PzWF9f5/0C2vjRKNPWGh8fRzIZx9tvv81nrs+fP+d1dK1WQzabRalYRDyRwOXLl/F3f/d3uPbuexgZGYGmwYVTmm0RixpGNRfLHAgEkEgk+OvRfdzdzWJiYgLxeByViorl5UV89913mJ6exuzsLDc1IyAPY3Ox7OLkyZN4//33sb29jd2bGZRKJQ6PbDRqPEKz59MarRFIiN4jjaMITSZy5r0d8P0C0Ouk1N7SaHNzEw8ePMC9e/fw29/+FqdOncBvfvMbbG1tceWSUo5piQ0MDLD+gaoJFkANl8wR42g8w+wQkfeFWzqdRfJeJ7XodkM63axOqXULKaMgFmOspNXVVYQjQfz6N5/h4sWLiEYVZLMVbiS2u7vLN3M2m+MPliBwlUoFfr8fQ0NDSCaTqFQq2N3dhaZpOHjwIN566y3GV97aQqlUaksdvXS0n/uDNoqI2hKlZgsFHcvLy/j+++/x6NEjDrpvYcmZftWbb76JX/7ylzh6dAjvvPMWtrc3USoVXMmdHKcKJvt6cfXqVXz88cestj0wAkmSkM0yBk65XIRlGbBtE7regCQ5UBTJPWx0+Hwq/H4Nui6j2Wzi+fPnKJfLiETCGBoawsDAAKrVKubm5nD79m2uy+UPaLyjTvfXMEzs7rI0/fSZk3jv2jvY2FzDs+mnKJeLcJzBNlw5GaCrqopgyI9QOID8rtTmmSyONcUyqbufmbRvo7Zbik2/JxJh3fJisYhvv/2W48R7e3tx8GA//vmf/5k3LR88eIDtrS0ALDOhZp6ut+b01WoNxWKRZSLBMPeGakut97MC9VKmfuoM9HWbXV5HAqpVSSguGmWKkbVaDTs7O5idncX6+jp3gSeuZzQaZfTHUgnpdBpzc3MIhUK860u/LxqN4vDhwzh8+DCe9vSgXKpz8oU4FhNFAX7uiCzOYIn5RWoS5IucyWSwuLiI5eVl7qvEXB9q6Ovrg6IoOH36NMbGkjh8+DBGRkYQj8d548+2baRSKZw9exYff/wxl9CB7XA1S/LFosyA0HKiJxbNtUkQolazUCqVuNrm8HAYmQw7nEqlEsrlsstYirRRM5kSporVVWYlGo/Hcfr0aUxMTHClD3IKEbXIiELvRbt5N7IIW+1U0vHN6amhu0lTdYvORBk2TRPFYhG5dBqPHj3ChQsXAABnzhzhiDjTNPlUgdaZ3+9HJBJx5ZqZqV4mk4FhGIxqyYZhDGpM3T+yDCkWi6wL2mDsIMk0BByy3aYU4Y2g3cT1CGQgfq/YBSbEjvgQKKVsNGrcw3d7exs9PT344IMPXCkfoFYD77IaLsslHI5gZOQgVJXVcZFIhGOwo9Eo6vU6Hj9+DL/fj6mpKRw+fBhbW1uQZRkDAwOYnJzEvXv3YOhbbemtd/a930z8dcQGvCAOMR2jGpB4rOLmoTQ2GGTfVy6XUS6XeZ1KC9gwWFmxtraG3d1dAEAy6edSO7quo1IuI9HTg8uXL+Ozzz7DBx98gIGBAAoFB48eP+KKmYRcIotVr1SwmKLSZkmlUtw6lW32luFcuVzGbjaNnl5Wd+fz+bboqSgsIymVSkgmkzh9+jQuXpzC/ft3sb29jZ2dHfT3pzikMRwOQ5KBRrPGdbOr1Sq3BSKII4GH6Hq91qf0XBqNBiQX8EFlhKiyQmIABJXUdR2GS+BoRXyWIdCYTPb5MDs7i//4j/+AYRhIpX6JiYljCAaDaDab2N7expMHD1ApFBCKxThiMRHvgWMDS0tLyOfzCAbDsCyHCyo0m83OyK4fE3l/THTqFOW9Hrji6ICQXLQpLQvQdYPbiiqKglgs5qZpMmc/hcNhLs9CDTRd19li2t1FNBrlM1dN0/iseXVlc0/PoJNc7f8fjTCiAxI8kTYMkdIZYKTCT3x2WADNJusu53IspY7GYjh79ix+8Ytf4J133sHgYADr6xXcu3cPCy/nMT4+zsdxJAPboiN2tsOhQ57QYy21yNZBRZ1vkWwhwi+J8FIsFuE4Dnp6enDu3Dlcv34dT5484WZz9Cd7n60DhSPz3HtFTDF6fZHz7IWWcs607ezLlhLvgyzL0Px+hMNhvt5kuf2gt92G4v3796HrOnw+H06dOoVDh0bw/vvvo1wuI5FIcPfPX7z3Hs6fP49wOIxCgW10EgEUUV1tc+TOtqjSPp/imyLYZgtV9DqetJ3M1TuZS9P3+vwqwpEgEokEkkm2kVljowldZw+OFCZECqTo2icSsnVdR6FQ4BGDAAkHDx7E8PAwbPtem2KJdzOLdfKrQAY/Bo/+Kv9phrJz2qCVBFklbjVtEKYCA55+UsSPRCLo6elhRgCKgvX1Cr766iv853/+J3JZNsabmJhAb28vlwyie9ipSSQu3GKJ8YN104Dl2HAkQFYVKJoK1adB9QegaMzaxbJtSJbFqH+2BdNmIBgaT124cAFTU1OQZRm9vb2Ynp5GNsvSTMNsuvJPrYNB1/U2Ug112Wlswxw3am3ZIh0yBOmt1Opdx6RU+ogYdSJr0KEhSS3cejAYRM31DZuZmeHR9ZNPPsGnn36KM2cm4PP9E86cOYNqtQq/3483zp9HKpWCZVmYm5vD9PQzbGxswTCMNoyD4zhQO6XI3kX6QyPx60aobpG/W3ON4IVMDYRFF9HLiFwXCZ0UCkV5jSuSxKlTS5pc1CklVFBfXx/i8fgev51OjY5Ojb9uQIOfQi7pRGrRtFaHmhaM6PhHkYiUU8QmGjlT1ut1vHz5En/+858xNzcHx3EwMzOD7777DrZp4cyZM26fQeYEE9ognbyfxfWjG02YhojVbhd2ELWi92Kn2fjmxYsX2N7ehiRJ+Pjjj/D222/x2f7du2XOQaealJQoFUWBrTCMMpVFNNKkdUKbnQ59Kl1EfPd+NF6iX4pUW9u2US6Xsb29Dc1/iEEvm034/X7E43FIEnNNKefzuHHjBv99V65cwfDwMI4ePQKfz8UEACiVTMy9eInbt2/j/v372Nzc5HiCtogsguZ/6Gjlp6aU3dwW9nSxYbFPfkOdtqE72XpStCCT7Gg0zhcMLXj6v2q1yjHWtJGpzqQFtp/Inrh5RdnT10Gx/ZT71n7IoY2BQ4uWNkq1WkUsFsHQ0AAGB/vh8wH5fA2VSgnNZh3BoB/FYhFLSwvY3c3w9LnZbCKTSSMcCkFRJYQjQWg+wOdXofkUaD4FhsFM9SAx50bHpeBLkgxJdtosRUUhBjED82Y0IpOL3tvOzg6+++5byDIwOTmBqaljmJo6j3q9hpmZaY4yoxEN09FmqW1ZL3PgiJiliOkvMahECCuVKaKQ/H7oLVFrrlwuY3FxEffv38f65gaWlpawsLCAarXKIzPV4KVSCY8ePUKj0cDKygref/99nD9/HoGAgkYD2F7fxOrqKu5+fw/ffPMN5ubmoBtNhIJhdwbeWoOq2L7/sXPSbtYwP8Sxbj8LV3GGSphUo+VthkAgwOs4UReKIZzktiaFaOAWjUZd3HbLt4hqZ1oY+x0+4gbu1PX/qan1fhRHqpHJrSEcDnM6HSls+Hw+HDhwAJOTkxgZGYFpAhsbG9jc3HTFBVV+sNG8ncZ04utSNiNSI0nZYj97Xdll2LS6yO2gI7HJRw0lSmvJGtZxHGxvb+P777/H2bNnMTw8jGQygYsXL+KPf/wjcrkcl/RtNMAbWprWSntpI5JqTCgU4uk2qX7SgU8qnY7jwLSdNveOTpmVqC1ONf3s7Cw7lDQVOzs7ePbsGUqlEqLRKM8eqYFbLBbx/WoTdEwAACAASURBVPffo1QqwTAMNo7z+5HP57GzsYG1tTU8m5nF8vJym7RS2/12JKiiMJ03lfy5U+tOv8+L5xYleoiDzBQYa4hEQlx8jbSYHcdhTvOuAoOqtpocJMpH9VIgEEAymYTjAMViEdVqlQmbr6xgZ2enY3ovbiSvouHrjNh+6mYWr8GygL6+PkxNTXFrVKLUmabuUuqOuNaoMayuZvDw4UMsLCzwTirJCVPKR1xZqvdE9JNIghdhq91gvpqmwZJa/sDktiEezKx34ePADiqDVBWwLAM+H4uKL1++xM2bN3H06FFcvXoFg4MDuHTpEprNJhKJhMtLbumL0ShMbGIFg0H09PS4M/gCyuUyb4iRCms0GuUAolqj2XFK4c3MRJolIbl0XUe9yYJOoVDgWSEdEiTiT+SU5eVlfP3111hbWwMAFAoFFLM57O7ucnw8PQ8S4/dzdpYDVZYptZb3ort+XihxV4GCbqbnrYhc5509RgwweLfRNE0uBEBRQJJkWJbBFTnZjZcQi/Witzfh4oQLqFSqsG0T6+vrbl3m8DS+9Wd3E3dJkuBIjKjuSPibbN79orNlAalUCm+++SbOnTvHx1TML6uOaDSKvr5eHD7M7F7m5+fx+PFjrK6uciYZbSCGFGvwRoroWMiEGPxtGYg4l+12PxifW9ojSCEezuJmo2jFggtQqzchyUyKSW+UMDv7AjOzzzA+Po6Dhw/gjTcuIbObxeDAMIKhCODIMEwTzaaBWq3R1sAS+ytE7iC3Ctu20d/fj76+Ph4lDcOAgldPb+iQoHtfqbGN60jgWR3V5IqiYHd3l0NLKSOioLC0tISdnR2OlquUyqjXaoBjIxHv4RRbEXJKygiqZdsIhkNwJMC0LCiqBhsSNM2PaqPe1mYXlQQ7NTe8qbVXadM7rKeb5JWVEV9H0zTIkgqfFoCq+JBOp7G2tuaOUgwuNhAMhjAwMIitrU0+RoJtwaf6USqWoagyFDjI7Gwj4A9C1RREQ0GUiwXkMllEwyFosoLVtRUsvpyDXq9BUySoMvinorD3YlguXVDVIMkS4H46kOC4IGcJEiCZewQaxK9tx2LeQDK4mTUD09mc90rRhRYkkcxZNFPRaDQwMjLClTLCYR8kibG/mPZ3BLWajgcPHuDGjRu4c+cOVlZWOP2PwDQ0Dw0Gg9B1nZve5fJ5VGs1DKoRV/S9iGqthmAoxFUiLduG4aLwKPIFwyHIxRIcWXQvAWdkaZoGWCbfYAA4maNSqQBOHIFACNF4Ej29fSgWS9jaTuP//Od/IRiI4tNff4oDI4fw4Uf/iFK+ABsSAiEZuukgly/BstkBBNuC0WygZlvoOTaOwf4UlpaW0KhVcWBoEKZpMpKNacCnKlAkuKqbMuq1GmzDhCox72tLN1hk9bNN60iAY7FOvOb3ISgBcYkxDRRFQTAQZra19RrqNVanh4IRKBEFhm6gUmaw4Ug4xg5L3cJ2MY1apQKCbYVjcQRcQX9HbkkpBaUgLMuArEiQsYc0If2o9PinzpHFlKWtpe7OjQmqSf4/BEv81a8+aROOSyQSrtQPS0lqrjABpXm1Wg2WZWFgYAADiQEEgn6eOhKoIpPJYGt7EzvpbaEDTB1ac1+0mi25bOy/UfCl9JBObFKaIIuVeDzICQK7u7uo1+uIx+Po6+tDf3+f663E7Ei/+uorfP3111hYWODAl0aj0ab4QZGKcMq7u7soFAoukqo1F6ZyJpFI8EOdPItEIb1QKIRSscxJLvX6KD+Idnd3Eevp5QANil5UPtVqQK2ho15vQDdtAAqq9SYWF5bxxc2/woKDjz76CJFIjAso7mSq2NzcRq5QYEL0btkoBg1C+qVSKS504PWzkmUZmiLzWprSda7iqbr1t/uzBKpyXEFDenb1KpO/pUhP/R1R60sct1KUTaZSSKVSPEva3d1FpVqFJIXaQEQQm76dl5ANx7F+9CZ+XUBJt7SMLQ6bE/3L5TI0TUN/fz9HwHz55Zc4d+4cn9uJmOhQKAjLshB2ETPMWZHNnzVNQyqVwsDAgPuzMkyTRYPt7W3Mz89jZWUFu7u76En0tWUbLeqm9LNTGMW0TSTEi2m8ZTHY3p07d/D48WMUi0UkEglMTEzgwoXzmJyc5JBOaqSUC3lEEz18/EQbl3yQKWUmNUgay9TrJj9YbNuG0WyiUqlwGCnNsImSWKs1YBgWF39gZAe0ATPIt8swGBIqGo0iHo+7aSo4acC2bfhcV4xyuYzp6WlYloVz586hv7+fwUldGiU1hEKhEPRand9DEs83TRORSISn+u1TjigX6lMUBX65RWOlgCHLMiS3JDAsk1vQNBoNKG4KLR5MBw8e5E6U29vbrJu9vt52MBASjPoTU1NTeO+997hl7ddff42VlRXYltEmi8sDoGS32E+imNxPoe39kAUupuudN7MDvz/ANboMw2B+QcUcHj58iC+//BJXr17lxmPFYhGqquLAgQM4ePAgZIDjickInTrXkUgYoRBcDGsJS0tLePz4MZ4+fYrt7e028MjesdH/QPNAKEOIrUMPkGCHjgM+wvjiiy+4idr8/Dyy2Sx6e3tx6tRxnDkzgY2Nq3jx4gUXgCuXyxgcHORCheL4hkZvBw4cQDKZhG3bzJep0eCgf5HY7rUYYrUvw8DHYixDIAKILMvo6+vDxMQEstmsOwc2uO1NX1+fK3rQykoIBZVIJLhmVzabxfT0NCYnJ3Ho0AivNclXStM0NJ0aj8KEZc5msxzDTJuacAeqqiKXy7F0uFKBzx9qq+Op4UebUHdTcLEHUqlUuJrL6MFRXLhwAb/97W8xOTmJmZkZFAoFLC0toVQqcW1uMcqGw2GcPHkSv/rVrxAIBHDv3j3uIprPZTl3ORwOt6to7t2wr69V3e17Om3Q14nq3ggfCoUQDjPN4Gw2i2w2i2QyiVAohK2tLfzlL39BIpHA8PA1DA4OCjhjZkKmuaM1n8/HU2yykXGzJuTzDGnzzTff4JtvvsHs7GwLb64oHcQSOgjAOBL7/Bvvb6+YnqiaycqOFkKpVCqhWauhWa9jbm4OlmUhlWKaZmfPjuP8+QvI5QoIh6N4+vSpKyBQQKPRRDAYxqFDoxgdHUUikYCu66hWqzhw4ABOnTqDaDQOx5EQjcZx+vRZhEIR3q2VZZlLtu7s7KBUqnDblvHx4zh+bAJX37yCoaEhbmEzPj6OTz/9FLFYDMvLy1hdXUahUOBQSwbiAUeTkYQsZSWWZaFcLuPx48cur1jB5OQkEokw12ij7EKcguzu7nIOdiKR4OMgEsIrlRifPZvNolarIRK1+TWLB6u3YRcIBJhFkVvmwDAQSyZx6dIlvPPOO3jzzSuIRIDFxaCrZ1aAYxoIuN12yvp4k8s9DI4fH4YkXUK+sItGs4a7d+8iu72Ner22B8Ks7pfm/tzAkG4qI5S+Ukuf5pqlUok/hEqlgm+++cYFMWg4f/48BgcH3QXDxOkKrlqm3+/ng35Zlt2H6Eep1MDjx49x8+ZN3L59G8+ePWM8ZFlGOBTpgB+W25t9P3NgFoXtRJ4xyf709mrcQK23txd6JMLv5+bmJn7/+9+7zZG/x9jYGD799FMcPnwYv/vd7/Bf//VfmJ2ZQSgSwejoKK5cuYKPP/4YR44c4U2nWCyGwcFBJJM97vVMoqenh+uGhUIsYj1//hw3btzA119/zUc6mqbhV5/9GpcuXcLxiWO8/pUkCUePHuWfX375JT7//D+RTqeRz+dRKpU4qaG3txfDw8Po7+/nVEtJkiDJ7ECmpl0g4MPo6CiSyZbhXyAQgNlocrkoOsSz2Swn/KdSKZTLZV6XV6tV5PN5LjpAXXyxxFEUBVBavGZCbEWjUexkMoCuQw2FMDU1hY8//hgXLlyApgEvX+7g1q1bXNlmZPQIent7eTZEJU2xWMS9e/fwu9/9DrL8v9HX14d33nmHP9dbt26hWa+jVCohlUzuF5HxkyLyD+Erd5rBeoXPqANNqVCz2UQ0FkYymUQ2m8WtW7dQr1extraGK1euYHJykpMlopEY6rUG4EgwDQuypCDgD6DZ0LG+lsHdu3dx9+5dfPXVV1znSVU0Ps9sRcCW0bdt25Cclhzwz/lBki7igUId5Y2NDfh8Pi4UQKL65AaYzWYxMzPDXRDee+89XLw4hePHj+PAgQPsYHBrM1qUyWQSo6O9aDR6kUqlOLCm2WQ64D4f2zAM4im5FFLWXyBKqGjLE41GMTQ0hP5+P3I5i9evgQADXgwNDfGamBQ10uk0lpeXocgadnZ2eMq9s7PDm0ThMKOgNptNzM3NAbAxMjICXZ/AwsICSqUSyyxqdd4IFYFBhUIBpVKJM6IofadDmmbZpXKt7SDlUdltoikOA3akUin4fD7kCgVAUXDs2DF89NFHuHLlCkKhEB49msXnn3+Ozz//HOl0GocOHcKVK1f4yKlcLrfpcc/PzzPts4CGX/7yl5g6dxbXrl1zrV6XMT83h2KxyDAQ1MRrdb7+dgvzdetkMSLvVdSU3E5fjfsUkRsBqTAeP34cz549w+3bt5HNMoWQ69evY3x8DLFYDJnttAtTjHEl/2w2ywEf6+vrePDgAZ48eYJGs45QkLGqeI3VNPYQAWiA69CI6Wf8EBVBqFljWRa2t7fZYlcUrsFF+lQ0n2w2m2g2GlhcXOSOk7quIxKJcPDL2bNnee9haWkJMzMzvKSg6ElcWhJfJxWPkGtEVq1Wsby8jHQ6zXW3KHN49OgRRkZGEAj6ed3JygUW5dLpNDY3NzlIQtd1bG1t4eHDh1hdWUep0kA6nW4zg/f7/ejp6eHWqisrK2g26zh48CCy2Sy+++47rKysIOp6IRPXV4TeUupKiqKUYREOmyEEVd7FFmtksaRQJfAMkZ5RIBzG2NgYrl69yg+gb7/9Fp9//jmePn3K+fTj4+Mol8vY2triz46ALcViEaurq7h9+zbGx8dx+Y2zGB0dxLFjxxgrzwWctNXIzLCZvTG/L8zTCtM0EZBaXj8iT7ZlYqW2maKLi11EAdGiFO1CKIrsl9azDqLEfzYWi7Uxlnp6elxrzRoWFhbw4sULfPHFFzh3jkH59DoTZ4vFYtA0jd+ghYUFpNNprK6u8hqaMLDeUYUktfORqdOpqiogtWOFHcicCSZJnelf3WCsomIppXIEG6XN2Wg0eLPkyy+/xOrqKlZXV7mYIJO/YV3o3t5eSEnmmby6ugpdZ2oisixjc3MTwWAQU1NTkCQJjx8/xrfffov19XVMTU1heHiYk/69Qg/ka+Tz+XiaurS0hOfPn6Ner7P7rutYWlpCwM9ec/LkCRw+fJgrtOzuMsme1dVVbqni2DZ6kknkcjncuHEDmupHsVhFo95EoZhnCnGOg8zODiTHwsjQMEL+AGQHWFlcwh/+v98jEolge3sbkGzEj44hkUhgTWYNLGZO7qBWa0BVfQgGW912n08RehLse+r1JnSjBZgRnx2t/cHhIT4+KxSY4orf78fo6CiGhoYQDrNNOTMzg7m5OTQbDUSiUWxvb+Pbb79FrVZDf38/pqamMDs7i1wuh56eHhbdXR75zMwMXl64gMnJg5iYOI6hoUEoGrumaq0MyzYgayrVyKQZYu+JmK8jHOCdB7/O+OnHeCR52SfFYhEAONsll8thcXERm5sbrM4NtCBttDHK5TKPYNRI6SQlK46Zfig/m4M+COb1E2pkcnuIx+OcapjNZrmNCCG5xGdGIAvDaPLDdn19HSsrK1CUlin8zMwMotEoCoUCV89cX19HT08PHxt5scUiy4qiHE0VaCLA6JPAwsICMpkMlpYX+cyWNXNKHEqqaRri8TgGBwc58ml9YxWNug6/PwwJMizb5AcVbT6RtgkAW1tbXKzu0OERDA8PY2tjfV/hh05cc/GgbSmPtBvSG3WXDCKBlzOVSgWlYhEBt7Rhm51RG2msRtkVGbyfPn0ab7zxBp+QTE9PtxEw8vk8F42kiQKp3ni5AHvnyC6bBXDa7Ei9bfZuG7mTcsReQrzzg1NxUZ9JZJ3Q/JjGD0xxk7Fhyii1pFBBLJHWCIdsYjrxijtelyN3nD5JkvKjxm+v+qD+AKW7tEkJjbWzs4Owm0KK9ELKehoNXSC/SzBNG4ZhcVRcPl9kkVtSEI+zJla5XIXl+iWXy+U93sCi/SrNXll6CteDGFBVgkOy78/lcshmsxxQYtsmT5ODwSCCQRbxCCvuwOIi85rqg6xIbdkb9Upoc/v9rdTdMY02tFgno3KKqlxgsoPPt/i7RANAADBcl8RyuewKBTKMPtxDhlLvRqNldkfKNDSaKpVKOHbsGP7+7/8ekUgEpVIJ8/PzfIRKwBpd11Fv1GCYABQZWsAPSXLQaNTacB/qq2rYbnzT/Rwc9+MZvypq78Vet5O6WzQ31uFjTSmT44Xj8TgiEYanDfpaHrqEmhGdJBqNxp4H2Upzu19nNwXQvzVIxLIsDnghnDkR6xVFabt+MbMgd0OKAqL9J3W9CbRAXXqqe2nBMvG4SJu4ndfHiQ4Z+nfxOvx+v6snxSqQdr6707YxAJs33MhKBo7cFpFblj3t5Yd4DSI5Rpxze0u+jmqxHSIyPPgBKsPCPtb8tBybq7MYhgEQPNXVEmNCDlYbKo/GVdQIPH78MPx+YGBggB9mpBEnHuJ0WZ1oto7j/PCN/FNE+Dql1Pu9jkgT80qxiIANmj+2PGbZ36OhCGRZhab5+QJkp5wJXTfbyPZsfm7DccgjWajxHZl55XaAsrbXyO3Nup8qACR2c3WdRVfaXJSCUQOMnpWIWSeLURLHMwU8NNW5xL0VFwU1UiLuOMtrsE6/j5wqaBNRhKUOeiG/xQ5ftd3J07bZz5dKJfdg1dqus1oro15rore3H3AkWHb7ZqIFTkgyUdlU9GrupB33Q9xSRJ4BPY9YLIZEkrGktna2OTqNlEcIkMJkp4BEIsHhmbVyC3VGJA06y+je6bqOZr0OODZiPYcQTTAXCp+GNskrRVFgC+bs6l7/JnQl0nvT0E5G5fvJg3aqpbspbLQcBh0u00MnNsH8ksmkW8uVuLYyw8aym2qaNv9+gtKJfsnetLHTwxe1vb3cW2nfdPyny+WKOtJiutVoNHinkw406gFQZAuFQshkMnxTiewj2tTUzacuNZnCiWgyL39Y5PeS4qOYKYkZkNcnq7WZZX4IiXYz9Ht8Ph98GsumJMiwHbsNiEGKnUy+yOBrg7IMAnGILpI/1K9almXYHilo6rdEIhHE43GUKmXen5BlGaobKXVdR7FYxMhQDH19fRgbG8Phw4eRTqeh6zoGBwdx4sQJjI+PwzAAXWd01JMnT6JYLGJzcxOwTJw8eRLHjh1Df38/APAShQwbxHur/pBIKrrQiZ1orzrm60bbTt/jPTxEuw8ayMtKa+HyLrZpwAiFOWeTNrv4IbrndZLv8Xoyv26psOfvjryncfhTADMUmQlxRVFQZCyJ4H4qHWhR1et1nu4SYMJxHD56CoVCAiTW34bvFmmkohk8pXmi5a045rIsC6Ega3A5sD1C/+xeUUQlkToeVRUVsqSiUTNcCiob9dm2A9u0YOoGjKYOO2jBaOpwbBt+nw+2ZaFaqUBvsCzDMm1hiiAL5vSSm2HZ/GsvQ02SJCiytIcrTw1Tql+J164oCurNJhqNBl6+ZNI8jvl3GBgYwNTUFH7729/i6NGjKBaLGB8fx9tvv42DBw+iVGLZ1pEjR/DJJ58glUphZWUFsibjww8/xMWLF6FpGuYXtnDv3j3Mzc1x7oEDi68zlfiM+82SvcJ4dMPpoXaTxNmv4fWqjU4Pm24gX9iyA1kWdarYAjVdszdalJqmoVws83rXcSxIkuJ6JCltetWdNjKLfg4kKB1S6s4pmeww5pPsfstP3cqxWKyt/hQ767RRaYNRVBN1uuleiJuPnp24UalJJkkS4vE4j/rs+y3uxMmegw3GYXfcebsCvz8IgNmv6nqD167+gG+PhDK7HqNNz9m2W00iBtCwYFl1REJxt0di70mtCVElyzKaDQM+vwNZIgtaH3y+QEe6bbcpSKf/k90MiO4/9SWMnIV8Po+moXPIbzgchmnbyOVyePToEWtW1pp4//33MTZ2GNHoJzh58iR2d3dx4MABXL58BsUim5ubpomhoSEMDQ3hwIEDyOVy6OvrQ7I/iYHhAVTKFTx58gT37z3A6uoqJElhNbXTCjaqoTcQ9AegqQwbEvQHUJRKsCybz49p8Xi1p1sAeXvPjaF6zUu895qgebHW7YuVKVsGAkxalE5EJl3LNJZkWcLAQL9LiGeNBgb1q6BSrrlRWIFp6m5HVeYRC4rMI0PIH0Ktxlg6mqahpycJvdJkOlP0vhyW5tk2M7lTFbmti26ZJhwJUBQVsqr8X97e67uNK0sX/yogZxAgmKMkUpatHKzobHfb7e5x35nVPb/Vr/Nnzds8zr1z13jGvdptu2U5SbYkKlAkxQwSBEnkHAoVfg+n9kEBAinJ7blai5ZEwSRRVeecvb/9BbRaRoevVjfqe1DEJ32uVq2bp53ERQlOhwtOhwu1Wg0wBDjsTg5+eD3tbGdNV80NTYLP5+HgHovgYYhvpVIxTegaUNUWDENHtVrm1sDsHjBmG2EEmqabJ5hhZmQznbaqaqjVKqjXqxBFcsxol+Lk4KIoTZ6/1X6W2vG1jUaTO3aQs6mV/EAIvKYZqFbrcLk8sNudEMB+Hlmyw2F3oVKuwW53QpRs0A0BLZW1HDa7k5NrBFGGIEoQRMnMp0aXA4zG9dX0q16vQ6mwE1mQRI43uN1uKKqKzP4+NldXoSgKAt6A2aJcw/j4OKLRsNlrAzYbEI/HsWyytKampnDixAlcvHiWh/CJNqBYbGFzI467P93D3Tt3kU1lYLPZoSgaAj47lGYTosEpml0+Xaa9hdjldPEi3OqX6Ud62QlZ/1+WaO+Armu8R1RaDVSrZVOyF+A9Va1WQyqVNkO9BjE7+wr8vjAfM2ka20V3d3exs7PNdLa1MkcRQ6EQXC7mIEForsvpZ7ueQUSPZyuNbjBQMss0ga6pgWdiPQ8q07vn9Nayjr6GNQfK2qM+Y51kMDEBVSder5cvJuql+/r6OFGfwDTrz6ZpLRiG2AGU0ebDUhxdJoe5as5NmZc4nbw2m4OPXKg9IkSdPLQIw6AynV7TbDZRrzY65tbU/xK7jDza6JCpVCqoVirQNBZKkMvI/LmxUmytllLd1/8gx8xunMgwDMgm/kBhgQDg9vlQK5WQTCTw17/+FakUi0B9/fXXMTExAVmWkUzmkc1m8dlnn5m2vhmcPHkSrVYLp0+fhtfrha7rSOfSmJ+fx82bt3D79m1sbGxAqSuwmQaJ7QpRfDb76RkOdNeb6RUI/bxx1M9RT1HPRyW8z+fhQ3JNa/Ebz5z3XaagPmrqPy/g5MmTGB2Z5OgmeVIxJhGT+f1w+zskk0mk02moqoq+vhBHXavVOlzOw616rIbn3U4nvKwznnVR6faB7nUtDMOA0+Vo/zsEqJqGhrkIRJGNZXoBju2v0Q7QVhSlw6CQPghttSLAVE1pmv7MxkKLuZuJRg6cVu10oVDocDjpEMWbp5u1VbOizfV6Ha2mysY95qzcisnQSWllHtLIiZiK3Siv9Wd+EcRaFJ8NG7TeR9pkFEVhaS0OB4LBINfQJxMJnia6vb2N1157DW63G9vb21hbW8OtW7eQSCRQNVlu2WwW8/PzPMhtPb6Oubk53L//gCWFaDo85ibm83cZ1L9Ihs1BM97nIdMveiIfRMKgmBSAXbRisYh0Oo1IJIxIJIJmk+3Qfr8fV65cwfnzF3Ds2DGMjo4zjanB3DIJcfT7/ejv78fZs6chiiLOnD2Fubk5fPvtt1hdXUU2m+XZvqFQCJqKA7N/upF2WsScwqq3OjTeVsS/V1B6L+aR1QDdKpuj8YXVNdTqOEE/V7NZ56L+crnMFT5+v5+hrqUS57HTiUfKJmZaH+L8Y6t7By2UVCrFy2TKKCqXyx3qqGg0ytFxK73R7XZjf3+fO7MQtdTn86Gvr48RLco1nrlMvbHH44EoiqjVagiHwxw1HhwcRCQSwd7eHrxeLwfdrNJPq8+Y1b7qRQ8d6xTDGnhPFYQgSdxXOxQKoV5hKquffvoJi4uLGBoa4ky63d1dFAoFNt83I1Y///xz3L59G7FYDKFQCLupXezu7qJUqrDqxZwuSJIEH3okTfQOOjdeWEP89wZ/d3OOu1li5D5Ib5wM1ARB4GHa//iP/4hz587D6bSjWm0yaluJmfSRMF2S2NdiSRV9ePfdd83epQ83b97E3bt3kU2noASCGBkZQ01VAEG3QFvmrizSKalBEAFJZEogUTLPTsOAYAhtI3edzfsEIiaYHx04gWH2MUZb32wdo1hHTcPDwzh37hxOnDjBiR7E7KLem3ksF9Fs1rG3t4eHDx/ixx9/NEPuNHg8Ltjtsvn1WyiVmCLI7XbjxInjOHPmDE6fPt0xG6axSi6XQ7lcxrfffssN5Mk0gCYJPp8PH330MV577TWMj49z8QVVBtFoFFtbW1wL/ujRIzQaDdMl83UMDw9jcz2OBw8e4MGDB1yLTv7lJEUsl8vw+/24ePEiYrEY9vf3zTFPg3ubdZfK1kjYw59vHEiGEkURhrm5WTEAq5OI2+3meEMunUaxWOSkG6pS3G43L6UrlQpSqRSy2SxrNxwMg6L0lGqpzIUnHq8LHpe780Q+qLR+nryxm0jQ602/jEqqVxYPc8JgaKCu6xgdHYUgGNjZ2cHAQAw3btzAJ598guvXL0CSgGy2yUO8mk2NgyXMWaLJs3PtdjtsdgkjIyN45513EA6HIYoibt68iXKxgLzHB4fdcyCd1ApW0SIj7Su5bDTNOSf1pFYhSS823DPX2ei8NoT0hsNhnDx5Eh9//LF52giQJFgcXtiHLDPQJJst47vvvuO9XKFQwM7ODoaHh1GpVJDPlVZ1dQAAIABJREFU51EtFWFzujA7O4uPPvoI77zzDqanx8wgsnayoKIAtRpjNFFIOj18VFYTonz58mWcO3cO09N90HWgUGAMJ+ZDDhw/fhx2ux1Pnz5lvXS1ir6+Pty4cQPnz5/HwvwifD4fstksNjc3OevJSgSSJAnT09O4du0aJicnsbW1he+//x7z84/QbNY7eNLdzxZtkIcdKr2CC6k1pREokWdsph91Pp832c7t2TM9E9b2w8r48ng8iEajXBhTLBYBicBAhoqTlLcXtiQ/z3/rsFPUysV+3sjpsIV8WJoD+RVXKhWeUZRMJkzni5P44IMPcP78eYgisL9fNfWdzOBsbzeDcrnMxQNEArHZJQjiMO+5BgYG8NZbb3FixNzcHPL5PAZiLsbQslj80MxRMJVh3SMyj8cDv9+HQCDIlDi6AFUxS2MYkAQBoiBa5pqAbujmKS62HTgNGrOBZxDXaorpYyZicDCGcJglEpTMyoNM8aiU9HhYiReL+XD58mX+7z/++CPS6TQqlQoX6w+NjuHs2bP41a9+hbfffhtHjsSQyTS5VLHVanHOMDMycOPatWuo1WpIJpNYW1vjFER6UBcXF03keQahUAhutwsulxOlUhk7OyzilloaGnex+NUhDA97IIuvwjA05HIZ6LpqOmwqcDhsZu6VhkgkjNOnT+LMmVMmQagJt9v5jK81bbxWks1Bz2H7d/0ZGSOjkAodRB3aeMmIgPp6aO1JizW2huyKAoEABxHp56LghFgshnKNtUNkfuB2ODuC23v2yM8DorrHRb1cL1/W6+tF8mYZU4ihnl6vl8sbh4eH8Zvf/AbXr1+H1ytgYyOFra1tbG9vI5dj5uPra5soFJjHM4ExAwMDmJqeQCQSgSgKSCaZamZ4eBjXr1/nssDNza0XqkjoAaGdmeJIIpE+5mGsaB2vtYrce21+/HPme7fb5Q6CCslMg8EgslkF2WwW29vb2NnZ4eASOUI2GjVMTk7i5MmTiMX6cPnyZZTLZdRqNTx69AjVahWiKGJgYABnz57Fxx9/bGYju5DPq1znvbu7i2q1Co/Hg7GxMUxMTCAajeL48XHU69eRTCahmkmDtRoj8xeLRfzlL3/hUsvjx49zM8Dt7W0sLS3hzp07PPlCFEU4zTKTzccBj8eJmZkZXLp0CYlEAvl8HoVCAV6vl1+nvr4+HD16FJOT/ZAk8JPL5/OhVMh1VD/WwDUrselFMaH239v3nzTLtVoNDbNcHhkZwcTEBI5NH8POzk5HfhW1P+TcKpl9NQDuYTY7O4uLFy+ir78Pq6urePRoHjs7O6hUKu3kjy7CkUy7DbFzqPSkOl8XOt+QVflilbZ1M7q6/Y2siGE3+tftDkkXjoQC6XQKw8ODCIVCuHf/JziddvzhD3/Ar3/9a8iyiFyuiWQyiUePHmF5eRk7OwxIaNQVLnPUNA3b29tIJpPI5TOoVCq4ePE8QqEA6vU68vk8otEIrl69gkePHiIejyOZTCIajXWAI0SBJLTXSmSn67C9vY1EIgFVNemM0CDJzByfem5BFCBS8oLGGDqi1O6/qXTrTlsMBoM8ZK6/345Eoo6vvvoK33//PSeEtPs2xg1+77338Pvf/x4TEzG8/fbb2N/fx9OnTznmQB5ab731FiIRJ+LxLH766SfcvXsXP/zwA+LxOMLhMM8EPnfuHP75n/8Zw8PDOHVqFpL0/6Fer+Pzzz/nGyaTRS5haWkJuVwOx44dQ38/M7nLZrP48ssv8dlnn/Fnj2iW5Mm2vV2ACMHstT9CpVLB2toad/Ug0srOzg50Xcf+fgUjI17OESDnUMoepg2mnV3cyQHodbhYM7x7HXKyid1QqV/J5QC7HR999BH+9Kc/YXxkHDs7O/j+++/x6aefYu7uXRQKBYyMjCASiXCwkUBGVVURCoVw+fJl/Mu//AuCfSxi9dNP/xv/9m//hs21db6Y/QEvB9xardaLUzR/aZVPr968lx7X4XBwkEPTNEQiERw/PoPLly9zvm0qlcLGxgYSiQQ/lWw2G1xODzdbI3eLWq2G7e1t/PWvf0UsFsXJkyfhcrmQSqUgigJ3b/j22++gNNuex5SPRAu4W8Paa6Oy+iFbX2uVelrbk87eh3G5SSLZLVhgMkXmokkmCcQyYmWXztVTQ0NDuHTpEgYGQgiHwxgZGcHo6CgSiQQHWTKZDLa3t5FKOTA/P4/vvvsO9+/fx8rKiplcwcrseoXZ0kxOTuLVV1/F0BBzvuwz/aPI9odJC+u85GTgFHv/Vpsd63jIOhaTZRmFXN68b3aMj49jYmICu7u7XCRjHYkxkI1Va6VSiT8HtCHS6wjHoE3yZZ7z7r9budySJAEmwOXzMaHD5CTzG2OmBuwgICdTKwjXPfUh7+9hzzBGRqJQlA+QTqfx9Vd/w/b2Nq/+Dtcj/w/8+rklNy0CUuGkUim4XC6cO3cOp0+fRrPZQLlcxvb2NlZXV5FIJFCr1bjjR390gFP/bDYbWmoTdoeMSqJkliyPMDU1hVAoiHK5BEEAhoeH8corryAcDiOZ3EOr1YTTaTdTJjRTSytBlqWuGwCTM2yYnuCCSS000woNA4bBonna43mD/1kUu3OnmWqI0i2IQssok5r5Z6DVaqJaLaNQyHEwiEgWjUYDtXoFO8ltZLIpQADCfS70xyKIRMMImzv+Znwdf7v5JbYTcciyjI2NDTx+/BjpVBaGYXBvrVQqhXqF9WvFYhGFQgFDQyFEoyEMDg7yDZGCuEulCl9M1oVEog9rqDhVhNR3OhyOjlSK48eP4/r169jb22Oz12oVoVCogwdOedl0AnePN58n7vk5XHhayLIsQzIjaahqqlZZhTQzc4zruyuVCtbX11EqFhGJRvmmRXTahmnPdOvWLeSKOVy5cgWzs8dw48YNpHb3sLu7i3w2C4fThqA/8KyL5ss4dLzMrLhXr32Q4qkXw4nFwTA2UjqdxvDIIEZGRuDzyQAcKJVKqNfrfLbJ+scQi8x0uDm5gHSjXq8X0WgUhUIBi4uLOHfuHNzutk7X7XZjamoKs7OzKBRKnPJoveCEQHbnH3X3uqIodxBGuue9B2UMs69lQJDQwXbiXlHmxmSzgecZBYNBeDweBAIBbrSQy2dQKBQ4I0wQGDWQysvR0VEkk0mUSiX89NNPWFpagt1uR71eRy6Xg6Ez7nU0GuXi/bLHi/7+fp4mSG+Z3DxJmOF2uxEIBKAoCp+tOp02qKrM1Vq0AKw5yVSx2O2MNUVZScFgEO+99x4KhQK+/PJLrnzqVECBv3dyjaF/5wolk3Ry0OjpRU5nDnB2YRy0gdKpTBtKIODHiRNH0Wr9Dpqm4S9/+QtWVlY4e5Fm7jabDfl8Hk+ePEE6nUZiN2Gi/2dw4cIFpHbZJvbo0aNneAjyyy7Ev4e5dRA6fZiUrO2CSLTAkGmajg7rGZIqEoHd6/Uim8kzMMJok/LZsD4AVVWQyWSwsbGB0dERE/wSYbcDExMTeOutt7C/n0Yh35ap0cWmh84qpu/lNCFZ/M2oxLMuZHoAe1EDDUGAZqgcpexWb7E5KDhY4vf7eWwO8wP3IF/IdlAem03DPPnbwhF6PY1ziG3l9/vhcjLyRalU4kSQaDSKU6dO4ezZsxgbG0SzCayvx7Gzs8PnqdQzkpEBLW6Hg1UetJCtdE+r0o1teoBsE7GysoJisYgzZ87gtZNHoen/AAMaHj9+jHq9imqtjGqtjKZShyACTpcdXh9jPpEUk3jj9HxQKd6pR3/x8tqwINjWqYXVdUSWZfg9Tmxv76NWq2F0dADnz7/C36vNZkMikUC5XOYCFwLxCoUCFh4/gt1lx/HjxzE7+wpGRgK4ePEiHj58iPX1dZQrxd6+1i9rCvAyffJhc+nDfpEEz263wetlOzzNe8tlBYrS5L7XxCWm/pFKcqfTCQMaT6LweDxcREAoqKqqGBkZhqoyn6VYLIZz587ixx/vYvnpKnfmIDSYAMHDKhTDMCD2iHrpTi3oXsT8d9GA0eqU0Fl7bUZx1Lm2mkpKQvXL5TLj5ioK7ylZ/Arj6ZLpP0Wm0OiNxkxerxc22YFCoYC9vT2Uy2UMDQ3h2rVr+Pjjj/Huu2/CZgOePGFGgD/99BOy2SxfkIwWqnJ9MpvlM9MGa1yKFeCkE5aBTOw9r66uYm5uDpVKxaTfvsIdPW/evMnfF3uP6NgwqQ+mRWtleBGO8vf0yNb7rmkadAsfncQRtVoNiUQCuVwOx48fx5kzM5CkP2BwcBD/+q//yubOmTQ0TYPf7+dZ39VSEfF4HCsrK9jZ2UEkMoVoNMqf/4YJ3r3QQu5lwv6ypnkHjbFe5AJSWVStVuF02jn0Xi6XzYdQ5uwYn88Hh8PBfZ8kSUI0EmNuGhpjGpETp9vNKIi7u7v8lHW7gXJZgKIAmt7iP2e9UUWtVoMBDbqhQtNbnFVEFEmuk+5C6VVRekZs0MsIrhvJF0URhsjKYdl0eGw0G6g32LioqdShtBpsBCHo0A0VTaWOUrmEcqXY4Z5Cc9lIJMIRYxr5EE+dgCOagxK3OZct8NCxoaEhvPnmm/joo49w6tQpOBzAjz8+wa1bt/D5559jaWkJjUaDezOzTQOc681cTjrBKQIDuw0D2AJn1yOfz+Px48doNBqYnp7G229fxalTp1Cr1fD48WP4/X6u19Z1dPhqW3vYn9MjWx/Tg8g7HWILy4nMNgz2mmQyiQcPHmBrawtvvvkmzpw5gsHBQWQyGXzxxRd48uQJ58NTGyM7nLxqYRs4eFsgyzJcZmQMd3ztUtS+kLPF34taH7aYrZ9nJXPbdI2E9JUKo+YFAgFzEXrgdntMFVSD7/aNZo2fZj6fj1u5Wk3RA4GASchnu2erxWxzd3Z2kM2mkU6n+alHJSJLC6zx8C9r72tdyBKEDm/qbtuZbuTUitpCEqHqLdh0W0fZS5pYhh3IHdRMeniJlDE5OQm/348TJ05gbGwMDocD29vbiMfjWF1d5RseXSOrOZyu6yiXqnA4HBgeHsbZs2fx29/+FlevXoUsy1hb28PNmzdx69Yt/PTTT6hXynB5AxBFGaqqo1ZrcFEGLc5uI4ruOJzOBQg+LSgWi1hcXMTdu3fxyiuvYGyM2SDHYjHs7u7y3pymRPS1rTbOVjIGz27+BaY0vZxlZVGETRJQralQNTZV+eLLz/HDDz+gqdTx3rsfwOtz409/+hMkmT0LG5trqJRrUDUFsuyGIBrwmMF1rMVkE4FsNssN7Xk8rwDI7MGSOtC/thpF4nPk9g5lmEiswBPoyXWThuX0YZ2mWO10rCohq1bX2kuyXoKxd0KhMARBQDabZT2jLkCSbDAMAW63F62WBpfLA4/HB0lkfZBuEOtKh90uo9msIxwOIhgMmAHgEXg8HpMHrGF/n+mQ6/UGnj5dxuYm04o2GjVuLWuY0kBAhyAYUJTG4WBI12yd2wYZ7fGU9ZTWdA2GZomkEQVuFE8Pv/U0q9VYGXz16lUMDg5y0gDRAoeGhjA5OYnTp09jYmIc5XIFKysrWFlZaaccmvNvoq26XC5OcCgWcxgbH8frr7+OTz75BG+//QY8HuDx423cvXsXX311E48fP4ZhCLC7vJBlO3y+gAksZpgeWWGUWSrvifVUr9f5/JgqJXJDYZsmu37hcJiH6n3zzTd49dVX4XRewcTEGN599114vV5uF1uttlAsFrlEUtNasNkkOJ1289lWzGvNpgvWmNyei5Rm+kaXNZW59zptDiiNJpr1hskYdAC6DqXRhCwCgk0GdB27yQSWl5YgihJ8Xhecdgd+9asPMDE+hP/1ySewSTL+z//531hdXUOjVoOqtNrmioYBj8sBmwSomoKmUoduqMycQdeYlNJut5zIptvAYdY7/9O/OhHrdllEyJ4gCEin00gmk3C7vKjXGiiXdthcTtEAQ0Qul2PEiZDfvKE2Dn6RcoZyhKistjpQVqssfmZ+fr7DT5hAJ9rl6RQ8zG2il7qr16LvLrf576LQIf+zEmgYi8yGWCwGh8OB2dlZE9BqAzuNRgORSAShUAjJ5C4eP37M43GazSbvjckthdqZSqUCVVUxMTmJq1ev4re//S0uX74MWQaWlpK4c+cOHjx4gOXlZTNEwAbDYD16LpeDrhnmImVgEyHIVJ0QEEantHWOTmQWUWwj8i6XC9VyCWtra5ibm8PQ0BBmZmZMz6tWR6QrVW3ks/0y8tnnVY7dfyfaJdlKiaIIQ9NNDKUNLOq6xpRn5TIePHgAv9+Per2Gf/qnf8SxY0fwu9/9FoIAfPrpp9zKhzj11tah3X93upECgCxAOtDuhHrkXrTMw9wwn1eK9GJxPfuatosh9V4ulwtbW1tYWFjgJ8je3h4KhQKcTicGBgaQyWSQy+XQUpvmCSB3jCpIySOKIgYHB+H3+80kChGKwsTp8Xgci4uLqFQqHZ7RxHgjR0XrdbEi11YTgMMeIGIMdeuS+UaATvKIVbtL5ZYsywgEAhw/IIMAn09CJsPmyuVyGY8ePcJ//ud/4ocffkChUOBxqVZnUgLMKCT83LlzeOutt/DGG28gFJIwN7eGzz77DLdufYvNzU2USiVT9unl4z1N0yCJMiKRiBkgoD/DUCPuMb1XmjpQj24lSxAiXy2XEN9Yx82bNxEKheBwONDf3w+3283BSIolpfSHn9veHURN7t5saSxJ0TTWf2dga3uCQpvRxsYGNE3Dzs4OZFnG+fPnMTs7DVH8B97SZLNZuN1uXLx4EUeOHIHT6USppGN/fx/FYpGTWqwEErmXo+VBqYy95Ia9ONgHLeaDgK9e31PX2WvpZKnVavD5fNzcbGFhARcuXOAjBkmSEA6HechYU2HJe4Jg8LFTOBzmiY3M/5q5Ifr9LOw8kylhc3MTGxsb2N3d7RhZWF0irXzp7myoXqOog7jkNMY6SEAioNMWyHoiswXITtB0Os1HWVSOjo+P8kVdKrHT7P79+9hYWYE/HMbY2Bg2Nzf5z0rJEoqiIBaLYWpqCr/73e9w8uRJ2GwSHj+O47/+67/w2WefYXl5FfV6HX6/38wWFjs2N1VVYdNli31Pg1dVBOBQaU/XgfCGts4XvPVwu92wO11QGnUsLCwgFApBFJk53eDgIK8ESABC3+N5z/PLALXdhw7dE6sRpVUNx/4MnmUdDDLyjaqqnJ0myzKKxSJ+//vf49VXJ/HHP/4Rw8PDSKVScDqdOH32LMbGxmAYBhYWFnDv3j1sbW1xw0TrMyYf5vbRfSK/LEvr8BPXONSgnrGdWMlHhI9oNAqPx4NsNouvvvoKIyMj3Oc5m81C13VO6tcN1ezf2idoMBhENBrF8PCw6SnM+icASKVKmJubw/fff89pdD6fj/O0D3IL7WXPY72ZB+m3DxRLWD4nHkDCaZ/4QKFQwN27d3mus9PJhAZnz57FyMgIr2TIPAAAz+AlFJSYWiTWv3LlCt5//3289957UFUV8/ML+OKLL/DnP/8ZT548Qb3e5Ig92wBqMAwDoVCIlbWVGr9nrUYVxWKRjxGdTnApn6FpvM0hJxf6uoRa0/WiUPBKhRnRCYKAo0ePIhgMdhjvWwk4h5XWL6Of765Irb+TFNHq791qtVAoFBAK9XPjBCtY2v0+XC4X3n//fczMTKK/v59nm00fHUWzCSwuLuHWrVv45ptvsLGxAbXL+ZQv5GffEDlNAAaMnhD+zymte+mde1UCVgKEJLHTlJBiCuL+4YcfMDU1hStXruDIkSPwer1IJpPwer2IxWJwuVxmfKjeYV9DjCOaPUsSkMk0eP94+/ZtbG9vc2tYSnnoJfLo/pm7P9etGz1oAfeqeg766FRfsZnx06dP8dlnn/H3f+LECSQSCfzxj380mWwRnDx5EpcuXUImk8FeMonl5WUMDw/DMAzu2RUOh3Hu3Dn8+te/xocffggA2NzcxN/+9jU+//xzNgaqVgBB5pxpSZJQK1cg2ZkGmQT2lWoLrUa9g9hTq9UhCMwgcXR0FNvb2zw3isgkVP0IAlMyERCnaRo3wcvn81hdXcW9e/fgdDoxOTnJgTpC7KlX/nsmLL1GVdY/U99vTTKhE/fhw4eoVKawvLzMiR9k4k+tzPb2No94LZfLeP/99zE5OYpIxANdB2p1prun6N/5+XlUi0UINpkHLXLW4POsenrB6z+ntO51qj+vl2alFqMJkvcRsZZ2dnbw+eefc5sZSly02+08nG16epovKLrYDJxwQhRlOBwy8vkaFhYW8M033+H7729jZWUVtRpzZ9Q0AwDzVZYkCjoXuB1vt1m/VdTfHudZe+LuayKY6L7R1W+b3suGCPJhhgEYutA2A9QFuF2AzxuAJNpQqzbQrNbRUjQsP11FrdqA2+XFuXPnWNj40Vl89OHH0FQDX3/9NQsJVxkFtqVo6AtH8frrr+ODDz7AlcvX0B91Y2GRSTpLpRLsdjvGxsbMh9HFCSQs5pUZzFE4mU1mm9/gyCjC4SBOnTqF0dFRczE3EI1Gce3aNdhsNqysrCCfz3NOtZW7TgZ7NGO2plHU63U8fPiQz8uPHDkCj8eFUqnEe/AXOUh+Tn/cy1yCxpD1eh1LS0v44osvcO9eCPl8Hhsbm2g0mqYRpBOCIJqtmoRysYTHj+fh8XihaTpOnTrFw/rm5uawv7+PO3fu4MnjeZQKRYiyDU6HA4IB5tqq6xCJENKRjmD8z2b+vghNk0Za9HMRkEN9stfrRTzObGAIMTx79iyGh4fhdrt5jEejWePAA+2Y9LW8Xi9qtRYSiQQePHiAu3fvYmlpCcV8DqLMXCebzSY/BawnopVW2H3DD3MU6d7krCW7VQTPx3Q9N4p2ed5soiMBweZkmUOlUgkrKyvY3WWeT4FAABcunMWFCxd4qQeAmxEATCxy9epVvPnmmxgejqFaZWh9NBrFK6+8wqxmqlWTauniNsLVahWLi0+xtraGra0tJtxwsFL+4sWLmJwcx5kzZ3Dy5El4vV60Wi2Mjo7i2rVrHERcWFhAJpPpejba3GjrNSEEVxRFpNNpbG5uYnx8HNPT0xBFcElqNpv9RXgPh+FC1q9PiR61Wg3xeBwAU6Y5HA5u7kg4C5XEoRALzms2m5ifn0elUsG9e/d4aDx5mlGqpSiKZhUpPqOYkxuNBhwO5zPGZNzITTc6Buu9ZFy9TtdeOmMrAaLt1Nhpt9IW3esm+YI9dP39/Uin0yZdLYJTp07hyZMn+PHHH5HJZJBKpfDOO+/g1KlT6O93Q1H8WF5Z5+4WwWAQw8PDCAScaDbBhQIPHz7E119/jSdPnjB03Ofn802fz8ftZOlndDqdHQL1XoAXvfYg5NSa1NCrb+bXvsMlhWmziVPO5JXgwnY2glMwPDwMSZKwv7+PfD6Pubk59Pf3IxgM4vTpKbz33ntIJBK85CPxxJUrV0zL1hgMA8hkKpAkCYODgxiIDeGNN96wxM/IHY4bi4tP8e///u+Ix+OolUsQBQnTR6Zw48YNXL16GadPs0WWy2l87HfhwjFMTU2hVCphaWkJfr8fsVgMlUoFy8vLOHZsHLVaDel0mpXMShM2s3QnWaCmaZifn4fX68X09DQikRD29vawvLwMp9MJTWlif38fqqpyHjNRM628hefRL7vbJro/tDjp8z6fj8fHbm5udkwYAoEAVzfR5qRpGk+zLJfLuHPnDhdd0AiNxDnWrCtJaoOw5D8mt1FidFn2vFxUaC94/u+VLdNipxGJ2+3mAoByuQyfz4dKpYJEIoEvvvgCiUQC586d42HdAwMD/CSm3X93N8e1y3/7G9N3bm5ucsSzW4nTk4r3HNbPiwIpB1nsWjfUthqIESlYKbuHubk51Ot1bG5uYmtri/GszXml1SRib28P9+7dQyQS6XhwQ6EQf6CbzSbLMd7YYIFhdjsqlQoCQV/HKLBdObDTMRiUkM8bHEMIhULcy0sU2Uw/mUzytofos/l8HrmcC4uLi1hfX+fxN7QAvvzySxQKBbSUBu7evYtUKsUPDiKSUD+ezWaxsrKCW7duIR6PY35+HqlUivXXYDgHgVHW56qX71WvKupFbHN/riSyOzmEpWwonJhFktTu79dOF7Fb5siC1OG/dVjq4s9Fr3/uL5qX0c/j8XjQNPN1aCxBu9za2hrW1tbw8OFDnD17lgVnTYx2GANUKhVsbm7iyZMniMfj2Nzc7EgyoIRC+p5Wf6eDQuZ+jojkRTfITjUQG9FUKhWsrq7iz3/+M/feWlhYYKM6t4ffQ7KErVQqePjwIarVKpaXl+Hz+RCPx5FOp+H1ejkXenFxEaIoYmFhgSOrLjebjxq60EFFpU3e7/cjm81iaWkZDx8+xP7+PlqtFgsZa9bx5ZdfYn19FbFYrCPQjfgBq6urWFpaYiJ6s5LY3t7GxsYG5ufnIQoG9vb2WPqHw2nScyucKOJ2u5FIJPDkyROUSiX4/X7s7OygWq3izJkzqNuYrrlQKHA6qnVcZL1/LyqU+Lnt4kG4kVXPbLU3JiDLaoLQHs3RhtzDRbNzIYsvDN33mpX+UjnBlF5AOxAhk8R9Jiqez+fjnlHr6+tIp9Pw+/2Q5Hb/yIKnG8jlcmzu2mxAMEPPyZ7Gmlr4/8IppZcLqbUH00yQR9d1vsnYbDbs7+/j9u3bfBOjZEWrxSuVYgQULSwsYG1tjRNbqtUqotEon/NubW0hnU7zWXCr1YLNbs5jDZFXRZSmaAURy+Uq54E7nU4IYL7Tt2/fxvLyErdGosqCvg6ptCKRCEeZ63Vm35vJZOD1uDjllGSaxAWnGT+5kpCRQCaTQX9/P/x+PzSl2eGWafUe71U19ZQsHkIIeZkDrtepbV1zdGiRnlo3c6SsEk9aE6raegYvkXv9UN0B0H8Pze3vfdB1HR27EwkfqG+knYp6E5rZZTIZFAs5hv6K0jPAhNcX4mU0lTWU4MdPWUgmN5oS/Noe1Owzlq9rIsskF2N4Xfem0HktdQ3PoNbgQnpWAAAgAElEQVRW1xBDYI4i7GQ24HQ64PUKKJVKyOXahgFMmhngABbLcRLQamnmBuUw57o1frrb7U5omgFZtsPpZGV4uVxFq1Uw57EtTuinE7ltgN/WDrPrZ+cB33a7HWpL4+HmVC5SvI11IVuF+IwbrXUYKYiih89ZbTYbi55R29JIkrDSRl4ul9lFRRs7sOZttUdbwgsZBwgv2CodvHgl03VVtNxbgX9OEHTe1mqaAU0zoKosDE9VVYgGIIG5rmowYOgGoJHjqgHRlDlYsp/QcaN6AQG9Zp2Hsb5+2cWsc7CHemVSNBWLReTzef5zk6dyd/wrbQZWlw9rJWFV3livRTcXulev/EtVIN3XTTI3GStlkQgq9Xqdz02JIkgPNzGbSJ9MVYmVnkqaYatDB8032fMAbhxo6J3Z2JrWRtlpo2jb7WjQNXbChEIheL1uzre2zl7pc81ms2PRUYVF7RD9IuqmYC50ayoGjcLoGpDwom1KIT7jJ36YLLHXnw+bsLzo83AQoEYgIvHGyQ5J6Br3Wj22rQGJgOmiac2utTbULyPfehmQ50V/sQeu7ZPcaDT4rm+V4JFkjTYgeiDJPteqdSUmDhEMrAHeveJVuwPee4V8/dwFTTfjoM3BugBIA20dv1irCQKSKLSOTSMcXAhhzSO2UgqtXlr0OtZqmMokMDGKla2maUbHYpRlOzfnMwwDsmSD0+ZsJ0Oar6XWoK05Nvj3JdyDcpxZm9Dq6g11jtg3m01UKpUOOagoih2nt5VHbkXZ6e8vUlq/yMH0Igu5V2ndnapCC5rwGbXZOZ60pqHSc8DpvlQCiqIMASIEQYKuq1zM/HOa/V9mMVtE0yYETwQE2SZC01tIpRmB3O1xcq+peo3RDVVVRTDEkgElWTAjNA3+YLVaesdJQAure2T2Iifyzz2VrQu5G0UVBAG1Rp0vRlI29SJIUPnaarW4WoYynlRV5fpl4jdLksTphNZNjnzB2AltR71eNd8rjSY73ShplMPUT0YH48lml6GqCp8y0NemkRtVDFQm08ZMMk1VVWGTRd4LW1srel29XjcXu4B6vQpFaZiKIB3NZr3DKYQWh3Uk9LJYyIvEKB3Ufx+GA1lbAOKed39Pjl8JLLhAljt/frnZaEHXRdhkdvOsVMRWSwEkETabveuNCOZ4Q+tgMrFv3v6wuj/0onYeJCxo75ai6SEl83JJN1QAEiRJgMvl4Au8WMybuzoDDDxeHwIBHzRNhapq0HUBsizCbpfNB4X5SDMueadVrSzbTbRb7tgJu3/mXuZ7HeBVt8OEZUZP17jdV3d5e8OA0+5Aq8lOyXAwxG98q9UCdAOVUpnPE2VRgmCzo1apolapMmEC6h1WPrqu8z+XSiXOv6Zqh3peArzsdicPz2NtiWB6orlMFpcNiqICaEsnVVWFJItmfCtzHhVFwG6XIQgsgpXkf5IkwOt1c423z+dHMOhHqcSsbAOBEN+E2KajAhAhy054PC6ug282G2g2G8jnmSH90NAgVLWFXD6LYqmASrXMFUi6rkPVWj11xrreXuSSJEEUTPsjU3ziNEFTNjlhZT3MXlWg+6cz33LdMNBUNd7GUXtArRvTuLe4aQRtZNbDCzYblBb7vN1hM40fanxe3Ww2zUO3xcZPdBK3P4RfdLf6OcIK+pqS1E5aECVYdl0DjUadl2l2O0tfYCeYCE1rIZNJo6U2oakGR1StaK6imKZ8DpmfSozzK3eMALrHcS/yXnv1YS9rk9TLlME6fySWGvGRSZllPfGtCq5ardaRlEgph9ZRH5V27FoYAFoQRRkul4Of6mQl1CYoSB2nNOtXNdMeWOiZ2NANrFqrIityTjNqq8kicbJlWYKiCLxctjtkHgkkyUJHxUIboBUTst6HNiLftguq1yodrqV0UtL17DV2sn7O5hQ7MAHCYShwnuynrGg+TR6azTrUpgLd0LiYhEly2+NiisYxXUnEnqykFyU0/NIjp4NANep5y+Wi+QAK3PHROpphJ6XCXS6sPyfJIVst1SxNGZXQ43Z1EAcMQ4OiNDp6Emtf1Wsx99Jy81P3APOBw4ASQRAgiMKB1Yy1l6QH0IrKUkVgdXUkMIgAw45gMqDDe4zGQ81m0/y6Tqiqgnq9auZRSRAEw8ylUtFs1qEoTfPkNFCvt+Bw2J6x/e0lGOm2DKaphNJs8oqIXSO9Y+Px+RgGorQasDtkroKixUuzZuqrrc8SEVSsfAD6ncwVG01m8md3sGusmCGAHEi1ROYKlNRJCLUhQLI7+AFhBd1os2MS0PZ1txJ5ms0mNKUF3dD4Irfew0qlglgs2rYCPkgU/7Jz1IM8ql9kIzjI45o415rWgiC44Xa5Ua9XzRQBlZ/ANH8sFouw2+2IxWKIRqN4/fVLzwBC6XQau7t7yOfzqFQYQCSAPdh008n6lShwh2mnDzRkeIH3/7yg94NeRz8D9Z6EGFsXrKqqMAR0ZEHRiSZJEmeyWaWNxKX2eFhCBwUD0ClFVsM0KqKYUEqrAJjZH2UtEwrb6wS2co6taCwtZFmWoZncgbb3V4N/rVqtBk1jnPpKlWUo12o1zsF2Op0QDeb3RcAf91IzF4XVqthq1EeVAF0zKn/JO53aj15Oqp1OqBJaLY3fA3q+aIpQqVQ6AGZVVfn3czgcgE3m1YaV0UX2T+FwkF9n+SC2yc8hRPxcmtrBmmXdXITsTWq1FqfaybIMt8ckPJgl8tDQEI4dO4bz58/j2LFjGBiI8T6E7coyCoUC1tfXkUgk8Pnnn2Nvbw97eylkc4xE4vV6IckCZJvISngzq8mACN1gMz0DzL1SENnMl7lZWk9q+hAPRCufFzDPdnkceIrruo5SqfTMRsMf+mYdTg/l89b5IgyFQtB1Hel02jwpXGb+UA21ahVNm42Z4wsGPB5fh87X6/Vy8QplHft8Pt5/E0GnbbdTNnEI8z3CRGFhwIAA3WDgk25Q1rTBSDx2CTaTlcX6WhW1mgKtpQBww+Gww+Vyci0zA700fiApioJSqQS1paOhKLA5HLA7WchBvdGAquswBAGSzQaYhBEdgGYYEAUBoizDZm4qqq6jaco8W5oGm+kY43Q60chmLZwCUz+Otve1YVoWsfYQUFWFG104HDbUahU+amPVYoUj716vF7LppGqVShK5iRlGapwgIx+UqHgYF/Wg/vhly+vnPeTtcQM7ccuVIjStBZeL8aZ3dnZgs9nQF45idnYWly69jkuXLmF2dhaRiBtbW2nuOijLMmKxAYyOjnIXBrvdjidPnuDOnZ+wtraGTGofjUYDwWAQwWCQl17WPvVFqHz8umisvO1OcLSeRs+rcrpRc6sndKPRQH9/P3c8oZ6V/l22S5zNlkwmUSwW+YNCOmuSD/b19WFychJOp5Nz2XO5HJ9VE2JOJbeiKJiensbk5CQEQcDi4iJ2d3ctBoossE4Q5B7uL71D/bo/2gQUVpZ6/QEcOXIE4+NjGBwc5F7ltXql49q5XC7mi2VOMOh7kU90tVrl9lHdz6+VQ0BWzDTWGxkZwfDwMEKhEN/QDpIAE/BLPIC9vT3E43Hu/U3KsokJlgyazWbx9OlTbjDp9Xphk0QenMfigOyYnp5Gf3+/+d7znAAld5c8z/ZtdLoAHcnbaJ88gnDYaWx0fXT+Wzucu/frqOQiAoDX64bH4+Y3wyq/O3vmPAYGBiDLAmo1YH8/hf39fezt7ZlJd6uIRCK8P3zjjTcwMzODqakpfPfdd3jw4AGKxSIcDhs8HhfcjnYCvaExi1ZI5g03jRf4Tmy0x2aGYUCj92SAw/oGg0nZX+mmG4ChG/z/Fyw9lw7jmQeaFqmiKDwO9dq1a5iamuLoKPVitUaVC91/+OEHfPPNN0in0wgGg4zCaqYJ2u12nDlzBm+++SaCwSDu3buHb775Bnu7S5ClPrbz16twOe1o1Kuo1yqI9ffjVx+8h9OnT8MwDHz22Wf46qs8KuUiYLqyCAYgCW2SEZsMGfzD0Ez2oPk6SRAhGICh6dAF5nrZaNQ4PffIkSOmwu0kRkZGEAgEWMCcUjdHZiIvnR0OF5Smysv7fD6PmzdvolarYX19nZfP1G5Qb2wlXJCohDK0r1+/josXL2JwcLADHDvIZEMQRNNvq4Q7d+7gs88+w97eHnSV6eJfffVVXL58GbOzs4jH4xAEAXfu3EGtVmNkGbMipWc/Gu3DpUuXcO7cOfj9fnz11ReoVqvM/6uXzpVmh38P4vxLgF5UJokiM42322UEg0GIooBEIoGJiQlcuXIF//AP/4ALFy7A7XKiUKigWGTpgaFQiCOwiUQCa2trSKVSGBkZQSwW4zrW48ePY2BggIeAM0N8JwLeQAe7zHqTn0tmMcAX88+NzrESY7p7SlVVMTU1hYsXL+LDDz/EzMwINA2oVomiKKFar8Pnc0FRdIyMjCCfz+Prr79GtVrlUTGEBczMzOB3v/sdYrEgAOD+/fscQaZxEY2p7HY7ZmZmcO3aNVy+fBmapmFjYwPfffcdsuk0B5REUehJqDkoJqdbLNI2utcRDAYxPj6OS5cu4erVK+jv96DZBMplZtbPsqXavABZlk1+BOBwAHt7ZWxubnI5I7Vobre7Iw+KFr6u6zyrWRAExGIxnD59Gm+//TZGRpjU83nxUYYBeDxAqcSow7dv32bXEQz5PnbsGC5duoRLly5geZkJSB4+fIhcLsdcU1osN4vm7T6fDydOnMCbb76JSCSCjY01xONx6vll07mhxkdPZHGj6zp0wehpP2OF8Kmc6i6xe5myd9Mve41ZrIvG5XKhVqtgZ2cHIyNDCAQC2N1NYnhkEG+88Qb+8Ic/YGJiwlQ3NVAsFrG+vm6qZNqKGQJCAoEAIpGIeTK74HDYEQwOweP5CIaho1gsYG5ujsWsGiJ8Ph/K5TLPQyJyvsfj6TkXt75/RW32fGC7DfoOamMkSeKphS6XiwN6Xq8XR44cwYcffohz586ZyiGAlHoMoWeUVqfTiWBQxOXLlzk49eDBA2xvbyMQYB7UIyMjGBkZQTgc5BsfETho3hwMBrnZgqIo6OvrM11IXdB1YGxsDNPT0xywcblcyGRS3J7XSgFVFIW/L9IKOxwOjsYyIKstIiBnmPHxMYyOjiAQ8EBVgcROksenhsNhhEKBDpJLS2E9ez7fxNraGnZ3d1EqlbibKqHchKNQ20Onc61egdJiyHVsIIrxiVHEBqIwAGSyOc5SY7lNLtTrjFNut9vh83qhqkAyyUwelpeX20w0s5VxOBw4c+YMZBnP0Gbdbjd01ca/B13DoaEhTEwMQdeBgYEBTqaRD1NzEDDxP8EjftFZbK1WQVOp86SIXI6Z7E1PH8Unn3yCmZkZfnLnsgVsb29jYWEBOzs72Nvb53aptVoNfr+f30Sfz8dVQFS6xGIxvPrqq0gmk9jf30elUuowUbcqUOhB7OXhRe+NEMhePZjVkfMwgJHGJkQaCAQCOH/+PK5evYobN24gFouh2WziwYMkVldXma+0+UCG+oKIxWI4fvw4+vvdeOONNzi76d69e3xu3pl2AT6e6aXUIs02WS7ZbICqwmI6QGkbKu+vrfNgQnytOV3W+T6dQOTyQqWvlTVWrzMj+tXVVaytrXGDhFAowA0T7XY7ioUqF+2TVjmZTPI5ePc4sXtTtjpjkteb3S6iWKwiHmcBBrlcjlcslUqFc+D9fj+ajRZUVcPu7i6ePn2KeDzO+33yru7We1tb3BeZenCu9UFlHv/CeNZor+frnuOMedBGcRBoRNGitVoNmt5COBzmtinhcBivv/46Ll48D0VRsL3NEhY2N7aQSCSwtLSERCKBRqPJ5GyWaJK1tTXUalVUKmXIMgOG8vk8AGBgsB+Xr1zC1vYmt1f1+1twu52ciUQsJDYSO9hA0Bq/02s2fxBJwnqN6QEhCWaj0YDf78fk5CQuXLiAixePodkEnj7d4vEt29vbnM7oC3jRFwnh2rVr+M1vfoPJyRjeePM69vaTSOxsMY9lvcXYcoIOQQRECbDZJTicjOtMaCsbg4hotZoQRQFOpx1+vxeyzEpMl8uBQMAHj8fFxzIulwuK0gRApSybROg6o/+qastEXuuoViuc5NNo1Lngg1k5AbValcfe2h0yKtUS9vb2sLi4iDt3fkAmk+Ee5HTt7A7GXKN403q9DlXXINlktDQVdqcDAs+ZMREKwi9EES2TYgpBgNvjQSgchmwD0pkM5p88wX/8x38gkUhw10uy7SHkXhbbft2lUskcQ7ENslqt8PxstpB1fm3ozy8DHcu9Hqg2aqzBEIWfPQ99kZP4MO0mLUBJkkzeMCPXDwz24+LFi9yJMB6PI5VKYe7+Q2SzWZ4yEA6HuasI9U17e3vY2oojHo/D7/djcHCQsXgaVfRFJnD69GksLS3h6dOn2NvZ5TZBJBl8nlik/WcdqqJCPwSV7WXoZr0GBPJYkwUp3e/x48ew2Wwol8tYXFzErVu3cP/+feRyOVaG2UQYACSZIf4TExOYmophfHyQI6Vra2tdZBR2ItOc09ru0OK0Clc8HlbiVipsrun3+xEIBLiLB1uc4Kc4la0s7qbW4YBhNa2n7+f3B7jQhUZMrKdl7VI6nUY+n0exWOT+WJVKBdlsFkq9Dtnphs3m4BsCJTeQa2U3u6u7atKZvpCX+QSKUTbY06dPsbu7C1VV0dfXh2Aw2MFFp8VLM3vKKqOK4yAVFV0DuYuk1X4dnjnF5YO+UPuD9JxSB8LMHgDBzIGiD4OrOAVBtDgZ4IAxU/cYp/21WLZSy+SZyubOxm7+sWPHcOzYMV7qkm1qJptCNpuF1+M3+0YZkmTj7CRS9GQyaZRKzPU/Go3C5XagUmXWrkeOTOH06ZO4ffs29nZ2Ua/VEDSta5oW3q/VHK+npa/5fsQuFZX19ZJZhhoW0YT1dSQQIHqpy+VCo9Hg7oqffvopLx0psJw8vQTRQL5QgG6oKBaLZqpim6hP78M6brE+zOx7OuA0ySS62oIkALIowOWwI+Dzwu10IJcpY319HdvxTTRqVThsMhw2xgVOGzoMTUPTBKxsFj/rlmGgZfbPhqaxmSsAh80Gh82GOoBWS4FqIrwUJiAIApLJfczNzWFubo5XIMPDwzh69Kjp1tlCLldApVpHLlfA1tYWyuUyV7wRiEXlfi92nRWgo/GbNbpVlmUcPXoUQ0NDPDN6fHycU2Gr1Sq++PxLrK6uYn1tDYI59iNc4NDS+SUibTqMBQ46ZXRdx2Hney8E8mVP5V52uvR3Kx2O0SYVhEIhzM7OIhwOmzNlFzdtIyaOy+VCJBKBatq9koGey+U0Pa/ZWIlsWPv8IVNMICAc9mB2dhbHjx/H5soGNK2dhkAMG2vez2HjB0A+cLFY+04ryGK9BpLZp1oN3Or1OkqlEo8OoVONtNp0ajSbTbQaddjdToTDYbOqAGo1jQNZ1Ne2kyTR4d3mNjcPGmtRlUCAoaZpWFlZwTfffIP79+8jHo/zObzX60Umk+G9br1e59eQwCgKAyQVFfXXlUoF+XweWi7Hr9/ExASmp6chCAIWFhbw1Vdf4cGDB2YyITsRZ2dn8f7772NqagKybMd2IoknTxbxxRdf8Pxm2uxYNaH2fIatfGyYGAUBjYrCwuSnp6cxPDwMXWcTgZMnT2JggF1jRQFaLR0OmxPffPMNisUiM0e0SDoJ+2iHynUobA61kOo+kdmT1oNp1PGGjN7jpoMYSX/vIu7+M5ubirzcikT6MDo6CptNQrNZN0cVLShK23SAgIxWq226RuUZGQ8Ui0VUa2XUG1V4PCMdnFuKEV1ZYKmMRJMjFxIqFamPOwi5FsTOqNRe2UHdQFrHzeta3AQyEapMC9FK76PkjaZSh4FpDAz244033sDk5CQUBdjd3UW1WuW6Xdr8aCFrWpt0QkCYVdPrcDh4HlMqlcLDhw/x5ZdfMvN0c2xHpAyic4ZCoQ5QzRoYQFTQYDDInT4oPmZzawuGpiFoRgFNTk4CYKb5jx8/RjKZ4ICh2+3G3l4S5XKRf8++SAiRSD88Hg+i0Sh++uknLC4uolAoPINHWCclVqDRZl4fitTRNA39/f147bXX4PV6oSgKDwhMpUo8btfv9+Odd97h5JH79+8jnU5zkIsCBdliRk+57IsbHJDVD2czUGlrWWh4cT1yr/S6v4fCyefIUvukcDgc8PuCZn6uE7oOVCo15PNF/nBbFwktQDbcV00ihMmYqTFfZyY1s5tGdAq8XjdmZ48h0h/FxsYmqtUqL8esJJXu7KaOm2CIUAX1UON/6nu7HyAeCdPlVkIkBdrkrNI3m82G/v5+TExMIBwOM1wh6EMw5MfRo0fh9/uxsRHH3bt38fDhQ2xtbXWU7u1RmMAf6kqtxrnPVhseEibs7+9jfX0VCwsLSKf3TA50BXa7DFkW8c4775indz+8XjdEUUar1YSq6tB1FboOOBw2OJ1uuFwOOBwuVKtlbGzEsb6+jv/7n5+iXC7D7fagr68PgUAAqqYgm80ik0kx7MMcHSWTSczPL2BwcBj1ehOhUB/Gxsfhdrvx+uuvY3BwkLP1VlZW0Gw2OTB2MPAowWZzmH22aEo2RQSDTsjyJJ96VCo1xOPbWFlZQaFQwNDQEKampnDuzAxr3VwuGIaBW7duIZvJQDIrIKsZv/CcU/i5qLUsi6jXq3A4GR+U/pFlBddMCySdz5ip92U4AM2PTZaTIJp9swBdB0RR7lrknd+c/r3zAyZHGZxZQxdMECTIsg21Wh2SCDRUA81GC9lMHqn9DJqNFsrlMqL9sikZ0yCJNl6Se71uziBzOp2QbSJCoQACAR8MQ0OjYYckiyiWKqhWy0yq5/IwMKVc5QvP6XRCNzRomm7ppxgbS2TbK2BmV+kaoLbUZ+br3RTNnvnKgs57NErJIJkbCQHopLDb7dzv+80338TQkB/VenvTyefzePjgMT79z//GDz/8gFwuhyNHjkBt6ZBEG9t4Wjoq5QZS+xleDhMPmWbazWYTskNGOpeGZJewl95DoVxgeuJgkIFNhSz6B/tx4fULmJmZwbFjMzClu7x8b7V0ACJMAxRUqyo8HrYxzs+v4fO/fIHxkXEsLS2jVq6hWWtAVRRoSguC0YIIHSJ0eAI+0xZHRL1Sx8LjJWysxtHSNEwdmcSvfv0+bly/hGDQj9XVZdN6SEW93rKAWA7YbOz90ew9EGAjsUKhiHy+gHy+AECAzyeas/YWEokdJBIJzM3NceArlUphaGgI169fh9Jo4uzZk7h27Rri8TiePn2KnZ0dDsRKkoRkMonZ2VHeg7tcLh5krpvrTlUV6HrL4ppDrRllkIuQIehdJ7H+Qv3w/7T5XqfQv502UCqx/qnRMFAqlVGpVLlgIpPJYHNz06LV1VGvNXl5TQT1ep2poOhEsttlSJIDBthAfn19FQ8ePMD+/j4KhQJXqRCji74eI9EIPYkejGZp6yjZrHY5B3Gtrb9aequjCqCFTBUHOWiSKUCxWEQqlUKhUEB/v59Hz5KRvZWEI4oi9vb2uC6W8pesaQiybOMlNhE58vk8UqkUMpkMJifHMTg4iGi0D4l4BeVCDhAE9MWiGBjo51zmcrmEVqtNHyXwiFEiA1xdJIpuPuJiGmsVhi6g2VKwtbWFBw8e4OjRSQQCAVy6dBHffvstO2x0A0emp3Hu3DnY7U7cvzeH+w8f4I///E/IZDJQWoDdIfESmDZAYnFZ2wvrfa5VG4wdJogoFsp4Mr+IULAPbrcbhUIBDx484Cklu7u73MEmtZ9BJpNBOBjC+Pg4+vsDmJ6exujoKJ4+fYpquWxSgR38/loBNYMMHmTRIi1t674VRe2wb+Y98rOLSLM4VeAZV80XeQhfhiRykIrKCixRL5jP57Gzs8NBC0Ieo9Eo+vv7sbW1BaWpwul0odkss/LLUDn5gQgJbrcbqqbwPtzhYGqbbDaLzc0tPHnyBFtbW2yEoGs8otQqXLCa4vXSdIuCvWO+buVMd1/DXqWdLrTtcK1ZxtbMITqtiSZ58+ZNlMtlHDlyBANDMcRiMUxMjCMS8eLo0aOYmZnB9vY2FEVhggK1ZTpNkKcWOKnCMAw06nUoHg+fDEDXUCgUUCwWEQ5HcP78RaTTady8eROlUgl9fX2YmprA+Pg4lpaWEI9vm75ebZM/YnYBMEkWdt5X06yfAr/pvS4vL+Mvf/kLdndfgdNlx8zMLBRFQTKZRLOpYGZmBpOTkzwZErqKRCKBdDqNer0Bj2kHRTJOq184fRCbke5Bs9nkCzyTyeDrr7/G1tYWB8ru3LnDR5/8mBRFMz2jhKdPn5qldgBDQ0OIRCJMJlsu8ftJP4dV+y6ZgK0kGHxx0xSDngGXS+Bzc1GUutIYhV4w/P+bE/kgsgkBLVYx+M7ODrLZLMbGxnjZHQwG0d/fD5vNhkwmg3g8jmiU6ZJ9fg/C4TDX0cqyjGg0CkE04PX6YRgCNA1oKSqy2Szi8Ti2thLIpLMMSHG5+ejACo5YE/969cJqC89E5nTTV7sBIOu1JbMDkgfS7k0WQ51e00A2m8W3336LR48eIRgM4u1338L4+DiuXLmCc+dmcfbsDEqld7lvdLFYBExiP7vGgMsFxGIxjAyP4Yl3Ho1axRSrePl9IfsaUgN5PGyks7Ozg0AgAJ/PA1GU8emn/21KKlVIsgCX0wObXUKz0UKlWoJNdsDjdcHnDTDfNZsTTaWO5M4eksldlItV2OwSBNGJVCplEl42MDo6CtkmYmxsDH19fTAMIOAPYX9/Hzs7jIZpdzJqJ6mXCLCiTY+RM5zcuoeyoa2eXoYh8Hl6LpdDLpfDo0eP+MSConzJese6STWVOlS1xe+z1SBBlG2ccssANCAYDGJ0dBT9/f3Y29tDuVxGfyTM9dRutxt9fX1c8EOnOGE1z57IQudpaKVo/tIumd2ulb3M7SRJaqcPut0olUrY3d1HPL6NoaEhVCoVFItF9Lq1QboAACAASURBVPX1YXp6GvF4HLdv3zbN2B3wevwIBH3mzSqZPFY2UpmZPYqxsTEOdKVSKSw/XcHCExZlwnKKvAiFQnzRWv20rWOZnlxrUe9Ao7vN/bpPY+spbRgGJLsECDocThs/1ayeziSzJAIHuaAUijkUijncuiUhGAxif38fgvB7XLgwg+PHj+PIkSO4f/8+stkslzUy37Mq3G4PxsfHcfHiRWxvbeJhq4ViPocdU+4YjQ3g5MmTeO211xCLhSGKQD4/jqmpKX59qtUq9vbiWFx4yrjNjQYgivB4vBBFAY1GE61mnWEhkohgMIRIpA82mx3FYgHZbA6NWg1uFwtSdzgcqNfLyOdzqNfL7AQUdFy/fh0ulxs2mRFBtrYS2NpKIJfNd5gOkqqJlGNEPhGEllmRmW4yqgrBHMfRAjWgcaO/VrPZPnkB+MNhOBysybfZJfh8XhaSV2nx62olvND10U2MY3NzE5ubmzhy5AjGxsZw/fp1bG1t4csvv0QmtQ9JMFAoFOBwOHDixAlcuHABw8PDZuxODdlslruPyodRKtkJZBzIPPqlTuWDoHaa25ITI41e9vb2MD8/j1dffaVDpxuLxXD27FlT/7mP/f19JNU97CS3TRM6J6ampjA0NIShoUFMTR5BMMTI7alUBsvLq5ibm8Pi4iKy6TScDh8ikQgP4LJaqbZaLW5V22sxMzYRmdA/W1o/r6w2oAESYFPbpvykH6bRDp0iROX0eDyIxWK8x11eXoZhGMhmswiFQhgYGIDL5UJ/fz/XwBL+sLOzgydPnsBuP4OBgQHcuHEDyZ1t1Ot1PHgwh1aT0UMvXbqEX3/4AW7cuAFBABKJNB4/foylpSVsbW3xXn1vL2VuXjJku4OLFNgc1ejgm7Oy2m2KNESTXhqCpmict22z2SDbJAwM9MPn86BSLWFxcZEtItlhUm2LqFbL0HQVutrqsGnq9mxnH2zmHQh4EYlEeOpIq8VAU6sDqMfjQWR8HC6XC8ViEel0mruiWE0Rc7kclFoNgb4+lrpBslWzNGaqLJaIcefOHbjdboRCIVy4cAFXrlxBoVBAPp/H7du3sb/PJgHj40fx7rvv4oMPPsDk5CSKxSI2NzexsbHB5u2a1h2rih7jkWfBmsOE8b/EYqbvT6g1gUp+vx8Ouwt7e3t4+PAhjh6dhizLiESiaDYVbvFy9uxZ6LqBpSdLyGazfCFFo1G8MsPIHqNjI5BlASKAdCqNpwtPcf/efTyae4T95D4k0YaBgQEMD4/w3tnqTkI+UIcRQkRRgCFZI1PbKRS6bmlhLP9t/y7CEA1eOhM6DQATExN49dVXEQgEkE6nsbq6yskY1l6vUa1ClGXomoaWokBpNuGw2yGJImyyDJdZUeSyWdy5fRuaqqJSLuPkyZMYHmIJjNSKMHR1Bh999BGuX7+OocEQEjuslP/v//4z5ubmkM9neWXRamnwuP1wuTzw+23/P3dv2tzGdaYNX91o7DsIEtxXmRIlUdZKSbYVWd4d+5mZZJLyzPvOl6n5I8/PmI+p532mKlWZycwksSPHjiVZkrWLEiWRIkWCO0hiJ/al0f1+OH0fHECgSNlOJg5cLFNcQKD7nHNv18JrYSJ/0GN7exs2mwMejw9msxmZTA52e4UpcORLhuZ1ASaThLGxMZw/fw5dXSGk02n8+j//HWtraygWykbKaeI9BYBRD9v8ATjtDpgkGWq1imqlAq3GLD5cTidGhoYxPn4E/f39CAQCvAm4vLyMK1euoFwswSTJGB4cwoULFzAyMoJYLIa5uTn85je/QblY4uykWq0GaDWYrTZ0d3Yh1N4Oh82GSgnIpNPIZ7NQaQ3JMpYXF3HZaONLuo6zZ8/g7QsXUCmV0N/bi8uXv4LVasVrr72GCxcuYP/+/SgUCpiamsKDBw8wPz+PeDxOG1lv6FY3MmFkZkvRIq3+PlLs3VJ1sa4RvXvS6TSWlpZw8eJFvPHGGxgaGkIyyVwWJUkyVDO60d/Tz31yCafb19cHt9uNmqrB5TKhVALi8SQWFhYwMzODhYVFZDLMKKyzsxOhUAi6rnNJWJrZUrq0EymCsWcaFSKbx08vIowAgKRIghdyGfl8HsFgEOPj4/joo49w/PhxLCws4A9/+AM+++wzzM3NcUWMQqEAi6FCMTY2htHRUQSDQd5TIO1v6kQvLsxz10O73Y6DBw/ixIkTqFQqHNO+f/8oJiYmEAqFkMnUsL6+jkePHuHBgwdYWVkxCBWyQetzoVQsA5A56ENUlGTjzSJ/frrHxEQjCmMiEUOpXITNasXQ0BDeffd9jI8fQibDQB1//OoLPJicQiazzUkqfn8Q/f296O/vRUdHBxwOM0qluiwO1ZaEBnv33XcxMTGBvr4gNA2YmQljamoK9+7d4w23oaEhvP322zhz5gy2trZw//596LqO+/fvc8w6+TYxXDvL/JivdJF7VefzeQDsb2cyGSwtLeHSpUsIhULYt28f+vqC+NGPfoT29naEQsyb69ChQxgdHYWu65iZmcGlS5dw69YtbsWj6xoUuriVSgU2m4vLudBIQJPQoDDYSvZmJ5QXAQhE9lEzyqm5LhSbQ6qqwelkNVI8Hsfc3By6urowNDSEcDgMAAiFuvDKK69g37593KlQ14H+/gH0dvWis7MTuVyONz2YoXbNgDx6oChAPp/HysoalpZWsLYWQalURl9fH3p7eyFJJsTjcaRSKZ5uEaNGbDo1UxjZ+9ZfKA3U3PBqRoGVCiUu1ka+VrTxKK0/fHiUd+x/85vf4PHjx5wlNTo6iv379+PChQs4d+4cXC4ZDx6sYGVlBcViEWtrawgEAnC5XEhVKlheDON3v/sdzGYz3G43zpwZx49+9COMjo5ie3sbwWAQPT3tKBSqCIfD+OzTi/jiD39EOByGotRVLKmpyIA4Vl4WkGQNpbckPURry+FwwO12o1gsMhRdVeVKky4Xcx6k73V3+/HTn/4UAwMDuDJ8BdPT08hkcnA4HBgaGsLAwAA++OgDvPrqq5AkYHl5GRsbG5w8oxqdeqfTifHxcQwOBpHJaDCZZAwMDCCTyWBiYgKfffYZYlubiEQiWFhYwOjoKPr7u+DzvQWz2Yzu7m5cu3YN0WgUHo8Hw8PDOHjwIAYHB3HmzBm43S5sbTEOQDQa5fxrQiEmk0mEw2F8+umnAIC33noL+/fvx0cfvY+hoQFYLAo6Ozvh9bowOTmF//N/foEvv/wS1WoVfr8fPp+HUU+5LQgI+NE075TwnPvCdxXc2ysQnKIWIbT47E9hWNlwOMygeG0Mf+33+3H48GG0tbXB4/FgdnaWzz0LhQJcLhd6e3sRDAaMiAqEw+u4fesO7t27h6WlJZhMJvT29mKgfxDZbJ7THLPZLCdf1E3G5O/8Xpuhqo2AGbmhw03ql1NTU/j3f/93/OM//iP6+/vR0eHHW2+9hVAoZNA3mdrk4OAgenp6MDQ0BJfLhoWFDdy8eROTk5MIh8M8uyCFyWw2i3Q6jSdPnhg1o4z29nYEg0F0dXXBbJaQy1UwNfUQ9+7dw+3btxGNRrn5OF0OdvAAssRM0UWJWcpimu1DRc8t+nmrYf2i64z/PTs7i0uXLsFms+Do0aM4fPggOjo6MDY2hvX1dWxvZ2EymbhwxPArTP5obm4JV69exb1797iumGyMcoidVCqBg0EUxcSVRCj7evbsGX7/+9+jWq3i/PnzfBrQ1dWFw4cPI5fLwePxoLe3F319fWhra0Mhl8Xq6hru3r2LGzduYG1tjWc8NAYjJtjKygquXLnCezGHDx/E4cMHoKqstHz0aBqXLl3Cw4eM4Ufday5o/7zuMkE2jUgqoaFJs1e9673asrYSLBc3MjVyrFY7n5uqVQV2mxOZTAbz8/OQZSAejxvKmZ0cs0siZnQKBoNBDA0Noa2tDbIs4ze/+QKTk5P44osv8ODBfVTVCjpDXRjoH0RHRwcikU1UKhXurytmGSLw/UU+0nvdyM2qKXVNbM1oDgFOpx3ZrIrZ2RlEo5twOu04duwYTp06hd7eIHp6zqNSqc8eg0EfR1TNz2/h66+/xuXLlzE/P88jG433KPLRQRGPM3TXmTNn8MYbr8Htlgzu8yw+//xzfPXVVwiHw0zswOfmtqfUQ1CrGkdxkTA72zAl/jcJry4S+Elmp1KpwG6xcnYbIZ6uXr3Ks5J3333XyBKCUNWTKBbrozqzWYKkAEtLG7h69SouXryIhw8fNTDE6PUwOSEypJOhqmz9ZTLbUBQTJJMJiUQcly9fQjKZAKDjvffeQ19fHw4fPoQDB/ZzyVubzQSTiWHW5+ciePLkCX7/+9/j2rVrSKdTsNsd/OAUZ+eJRAI3btxAKpUywCFFvPMOE4JYWFjA559/josXL2JmZoazuBpw4Q67738Hg+1oCwRhtzM1jWw2h7JhrKWhUZm/WVup1ShpJ52mVpu8VYQX03D6G+zmCJrNug6fn0nVbG5uIBKJIJlMcubM5uYmtBqb9RIP1WZjyvxLS0t48OAB/vVf/xWXL1/G3NwcapoGv8+Pvr4++P1+pjiSTHG5VQLmk+WKKL/6IpbKXlLr1o0/DTXBwA4AR/IUi0Wkk0lUDHQXmydbYLXaYbcrMJsVSJKMdDqHWCyD6el5fP3117h06RKmpqaQTqehKArDLhuIItFvOJPJYCMSQcaoD+12G0olDTMzs7hy5Qq+/PJL3L1zhy9el9vJjdXo3lUqVeg6UK2q3KStYMjKEmachOV0XYff74fH4+H3j4E6WG/C7WbSRg4nMzZfW1tDIpGEJAHZbA6aJqNaraFarfB+QiaTw9TjGdy9exeXLl3CvXv3kEqleQlgs9mwubkFv9+P3t4+OJ0uQ0Y3x0kZFy9eRCqV4uVCPptBLJ7g2YXP5+MpMpUT+XwJkUgUCwuLuHzpEm7fvo1bt24hElkHIPHfKRaLPKujcVexWEA2y/D/qVQSui7j2bM53LhxA3/4wx8wNTWFUqkEt9vNpYkJ4ae0Mip7GcDHTlzO3Zwcd9LTFj+o2UUbWVGYemY+z7CoZovbkAMqYWFh0QDOP4bX64XVakV/Tz8G+wfQ3t6OcrlsgO3jWF9fx8bGBp49e4ZipQiP08NB9W63G2qlhlgshnwhz2mQoi3pTsLkz6utiBu1+Xqw7KeuHgqOV2fXR25w4SPfJmJg5RUFT58+RalUQiKRwL179xAKhRAIBPi8OZ/Jc67y4uIilpeXkUmlgZoGRZJhMSkoF1jDCYZWs9Nmh6TpKBaLePqUmZSzzeRGIhHDwsIC5ucXACPykb6y2D+QJAmlYgU2m51HY7b4KfoqRp+Cqa3UxR41499sRFUqFZAvZGC3W+Hzsa726soawuEw0uk0ksmk0ZBsN6J2XSGkWCxiaWmJd5jjW1Hm42xEedQ0QKth4dkzfPbb32F2eoZDSuPxOBYXF7G2soJ8Ps8ZX5qqolDI4+7t24hHo1gKh9HR0YFAINBgpEc000cPWWaTjCdgt7JGmN1QZq2UmJJIrcoOa5fDCbOJbeil8CJSiTjW1tZgNpuwubmJ2dlZlMtlXl9nMpkGAwFFNqh2ktyIMKKIAwnPRZ69ortabehmjavdZINEXSxSyiA+azweh9PJUFssRcpjc3MT6+vrUFUV4dkFtLe3w+VycUUJOvGqtSrcTjfnMweDQe6hVCwWkc/nUSwVuZIDoaoITPAibetvK/Df/HXRHoUOD6qtHA4H36SsgccOPkqXVVWFw+rgqSM15qjUoKhCzR/qGJMai9/vx9LqCsLhMLa2tozmZ4Gjn1weL2TD0kZ8fsqYSP2ymTcrQlRbiTOKX3M6nYgn4g22rLSQS6USbt68aSDSZC4cQfpe9DrFJqHTqTRQNB0ONov/+uuvce3aNa4bRppsVO9ToKPyI5fLYXZ2FrOzszwa0/tuUAKt1uV1PR4PB+2IPt2U3pPZHq3taDSKpZVl2O1WDmIh6KxoQyts5Oe5sqLPMFGsdk4fd7c92as1a/MHcWzFWpk2lclkQqlc4EICDEdbdxbM55m1TCaT4Raeqs4utMPK+KKBQJBfwEpFRamUE2q25w8w0aOIUqmXoZ21krndSRqWaWfLDT8ruibKsswPn3K5jHQ6zefIBFixmW0cD0AjIcKtq6pqjELAJxXFYpEbp5NoPSHeVFWFySRxlwWWLTH8erXMsibFLPNGoOhWWYem6lxQoFZTUavJzMPDINeTZhWgw2Ri69LpcPLFm8/nDcgs+1q5UjIO3Szv77D7UwMkCVaLnWP0RV8sus4kzZPN5JAv5AxwiYVjsq02a4PVjKIo8Hg8fIRFh0R93Fjj69RsNkORTXytEKyTykJ6XWLQJOAKux4mA7dQ3/QEVqHsrAE8xRUKYHr+tDTJkPfQwNppE7+o4fWi74nic1S30WlHM0hy36M6i0AjDocNNpsDFosNqGko5guc/E2LkGpdu93JO6e5XI5LsYpugyIHV/SvtdvtDcieb4N028kQW9jqRreaeMNmVColqKoGRWF8WcbesRlYcDMUhXldq6oKq2JuOCAIsigyy7gaiUDGILRYIBBAOp3mKTOlrnQtrFabYWlaYWJxkmRsUh2KySJwqC0GGIasdol4ovEyghBQBOaQZWbnKuIJWP8my9dCMBjkzStZBj/odL3GATt04NKclw4xitoOhwM+n69B1ZPglaVykaOzaANRo47WIdW51LRikkqqYcNa53HXR5J1gQWRcUaZZt2fyoyenh6j1GDiA5VKhWuNUXbAI7LNbkFFraJcrUCplJHJ5qHWNOjPjVbqULNmyU6q9UjfS9cBWTY9lzqJTawXpaK00CwWBcVi3th4LuMiVXjqmM8XkUexbvGhqigWUzArVtgdVpjMEgcelMtlWGxWdPf2oK2tDYqiMEO3rQgSiQRHMBG+vFwtQZe0BidGsRwg0EKrzjOfn0NIJ1schjVNgy78x50mjA9VZZKydpsNuXwG6VQGNrsFAX+QeSXBZEQRMwKBIGqqMUrUWam0tbUFm83GpYSpZLBYLPXOvtXCDrB0ClarFYFAAGZj7LO+vg6LxcLFBxkMsQagxlNf1kGVoet1S1WCZqpqDYpiNjrXVc4nZ8tCgtPp5vP2apWEBmwwmxlZxGY0c0jcgETtiIsdjyV4mWBSZGP+bTUiYwWA3KBESmqalFo7nW52cGuNUE6OfajpKOSLwjrXUJPZmrBZGdzUajFM1Ktsw7oMvyxJklCpliErJugAiuVSQ7tE1WpQLGYoqEsmazA8tSUJqlaDWqwZiq06d8C02xnzqlAoweks1wU0WpmHkXKmTmgQScP38XjZiNXKwkYEmBD2mGoOdlLqqJQNrxyLwlNJ0fCbbn4sFuPsEtFSVDw1v03a/H3N1i1mG3SNpWMmQ1oVusxTOzr5RU6rSBLw+tx8YVIUohSdAe9TDTNNmpnShidWlOisITZHWce73jlnH4qxoatGT4FtfBbNKLpIMJuthpNgzUgvdaMWrHHKqcWk8J4FwSCp6UiYZ0pnazUJNVXjVD+m6qGB94AkqcHQfrdR4F7uYfNzaU2KLt8GT/D81yUjQMpo1Ziuy+FqUkOqJb4QvUnZ4/teqC+qr8UILtpfiql/e3s7otEoUskkJIM0IIq7tflDPDUn8DvVWaSaIeonN0v57Fbjf1cpo71cn4IhtyMCNyjT8Xq9DVK51AShzSx68dJBRQ4ZNM4S6zKRpknNRVEIQQSm0IISkYDN40aS8xUbQXRPxX9TTWmz2eB0OvlMWpGAfCEHSQYkGTApMmSThKpaQS6fhcvtbPDCqtVqUGtVmGUzFJPZmAKIDDupwbNa3CytgDmSXF//gG7IXmtGdiUbnzcGGk2XIGnSc97Tu62f3UzTd1L45BtZnAdTTVPf8XpLkbxvi9Z6kb7XThFZ5HKKPExd1zlQw2TUrGTxSWMAkqZhFL1tqDUVToeTC5/RwqYxCqXMFJH32tz7Uxxy9BCbI/Rvip60YcWeAh14VAtSl50M4Wk0xSiaDt5IbM6A6qbx9S6vKG4gfhCpg56nufYW5+Y7eTnTIUTKIbIMyMYhI5q6U3OvXC5xL2ax616vM2t8tFef18stZ/c7TU5e1PsQ+ybNMGPx+99WmPJFCrOtI3ITJJDfHEmBqle+U/q41zRmp0YZNVCaSQa00TKZDGw2G0dqFQoFpFIpPqqQdJk3pmhMUq1WEY1FAejwuL28+UUdQTF130uDbycp4e8ltbYqqKpUt9dQrhS5valiNkZTWl2thA47trhNPO0WDwNS46BFT5GQOqrUK2CjkTynETIHBELc6SC3jTpktT4eowOHyZfpfKZuMkmwWs3Gh9Uoc2SjTGAsJzbiYt13vVbnFFOjiVJruv+iNFHzGIt9TSyRXiyM0YwwbDUeFXsl4mj0ZQzuxUD1bZGSO25kkTMrC56232dq/bLzVRKwF7vFYsrd1tbGI1Umk+FE+aGhIezbtw9j+1/h8zuStonFYlhaWsLq6irW1tYMgEmeK21Sl7G5Lmyl6vGnqo1FjqtolEcdTopMzdpmtJlp5kzNMlroxEwikz6alVJUzmQyXADO7/c3eFc1qzzquo5kMslTZxqJ1KWIWUZEkZpekzgOo1qd5vOitJPVakWlVORlkohzJ4QbNdbodVFZJa6Rejdd3/XwfU4SWtp5ItHctBVTdrE0fFkGoPh5c1P4RQHyuYgs72BT8W1Sa5mEtDUdkqYb/9YhS+x7aE5fBXtkktRWqP4yPldkGRK5xOs68oaDgMvlwoHRURw+fBgnT57E/v37EQwG+M2ltC2XyyESiSASieDy5cvccoYaP2wsZef15V5IIn+q1JpGRbTZCJ9MY4+trS0eoUQ9LDHNpbqfxmuqWmcUmUwm3uyjJhGJ3cfjcYRC7S0Xm5ix0LUSn5/SX1GmSQTU0MFhtVp5ZCNghfgzDmOOK36deh2iTK/oa0x/R9drLaKdtOPGaGausY3aWn6qmbnXCt34MjTe5jS+GRDUbEnUysGz0Y1Rl/lM7/viG+/lTbwI4dSqRhDrR8K8vvbaa/j4449x+vRpBIN+SBKQSKS4QwDpTg0PD+PAgQMol8s4deoUrly5gk8//RRzc3O8tiRZHXFO/LJc6u/j0ewEKc5FM5mMQe9zoaenB52dnVxXizYzRcl8Po+FhQVsbW3xTcTcC/18HNPX14eBgQEATMQ+FovxA0HcKFTTqqqKo0ePoru7G2azGYuLi1hYWOCOEiaTCWNjY/B6vXyT0iFRLBYBAIFAgANwCIJZLpexsbHBMgOrhb9n+n2K0JRSk80rAVvqzTcJmsZ0qOvrUHqpcmkv5VRzRvsy5KLd1tFezP/4RlZVFZLxZqnR0Nz0gaS1zP/raa/WcjykSMoLoxWljnXFfblBikUzXkdHRwcAIBwOQ9M0vgCy2Sw8Hg8+/vhj/OQnP8HExDFIEnDlyg0Dm1qEx+NpAON3dXVhYmICQ0M9BmC+F0ePHsUvf/lLXL58mZMIyuUyR/4Q4kmMRiKD5dum2mIK1iqloshL5Hun08nHRoVCAdBqnG88ODiIUCjEZ77VapWjkFZWVnDr1i1cu3YN8/Pzhui7g9NCq9UqhoeH8Xd/93fw+/148OABfvvb32JxcYHpdLW3c4cEk8nEpYMOHDiATz75BGazGVevXsUvfvELzvs+cOAA9u/fj3fffbfBN5nKIDLHo0ZctVrF7OwskskkZmdnkd1Ow2Yxw+m0A9BQqZSMjV4EeYMxE3MzzGaTkLmokCRTA+FmJ2Yas6xBS45B/b7oBrqR7lk9dSRxSl2H0PnWuH43sDvNtVXzqhWVtfn1ixOmBhpj48n1ckilnVKPVi96rw0BgihSLUXpH8HiMpkMOjo68C//8i/45JNP4PV6sbDArEKXlpg7RFsbY9SQTy/pGjOOMfNFtlgYtzWdTiMej+Pu3buIx+Pw+XwcokgHDi1EmuO+DB/522ieidA9AFxAHQA8Hg9GRkbw1ltvcUodQ6/JhtEA8y02mYABw3GButyRSIR3riVJQjAYxKFDh3D27FkunL66uorFxYWGg4QOCKIWnjhxAkeOHOFSvD6fj4/0NE3D8ePHMTExgVde6UO5DL4hisUKP7ApklL2sLq6ipmZGaQSMRQINtmEsmsGGu2E2f9OD6nRLul/6vEiu+KmGrl1DShJJuhG11rEW7/Mk+82XG+2FW2+AdSlJOgkibeRv84bb7yBH//4x+jqCmFrK8YYS/k8QqEQvF4vEokYT7uoZiOTMFVVsbGxgc7OThw4MII333wTS0tLmJ+fx7YhI0M1nqhRJmpLfz8wzBdtZPJ3MnFUEpUSvb29OHfuHM6ePY2DBw9AUUzY3s4gFsvzzWa12tHR0Y7OTgfOnTvH38vVq1extLSEdDrN7XAoO/H7Tejp6cHIyAja29sRj8eQzWZ42looVCBJgNfrQW9vD7q6AiiVNLjdLlitFgMjzSKVz+eFz+eFogDpdNEwFihxGCwdsg6HHT6fgiNHxpFOpxCPxyDLEhKxLaRSKU4EoXpYNCrfqWm1l0bTX/rj+dp452xPaVVIA3JLd8BWDbCd/ij1Flohx1rakOqtNbVFzLXdbudMnPHxcfzzP/8zXC4XLl/+GoVCgY+gFEXBysoKNjbWeb1I+FQiVBDoIJVKIZHI8Dp7aWkJ165d45YptIjId5kaTtQVftko/LLINmoGkZKFyWRCf38/Xn/9dXz44Yc4ePAgdF3H1BTTzlpdXUUul4OmafB4fNi3bx9Onz6NAwf6cP78WZhMJuTzeU61ow44HRgAM7E7efI4pqcf4/79e1hdZWqaPp+Pd5/rChUQzPbUBl0zOjiKReDBgweYnJzE+vo6NwYnhdLBwUEcOnQIw8PDOH78OGRZxsjICD797X/j/v37vNSh2lzk8IprabdS54e6mXdSkHluIz8fjZs3GxrycU1rTWdsTpt16i4LH1RN3p5aXAAAIABJREFUyAZyjFcXxs9C+F6tWkVNkmE1s2ZHPp9HLB5Fb1cv3n/3PQwNDOLJkyd48uQJr+Omp6ehaRo2NjagWEwN6en29jYikQjW19fR39+P8+fPAwBisRgA4PDhw/jZz36GYrGI3/3ud1ygzev18q6szWbj4JFvk1Y3zsn3XrpQk8rpdOKVV17B+fPnceLECciyjJmZGfzud7/D9evXsb6+zhtYdrsT/f39WF5exk9+8hMcPcr0pA4ePIj5+Xm+oQg4Ui5X4XKZ0dbmwYkTJ7C5uYlaTUU0GkU+m0HeqNkJa8CaWniut0GHD0XxUqmCZ8+e4dKlS9x9QXR27OzsxIkTJ/Dhhx/i1KlTOHnyJDo6OrAUnmeiD8bzEkyTuL+iid5f4+P5rvYLml07oUsaXQDrCpYiXnfXZs4OXbZWQnU7HSbUOS0UCojH4wCAkydP8g23uroKj8eD9vZ2rKysYHl5mae/xWLRcD5w8yYLqSKSWojT6TQM4iSMjg7j9OnTmJqawmeffcbNtIg1JWKaSUpor5v42yiQiteZoo/VakUoFML+/fvhdCrY2EhicnIS169fx4MHDzjuGWDqoPF4nLNsYrHzkCSJs4pUVUXN2MREE1QUphpis9kwMTGBTGYbKysrePz4MY+6IiJLVcF/n2CSYsQk7WpmxcPm95qqwmZwcZPJJCKRiGFBE0B/fz+6u7u5DrdoCyQ6btAUohkp2Fg3/3VE4z2n1q1+UeymyXIduilisqlZsVNqrUPfU3TaqZYmFg6B5l0uF44fP46PPvoIg4MdWFjYgMPh4Or7JLhOoAG7yYZgMMjhjIFAgMvbJJNJ3LlzBxMTE1y/qVCowO+3YHx8HCdPnsTMzAynjjHanrWhTvs2Da6XmsMLTJxWvQOzmdX+yWQS6XSa153kgLG9zQQDnz17hkqlgunpacPHN4pYLAa/388bVzQPLhQKBmHCglAohImJCaYdXSxic3OTyx5Rql8s1viMvmJoRoteSg6HCSaTnae+ZrMZdo+HUxBp+hCLxbipHL1f0VieeM7U+GqEY+otsch/BWXyc/2onVNrqbFNzlQz9QawuTgeagVJa7kIAeiSVrdebnB7NBn/l/j/mdSLbPxbNiB9Zp6mud1u7Nu3Dx988AGOHDmC9fUUNjY2OKd0dXUV0WiU6SkbOlBdnV3cZiaXyyEYDMLn8yEWi2FlhRm1HTt2DF1dXchkMigWi2hrs2BkZATnzp1DPB5HtVrl1hzE+CEI6LftWL/wxrXobIuNG+ILM2AE+EFH81iRrE5+wIVCAXNzc1heXuaiALIsw+Vy8agvptipVApWK5N6HRgaxJEjRzD7jGlmp1JJ4y4afGaTQbChfoiEJvhifeZPdS7BZkkalzIbAnTQ3FjsbBMWG4Dg4NA6zayXhuJ6+uvY1DtG5JrKUrZSpQKbQ4fL5UJmO8dBA1azkVJrTFfJZDLBZLagCgm6Sq72GmRJgol3dHV+E5nPqw4NNeiSBEjG55pudMbZBpZNEGw9mAqhzWFHLBFHuVzGwMAA/vH//X9w9uxZ5PN5zM0/Y66CahVf/PFLOJ1OZHJZPmcmDi5ZapCVSrVaRXd3N28gra6uIhgM8rGUqgIdHR04e/Ystra28B//8R9wuVwwm818/koNl1bKHiLRgBMGhFKDLfr6UJItfmFRyhJDrkmS4Y1bhSwrcDhcKBbLKJerqFRUWCw2mM2A2WyFLCvQNKBUKBmi8AB0DWarxZCvMUzccxlUKuxAKhcLCATbsZ2Ko729DQ6HDYoiw+drQzIZx9TUDGq6hs7ubhw9fhzhlRWsrq4hsraGaq0GyCZk83lU1BpkRYHd6UKxXAZMCmRFQUVVjWvFXg4Zv1G2kEwm+cYkCGqhUECxWIQsM66z3+/n9XAmk4HX60U+n0cikYDFYmkQSRAZQWIJwIKG3DI7qjcr9RecqHJLdFgjUkx83t2nNi/6dzPIpG4oV6eiSpLUAFlVVZUJ1CsWm4GcMaFaLaBQKiJXyKNWLqFidDVFp3pAb2C6QJcb8LSknST0XxvYVI3RGA1RmA3TGXslm80aI48C3G43Dh06hGq1iitXrqBYLMLv9/PFQU4SBOljdVmJuyYSWstqtcLlchk1Y4w7ONQ7roDXa0YwGORRKpfL8QaXSPnbrWv9sg9NMq6K1LggmicHzQACgkX2Dw5i3759HEBTrZY5BZJcCcS6lDaS1WrlyozU/JuZfYpoPIY333oLvb29eP3117G8vIzw0hKKBj4dtMCoW2wMijUANaFBIwna6KIcjqi4IUoIMfVNRjklwEoymeRzdFLTaJ6mNJsC1keressZ/ndFeL1MRvanfC5JkqAQ6Z7YKMRfrVarsBi1Dm1kGlNQFxuSkfrUZINZUyc1kNj3TvK3L6II0mlEahblchl2ux2HDo0iFktjdXUVtVoNHR0d2L9/P/r7+7GwsPDcaWsySfzwESmQjNBeV3wUJW4kCYYucQ25XK5BvEDcQM0R+WXS671C+Jqhf62w8NQIrNVqGBgYwN/8zd9gYmICTqcT6XSS461VVcX29jbW19dx//593Lt3D7OzswAYY8npdMLtNiGfZ8oijx49QiqVgsfnw/DwMM6ePY1oNIqnT5/i8ePHKBaLHEJKkULso4i1K2NBSQ2URfH36HpSBkOEC/oeuVJks1m+ViljpHJiLxj45g3/53y0AkO9TJ+lldun+LlCHVi64XRCWq1WaLUqr8vExoIksYtrs1uaRNbklh7AuzW8mmdl9HcoigIM9B+NMo3hwcFBphLpYCJ6oVCIb3rC+jLRdSfPEoieR4D+YpHpMfn9fnR0dPB5c60GZDI1zMzMIBKJcPBBsxKH2OjbCXq5myTwXubIuz0vaVnRwg8EAhgeHobPZ0Gt1gdVBRQFsFqZWPzSUhSVSgVra2uYn59nEZQLwAGKIvEIeP/+fewbHcWBAwdw6tQ4XnvtNTx9+pR37cm2hg66BocS7gf8/AhNZHSJNbpID7RarfB6Gc2U6n/RqF7MiETv4UanFH3HjfTnmDU3/52X/butRpViNtEgvkfk+2blBrPZjGQmjZIRjdnpqfG8nKWytoZUU5eZnIpJNjazJvPUhlQSjSkyCMBe13UmKRaWEmka4PW6uYfQ8vIyfvGLX2D//v3o7u6G3W7H2toabt68iZ6eHrjdbgwOsrlyLpdDZ2dnA7WMZF5tNhtyuRwsFgu8Xi86OzvR3h5EKpU2Tv0qFhcXcf/+fayvr3PFCooeImmguUbey7iJWfS8/PihWeWUkQfqjaVSqcS9ocnYu7OTHVAejwf79u1DZ6cL3d0dCIVC3HeYoJ/b29solwGzmXWxHQ4HKoUCJicncfHiRfh8PoyN9eHjjz9GuVzG4uIi3G43Hy8RmqzZJYTOO964EjYrBQxyTqC5ststw+HwcmopNcFoUkIoPTEjaL0J/ufnT83R92U2cyvf7Z2CA0+tAabqR6MWr9eLiVMnGnSkdb1uk6KqKra2NrC5uYmNjQ2oqgqvzw2v18sJGDazbccXshM9UIz+pN1rsViwubmJf/u3f8Po6Cjee+89HDlyBIlEAouLi8jlcjh9+jSGhoa4g15vby8nfog2JLquc53jnp4eYzwFLpWzsrKChw8fYnaWmXS3t7fD7/cjGo3ybriIumqVuu2mIvpdxhCiygZlUYRDXl1dxe9//3t88803KBQKGBzsR7VaRU9PD9555x2899578HgcnCHETOR1zhArFKrw+cxwuVysWWi3Y319HVeuXDHYUf+AsbExnDt3Dh0dHfB6vdy/iNhWIrqKHXg1nh7T92iEZLVaufQQWaCwsofhxHO5HC+NqNNeLBaRzWa5IgytTfEa1cuP3Ueff44a+ftIrVt9Ln4o1BxioweWhu7btw+jo6P4m//1Ea+PWU0C44KyGzMzM4Pbt2/jj199gYWFBWQyGd5Mcjgc0KranlOGVh27fD7P1T0URUE2m8W1a9egKAra29vR3t7Ojb+r1Srzw21rw9bWloHrLfAFksvlkM1meV3s8XgMczMXKpX6Rg6Hw7h58yaWlpagKAqP/pFIhJut06L6c+N5xU0ssrG4ModW4wdrqZDHysoSyuUyBgcH0dvbi4mJCbjdDn7QsvJA5woj7LA21095ReHmaZcvX+YU0IGBAW7xQqk4iRqgVuOdOvF18maiofNF+moElVVVFZubm5icnOQglkgkAovFAr/fz98n+VpZrVZe+++EZ2/sJu+MX/hLfbwMmEihhcFuLOD3+3HmzBm89957cNitvC5kkU02kDWs3iLRc6vNzBc/6UtTB/S7RB+r1crHFW1tbeju7sadu7dx8+ZNnDx5Eu+//z76+/uxvb2NZDKJYDBozJjXEYlEoKoVjuclb1yPx4Pu7m6MjY2hq6uLN07owFpeXsaTJ0+wubmJjo4ODpogvC+lexTld2qc7Kk+fkmlRTGtpvqT0lqTyQS702VsLgUlpxP5fBZ6TeWbjKHzwMEcojNivT8BbmmiaRpUTUMykcCjR49w8+ZNmM1m7uXLpHbQAM80lP0hAw2QTZF0Qg0rAn1omsa9gm/evInHjx8jHo/DbmXccHIKIWQXjZZ20q/aSwT+c9TJ37VGfhlsgkJdWbqhZ86cwblz5+Dz+bC2uowvv/wCjx49wuDgIN5//32Mjx9EOp3hvkCDg4Po6g6hs7MT//mf/4G7d++iWGSkBM0YO4lYXFqUoiZ0czSm7ifR7orFIr+hA/2DWF9fx9TUFD788EOMj4/jiy++wPz8PH7605/in/7pn+B2uzE9PY2lpTBkWeYkfKfTidHRURw7dgydnZ1wOp3Y3Nzkul+6riMcDnP7y97eXp7W12q1BtcBQhaJYoVihBalglrBT6nPsFM9pes6IDceFqL2MovQ9TSVmj9icy6VSsBktjSItVss9demKAoUixUejwednZ1G1lPl4grlMvMnMpnNWF9dxe8//RSSzpwIOzs6kNV1LC6sIhGLIRmPoyMYRDaRgMVAylE9S++bRBHoeZPJJKeLAsDS0hKePn3K0/VXxw9haGiId9vpcKfr0NPTg1gshkwm02BmQEZxkmRqObYTrVtbzXt34gJ/FwBHqw3Yao00l5/UF6A+AfWziAlIa06hFIV904Hu7m60tbWhWMzjl7/8JS5d+gpra2s4f/48zp07h1yuiOnpaXz++eew2Ww4efIkjh47gnfffReSpHNuarFYhMkQUG+lMrhXiKKiKOjo6OBeT+QM8ODBA1y5cgXHjh1DIBBAd3c376iaTCa89957kCSmK0XmVx0dHYafcAeHf5LpWTQaxb179/D48WNsb29zSZ1sNssUOIVu64tmyHtR39zrNaCNLk4BSHtsY2MDIyN9CIVCOHLkCDd0y2QynAzhcrnQ1taGI0eOcLWOUglIpVLI5XL8oKRIabdbjQ432/jETa5UKigUCgiHw3j48CFGR0fR19cHq5UdAgR/peyN1ElJgkjXGdDI4/Fw7HQmk+GLMZVKIR6P8+sMANVyCbFYjGdUPp+PL2LCnDcreTbj95tvw26+Yz/kh0KjGkpbOjo64HJZsLwcw9yzZ5h+OoNyIY9SpYxA0A+Pj6Gtbt6+hVhsC1uxTQQ72nDu3FFIpvfwbGEeyXQKuqajpjHXA40Z3xmC9xKgMxCJcBUbP4yvWSwmvgkJS+33+xEIBBAOh/HLX/4S8Xgc58+fx9jYGGZmZrCwsIC+vj4MDQ2ht7cbW1tbqFarBjzTC5sNRjoIVCqsXovFYrh8+TJ+/etf48GDB7Bareju7oYkSYjFYkgmkw0tf4oYLztiEumde62JaSPT59VqFevr65icnMTIyAiCwTacPXuWUy6pSafrOkZH92FkZASnT5/G6dOnYbPJWFuLYm1tjZvZQasJwnx1FBZJ61AKm8/nEd/cxL179zA6Oorh4WF0dXWhvd0Ju32IExzoACb9MyaUZ8LQ0BCOHj3KBQ7ItofqcIJg6poGk3EgZLNZ3hQj8zkChYidb3FDi1nRt5Ez/iFCNnVdZzWy2IklRgvjs7JxTbnAVCbb2trgcoHrQi8tLkJRFOzbtw8HDx4UnO3N2E5nYTfbDCE9/Tnw917qBbPZjO3tbT7iEtNsj8eDBw8ecGrhhQsXMDAwAJvNBo/Hg+3tbeTzWU6T83gYxDGZLPCObSqVwvb2Nu7cuYP/+q//wvXr11HTahgaGsLAwADS6TQXK6AxCM0+W3Wp9wzBe4mMRPzcZrMhn89jdXUVX3/9NYaHh3Hs2DH09gbxwQcfoL+/n1uOSpKEkRH2PoaHh+FwWLCxkcCdO3eYlA73UJLqJnfGzJlmteSoaLfb4fP5EN/awtraGm7dugWfz4ePPvoInZ0euN0yh8SK64hSP5vNhKNHj8JsNvPuPwUPgGmE0f+rZabIYjJbOCJP7OMQk0sU1hc/dpoe7GRL9NeCv1aIfkan/dbWFgaHRhAKhTA2NobIxjo2NzfR29tr1BXgvFif349sNovllUVsZ1IYGAihvb0duq5jY2MDw/1D3+lFVioV2Gw2Hv0IeinLMgKBADRNw9yzWfzqV79CrVbD8ePHcfToUVgsFkSjUSwvr2JwcNAYW5Sxvr7OU+1KpcI8cNfWcPfuXUxNTcFisaC3txednZ2oVCpIp9NcgI+8h0T64stA/L6NKwX1EUQp21qtxv2QBwcHUSqVcPbsWXR1BfGjH53GyZMnubidz+eC3c4ayQsL67h+/TquXr2Kx48f8w6+ZuDPNzc3sbS0Cb/fz69RfVohcX2tdDyOhw8folKpYHh4mGtgUzpPtWcqlUIkEsHq6ipstmGEQmxtUHZBAgcmkwkrKytQVRVLS0tYXlqC2+2Gx+PB8PCwYUi+iXw+z2mSJDJBzbRWcr07ReW9pNM/lK62+PoUGkXQqbW+vo7V1VUcODCKTz75BIfHDyGZTKK/vx+SJOHRo0XMzs5ie3sbXq+3odGjKODOdpVikeOwW4m97+Ui5fN5BINB5PPMy4kYMbSZ+/v7gRVgdXUVv/71rzE7O4uJiQmMjo7CarWira2Np8c0ziC63NraGp4+fYp4PI5EIgG73Y6RkREEAgHk83msr6/zbi9xYCnCiE2q5lN/t2iMl4QpiM/LaIEObG9vIxqN4tKlS9y8/ciRIxgYGODZkizLSCbTKBaLWFtbw+TkJK5du4apqSkkEgmeQlMH++nTp7h27Rp8Ph9mZmZ4w49QcDS3LRQKyGazmJubw9dff41oNAqHw4GpqSk29zVq4ng8jnv37kGWZcRiMQQCAUOCyQNJYr0T4hS73W709vZibGwMgUCAs9QCPg8nWBB6TESDEZSYoj9lBLtlSjsJYfxQI7Ku64w0IboQrK6uolKtIZNJ4/RpdsKbzQyDvbCwgG+++QZ37txCNLrJoXSVSgXz8/Mol8tYW1uDJEnwGo0SqoX3ao6+0+lI9Rp1ewkv3dfXh0wmg0iEuSrOz89jfHwcR44cgd/vxdzcHJ8hJxIJ3ljZ2tpCLBbjc+jOzk5O+9vc3EQymeSsJwLAtHIXeNFC2M3bZ7fxE/Fv69hxE0c/SZKEpaUlVCoVxONxPHr0CF1dXXxuzjDqRWQyGWxubmJ5eRmLi4uIxWLcSZHcNbLZLKampgAwUb/19XU8ffoUkg5oag2VUhmVUhkmSYbTzmpcTa3h6pWvsfBsHhaLBSsrK0glknDamVhiPpvDzZs3kUgk8ODBA/h8PvT09HCaablcRiwW46CSSCQCt9uNQCAAv9/PSp9EDNFoFIuLiw1i9MRio+ehA7eVx/ResqH/Cez19x6RJaXuXmc2mxGNJbC0vIqtrS2Ew2H09fdieHgY5XIRt2/fxZUrVzA7O4d8vmhYcFqRSm7j9q27ePxoGo8ePUI+x5hJsqRAh76jNOluD4JTUjSm3yVVzEgkgv7+fq60abPZ+KJk0jVFbG1tIZPJcIGAopEp0IfNZuPayyRen8lkeJOH3CdopEHEkm97wUUHg+dqYp0xn2TjxyvGRoYwkyWCAzlF5HI5zM3NYXFxkY/sKP10uRxcKIA4zCQqT1xkiozLy8vMRNzhQCqVQnRzA75AG0/xRbF+yhJmZ2e5hhoJG7jdDFabz2Z5441ebzAYhKIoSCaTDZpoBA5xOBwIhULIZDLscF5bw8rKEra2NuFyuTn2nrrhIhCllcBAq/ntTmo0f/mbuZlX3YTDtzl79dOnzyLYFmK6yWoVk5OTDGDh9yEUCiEYDEKSgVg0joghaOd0OtHe3o7l5WWUSiWuxEEdU6fTCUWXnjMB20nITyRL8DmeCYIZF5oaciqPVg2eVQI7KJlMQuzKk9IIdUEJ7CHLMvL5PKLRaH12ajzfbiCPF532NegvBCS0miPrQlObxoLivJDeK71mMeqICK2aqkIxm3gmQ7PlZgYXRX6a+4q2PN3d3fwQo1EVRXtFUZBOpxvqedGCVdd1lPIFfoiLDDKqo8lojmb8dKDquo6qWkE6meKZl9lshtfr5Q1YKplEHfXnzNd2QXbtVCJ938is77J5xSDIDuoSD1p+vx81jQlBKKqqolxiN8pktqJarXcHE9EtRCIRznIhqKTH44HT4UIqmUYhz3C62UyOp2uKoiCfK8BtmG210vfataEgaSiXqzCZ6oqMVLMRFZHQSrRRSas5n2ea1T6fj0cpYgf5/X6uCUXz1Hw+j+3tbW4KRif+XiLv940QkvYY4UnOqNm4jA45YjPRxqdNJh6iImRV5FuLXlB0EFI9TZuGDsRWLgv04XA4eCeZCA4iUpC8pwhgA4B/rVarQeaGdApcLhcCgQBvctEISjyQmlU1Va3WEuf8w+1Wa8/tEWNFsGaXKPBGHUVJkuD1emGxmpk/rSTB4XRyxks2x+RzrDYL7FUb61rqNbg93dwRofmkbEW/2uumEG9aq8VJMjU0LiElD3pf1WoVdrsd7e3tCIVCcDgcWFlZQTKZ5NpRJJJOM9S9ptB/joXSvElEkQPxmlIUZx9qA495J0cD8XsiVZPGRIQtF9cIIbWaKYjiz5jNdUorRWp6LhG6KRrXk3QxANhtVk6YIOEDkTgh3l8xWPAgAf2lIuYPrU5umCNTtKO5nMvlwsjICDo6gshlthtka3w+HzweDxKJBLa2tmC323Hw4EGYzWYuc2oymbjiZCmbf2FEbiXYV78JME78Rm9eGsNQ/UyvjxofVFsTI0g0NCPyxPLyMq+xSQOa7FUpitAI59vgavmC+I4beqcaTly8zZu52fJEjFTN6SNFdNG2VhKiIKWtpKBC8Fki2jQfLM0HBOlwi2MsEZ5LjTkS1qP0mw4PxSTzw4l8o6rVKhcZoOdp1jXjh75iankd/5Tp9P/YHFlUupBlGV1dXRg/cggulwN3bt3E8vIiFhcXDcvNAqxW5sfj8zFC/7lzr6O7uxu3bt3CjRs3sL29DU1TG27Siy7giy4yG/k0qkgSDxUA4vE428AVlpaZZIUzrwiDTKwbeh3FYpGnZSL3msAHxI8V67ndTvQ/VTTeyXC7mUDRHJVFgM+LsLzkhsgJD03TBUq7Rfqk+HlzNBZfhyzL0DW9JfhCzC5E5w76IPE9k1KfeFRrKvLpQl2tEzpMssTdOyVJfq5j/aLm1w99Az/XtaZmRrVahUOSEAqF8NrrZzA0NIATx47i6tUruHjxIu7cuYPFcJg3tkwmBrs7fPgwxsfH0dbWhkqlgqtXr3IwvNPiaBld9lpv0uKixhN9nzqzHA5oc3CxNhqHFQoFbGxs8JGRGJ2p2UVoJPqbRIQgZNNeNbn+nDWY+NziQdNqtCcKK7TSfRZVU+g6iFriFA0JekkIK2qqtTIbE1VC7MaYjH6eDk1RNI42P32dPjebWUknpvnktywbVMhmj2j6+/SclKG9iNP7Q4dq8kOXTlSilhEUMxAAHLZh1GplOBw29PX14P79+wYAIYpcLodYbAvR6CbM5qM4deoE8vksNjYYDrhSqcBjd++qx/ui1Jo8akVXetqkJMLW1tbG1S5IZ4uR5AucLSOC+VVVRTqdRiqdREd7iC9WaqSRiB9xXb9bav39bNqd9L9b1c2NmwvPbWSxTqY6dSe7FfH7zcyhVvX6Trai1DwTNbjEjEJkkRFASRRxoGCjVmuQIEOWTFBM5padaoblZ/9vzqh2qol3wl//pUfsxjmycQJS3SlJEgqFAmIxOzYjq7Db7fjoo49w/vx5XLt2Dd988w3m5uawtraGO3fuoKenB2NjYzh5koEwhoaGMD09DVWtQDYB5PL4bYy12Aldv5miPlWxWER7eztcLhcfhSSTSZhMJvT19aG3txcDAwOw2+0cp00ibmQzE41FYbfZuTdv88L4S3s0p9fNzR4x1WVIMKVltKLsRoyMpG1GoyWxJqUJgXjgE3S2UWRPbtgc1GcgQoSmazAr5oZMgcZjolkedd6bo6c4EqTmZvPB1nDomPbWzPphd7KN8Z/F5vvfwWAHzGYLfP4ADh48iLGD+zEzM4Mnjx8ivDgPs1nBvn0jGBoeRE9PNzSthoWFeSSScURjW2hvD+LYsRNoa/MhEong6ewMCoUirGYLajXtuVkyXTyS3hHTXx5ljBmaopi4RzGNlmiMRDIxsVgM8Xgcfr8fr732Gv7+7/8e//AP/4Dz589jYGAAo6OjOH/+PN555x2DZNDbgDKKRCKoVqu8pqYOt5hSEp+XFr04Y26uy/jHLqdpc4Rsdnykh6hnTCZ0dD1pMRPdsFwsoKZWUdN0WK2N4oj0nra3t1HIZQFJQiAQgMVi4Q6VlLLSbFnTNC4kT2otlUqFA3TEuTNtTGo+ZrPbMJst/LpKkgS3280ZT5IkoVItQ5ZNXCmEmnckJEAAILKHKRQKvPEaCoWY+0WpAIuZ3Ru6Nmw8Z21YUyKWgUAuL8oUv+vmFrOcnYT0X/z7NTT2sBrXCb2/SqXMxk+iRCz7QVaHXrt2DWuEacOCAAAgAElEQVTrzJGhWq3i2LFjGBsbQzgchtfrRTmfRzweRzQaRTabRSDga8Ali341z/vY6A1ytM3CdpquGuT2Iq/TCGRPowgC25Mm1cTEBM6ePYuenh6OCNve3ubSt5TCvfbaa3jrrbdw79493L17F19++SWmp6eRSCTg8/ng9/s5F1ns6DYfOn/KU5w2h6ihTRurq6sLQ0NDGBwcbKiFaZPTaMhut/LnIDrg9vY2Hj9+jJmZGX5A0nuiOplKl1KphK6uLuzfvx9erxe1Wg1LS0vY3NxEJpNBMBh8rulFh57T6UQo2I6REUbAoXTZbrdzne10Oo2FhQXOQiuVStzeta+vD9VqlVu/UoOSkHZUPlWqZfi8foyNjcFms/H1mEqldpyU/FDr4Rdmr4TsoUYPazRIBs1vG/fvPcCTxzPwuH3o6x3Avn1d6O8bRGeoG/5gCC6XCxazDVoNqFZ0VMoq1KomuACgYU4tRjDRBK1Zj6qmVXkTjih1ZPRlt9uRzWbhdrvR1dWFjz/+GG+//TYXysvlcnj06BGsViuve6enp7G8vIxEIsGtRt955y2MjIygt7cX//3f/41r165xYTexc00NG5GE/30I1O/GxBEjP0Vfh8OBo0eP4sMPP8TExAT/vuifTAeO3W7lbC2fzwdFUTA3NweHYaAWj8d5ZCesfbVaZdG5UobH58f4+DjOnTuH3t5eRCIRfP7550gkEvy1UXpNUwCSyXW5XPjg/Q9w6tQpHDp0iMM4KTMwm82Yn5/H5cuX8c033yAcDqOm1dDV1YU333wT/f39WNuIYGpqCo8ePUImk2FjRacD5XIZuWIBWl6DZFIwOnYAP/5fHyMUCuHZs2e4evUqMg8fPieQ+KLG4A9+I4tzRBrDOJ2Ay+WCz+cDAMQ2N3Dz5k0cOXIEgcC7GB4exscff4xXXnkFFouFC6Kvr69jcXHRiJxmQ0gALe1Xm1VDWs0Ct7e34XSyMRa5KAaDQU6T3L9/Pz788EP8/Oc/R0dHBzY2NrCwsMAXmaZp8Hq9PPXs7u5GR0cHJxfMzc3DarXivffeQ0dHB1RVxVdffYVIJMIlaEhqljaJ2PD5vpoVO6VYzR7V1PUliuno6BCsVjauLhYBVdWgKDJqNdYwam+3IZNhB5Lfb+aHQyAQ4DJHFEFdLhcsFotAR5QwPj6O119/HT/+8Y/R29uLqakpPHz4kJcYpGNGr4siPM13BwYG8Morr+DYsTEoClAqAeVyDTabCVYr4Ha7sbq6iunpaYY/sNowNDSECxcu4NSpU1hYWuSvM5VKcS1zqqVLpRLcbjdGR0fx1ltvYd++fbh//z4ikQhmZ2d3vb5/TZtZoehCLX9GD4OhYlmExWIDIGN5eRVXrlxFe3sIJ06cwM9//nPkcvXOcD5fwM2bt3Hv3iQKBSah01wkNm9cESQgNmMURYGOOniAFltXVxc8Hg8fK73xxht48803OdySfjeXy8Hj8WB6ehpWq5WD9IeGhnDs2DE4nU5ubKYoCo4cOYIzZ84gEolga2sL8/PzqFarcLvdvH6kRdvc5f2uG7m5rhYXnc1m43+HMgCS3Ll79y6y2SxHO6mqCq/Xi66uLphMJuPg07G2toZ0Os2JC0+fPuWItu1UCg6XizOQmCMls+fp7OzE+fPncezYMYyMjMDlAq9vRXBNrVbjaTtBLMkpYmpqijexBgYGOLY6lWKz4NnZWSwvLzPVzEIeZoXN/kOhELq7PfAHX0UslsDDh4+wthYxTAgqBgPMhVKpApPJDIfDhfb2ENrarAiFumCzMYaW2SQ3+Hr/pUXk7/M18K41+Setrq7C4bRhdnYGqVSKc45rtRru3LnDBcAOHDiAkZEgajVgbS2N27dv44svvsDc3BwsFgva2tqQSWzvCgBpNftkdjSy0YxiboI2mw1utxvRaBSbm5sYGhrCJ598gn379iGdTqNUKmFoaAiRSASXLl1COBxGtVrlTosrKyuIx+NQFAVjY2Pcf3d5eRlPnz7FoUOHcOLECXz88ce4ePEi5ufnG7IU0af3+9rIu405RNI83aNMJoOpqSkUCgV0d3dz1UyLxYJDhw7hzJkz8Hq92N7exuTkPczMzGB5eZljyKPRKJ48eYJYLAaXx8MPgng8jkw6DcViweHDh3lzsLu7GxYLi/rEBaYDnw5icRZM0sSVSgU3btzA+vo6NjY28Prrr+PgwYMwmUxYWlpCOBzG9evXMTU1ZSiEsHVAZZ6uAxYLMDg4iGPHjmF9fR0zMzMNPQBqqpEJva4HUSwWGX4+m4HX44Mu6S2v8V9ljUz1UTabxeTkJBaXFvD06TRSqRQsFhs6OpwoFotYX9/AF1/8EVtbMR7dFEXB0tISJicnce/eJEqlCtra2qEoludsWJsvZjOgoakzwWCexuhDZChZLBa8/fbbaGtrQyqVQiaTgcPhQDKZxN27d/HVV19hfn4eXV1dvKlWMFwTFhcXcezYMUxMTGBwcJBDECORCILBIN58803EYjEsLi4imUxybLBIovi+TvTdcOXNyCka+2QyGUxPTyMcDnO2EG3IQ4cOwefzQZIk3LlzBw8ePMDMzAyfj6uqyk0IQqEQNE3jkEeLzYYDBw7gnXfewQcffICDBw8a5IkSb6YRfLJarXJFS8oIqMNMGz0WixlIPw2Dg4M4ceIE7HY796a+fv06otEoq6tt9fFnLpdDKlVBpaYhGAzi9ddf55j4lZUV7qRB94aatSx1LzdYyUgtyqC/tk0MGAohsok1twq5DNYjq9A0DU+ePIJWVWG1WXijpFarcU/i+fl53Lhxg2OvNzY2eKrncDjqRHBJg6RJkGQdqAGSbGxs2TCyRg1aDYCkQdck6KgZYgQ6crkMSqUS30RE26PamJQjaAx1/fp1/OpXv8L09DTHWsdiMcMHioFG4vE47t69i0KhgLfffht9fX3w+Xy8Nhw0HA1dLhcSiQRcLhecTicfP4kEjT9lmiVJEheqK5VKUFWV48EpGm5tbbFNVS7B7nTh4MGDnEWk68yMbWNjA5G1NQA6TGYL3wAiwT+fz8PlcuHAgQP40Y9+hHPnzmFsbAwejwmxWAnJZIqJBRiYa9o4gUCANwKpLyG6YZbyBSRTCayvryOXy8HhcMButyKTYXLK6+vrKJfL8Hg8nGtMiKxsNotsoYienh6Mj49jbW0NT548wdbWltHEYtxnk0mCzWaBxaLAbAYsFgU2mwUmswU6NMGRES+tnPmXBwiRAZCPOAQBSwlKTa2gVMjD5bTB7fYgn89jcmoS8c0I3F4/unu6+LhgZGQExWIRsVgMGxsbyOfzrNlRU6FYbRgeHkZbWxvvoOrVCsxmEyxWM2RVQ61WhqpWARNggglqrQJmuWoCdI35BGs11GoqI0tAh8VuQ6VSgd/vRyKRgNPjxjvvvwdvwM/HT0ePHkU4HMZnn1/E/GIYrxzYj46ODp5mWSWgp7MHTqcTgfYgczSYeogadJw5cwYXLlyAzckM0RWrBYeOjGNo3wju3LyFcDiM06dPw+fz8Y1Bpz2J5+80IzTpL+5Om8CwwrqmcYKFJMvQqip0tW4LIx4gsizzBh4h0Og+JBIJY8buM2xn27C5GQUgIdjRyTcLdXMLhQIymRzMZgtOnDiFn/3sZ7hw4QLa2tpQKBTw1Vc3YLWZ0dfLnCUKhTyi0S0UiwXIssSjMvO5ZpumUqkb3ClWC1AqwO5ywhvwQ5OAqqZDk4BMPoeqVoPb54XZYkEqsw1JkpDKbKNUrcDmdKAGHclkHFarFRMTJ7G1tQFVreD69etQ1TJqNQ1ms2Kg/2QoCmAyyShXCrBYmSZYW1sbzGYzb8rtZizQMMf9riNEbh8sYg2wq8lhfQ01ii+yQ1MHIMNstsBsZlOJmqpDMUGHbALK5SJk2QRZ0uHxeJDLeVBVK4hGo1waxu/3w263c5ikLMsIBoO8EZTL5QQBddZBZbVe1QAlkPg8vRmt6ZI1/p/I7vSmZVmGx+NBIBDgiC6iHGYyGSSTSd7ZpMUuCriz7q0fsixjY2Oj4YaWy2XE43GOcuvq6uJgDGJ00b+pFPk24IG9UDWbAQU7YYSbJwFCVcJZYna7HbJibhhj0QGRzWa5CfyhQ4dw8uRJDAx0YXMziZmZJ/j666/R29fNdMN7OrlNDHlW7zR5aCbKiGIIDaSKpmmGiDxTFIWrusgyU+l89dVXsb29jUhkHcvLy/zeOpw2mC0mlCtAJptGNruNYj4LWbK8lBHa9x4/d4Cz8oO8hUC9+CBceR2/YGbS0hplGnQ9TUyzi8Y7ZBlz8uRxFAoHsLgURjqdRDweh6pW4PW6DVhfDbpew8gIAyWQ7EskEkE6zQgTbrcb1WKBzz9p8bQSE38RMobmoLShvV4v2tra+CIllRDGzmKezGTr4nQ6OQiBNh5RLAkskk6nQY6UdRfDTgwNDXGYIm0KiorUpRXT6xeZdO1kHbLbNdhNzK/55+rIMPBatpUySHPfQpyLRyJx3L59G5cu/RHXr1/DmbMTOHnyJNxuJwKBANxuNz/4bDY7xwrQ3xeBLOKCrmtP10kwrTYyTVAsFrZo19YiSCbjOHbsGF599VU4nU4sLob5QdwsIcXRZiYTZMgNfOznbVf/tN5ddrt9Ryx8K6eRVgcBjdqaD6K6g4uByaBIxdQiLDh48CAOHjoEp8uBTz/9LZ4+fYp8Ps95vNRgsFqtOH78OF5//XV4PB5cvnwZFy9exMbGBve21Y0NSB8iwX0vD1KgoEVG4BBytietJzqMnE4nZy+RXzIZfpEFCilw2mw23oyhJg45M5BipMViQbFU4AqW9HdE2t1evX12+9lWTnto4iA3R+BW1EZyWKCxHWHMRS1oev0+nw+pVAqJRAI3btxAtVqFy+XCzMwMHjy4j+3tNNf0tlrBm1u1Wg2aWn1uI+wERWzkTDcyqpp/h6KxxcKyqfX1ddy5c4vbE504cQznzp3DwsICnj17hmKxyNFfisICkd/vh83mgFpWG7KAvfhWf58PghPvdDDvFpHpPomAKpFw8lyzi6KmJEno6enGqVOnEOr0IJfLoK3ND5fLgXA4bAjZMbF6m80Cj8eFkZEhHD48CpfLgVhsC199lUImk2a8Zattx/Rvr6QJiiaiubimaVyEjn7ObrfD6/Xy6C/OZcVNSIuffoYkZgHwDU2Hhih8R39HVLXcLfruha/cKkru1NVvdS2bNbvY6U2LRAPAlEJqtSpUte4lVFcEYdOAR48eYmVlCWaz2aidM3C7XVykQbwOIn1QrN+aDyZiIzWb2VPjsJlXrTd4J4MDVG7dugOz2YpDhw7h+PFRnD//Jra3M/i///f/QzgcRjQaRSKRQK3GZt1Op3vHaNvqAP5TPcRxZTOhoxnZuBe4LtBo4tewV4h4TxeXRhwmE/DOO+/glVdGcPToUTx9+hT37t3j2NhoNIrJyUkMDg6ir68PY2NjePvtt7G5uYmpqSmk02mY/QGeZolYXII57uVCiIuViAHkm+twOJDNZlEul7kPUSKR4PanhUIBXq+X44RrtRpcLhcnBBB00efz8UheLBa5lrOmaTDJSkOjSRTEE2/EXjdw88Z90YJqtcmbT/hGJ0XaEOAHGKXWtBEpShPvmFRhCL9M19nlcnKCv6iJRbNixWIVNobcEtjD8AB1wgLrL1h4d1t8H82bmSUkOtdav3PnDg4ePICOjg7s2zeAv/3bv8Xk5H2k02moqmp4WdW4ebosy9Cg7WgU+Od4UJOyldzSXlJ7um/0s2RKR3poDSIQFOloE5MRuFqzQdersDusODx+ECP7hvDK6AiePHmCW7du4ZtvvsG161+jprGfef/993Hm7ASezc9iPcLkdKm+pHSOomWzCNxOD9ostJhoBEIdc7vdjtXVVc6kCYVCXAmTLgRFUMJc0yZWVZULujkcCrJZRs8jNtT/z9t7Ncd1ZemC3zHpfcI7ggAIEgRB0IikJIpSlUBRhl1X6q7qqh7TEzE3oiOmZ/qxf8LEfe+/MHMnel7qTldFV9XtkkSRJYqi9w7eJkwikd7ncfOwz9q5M5GgkViFCAQNCCLznLP3Xutbn1ldXeVJFxS9ShdedCx5HRHE65bWelOIW6vfi62KuJDFk7LVqUBGC822PtSPybLUUNnQ/ydGyja/BvHUFRey6MflcjkbRnnNMswGPXRNg9/jhWwBywuL+Oarr9ERbcPFixexf2Afpn76U1RtOWvQF4SlG7B0A05FhcfpQq6ivVCv/ZcorZv7WvHzZaV1s6e6qir8ujZXNKpl71qqQ+alZLVahWkZ+P3vfwu3x4lDhw5hdHQUZ8+exdDQEFwuF7a3t/H4/n3cu3cPhw4dslVHXdi/fz/8fj9PaqCyVmzwX7VHoZ2biAKapqFYLCIejyOTyaCrqwupVIqf+pRnvLa2hmKxiK6uLo6w00cul+Pz6Pb2dkQiER41KrLbnj17xgPkyGROtMQRHUt+CHr9Kh+tgJzmxd4MYokLWcxfolJONC0UvaHF182+rxFkFIFK6pFf1HuKfxavnWlaux5iiylrdnHwSYDhcrmwk0zgwYMHGBwcxPj4OAYHB3Hu3DmWo2ybKsqyzAkhrfCDvzQh5EVe2mKr8jLWX71idvMWj9o8fiJTNjCJwLu6ujA42IvVtQ0sryziv/23XyMUCuGf//mf8fd//z+ivz+MarWCO3du4/HjR8jnc0gmd+wbD7uOrxv2ieQJeoiaYfnm34veTeJp6/f7MTs7i/v37+Pv/u7vuK/x7du3ceDAAR4Ju729jWKxiHK5zLnggUAAOzs7iMVicLvd2LdvH9599110dnYinWYPJeUMzc7OMvmjXsPY2Bja2tqQSCSQTqf5+9rrZN7rlH3RSd2KPkiMtFYnifjvqdIQFwYjRjg5EcYU7GNJc2yaJqesEomDqh7W22GX86Y4uoKs8PtIBwAp6AjT0DQNELKrKpUKHxmJ+mqfzwenbVRAm4qmsf83lUohFArZOVwlfPnl13C5XPjHf/xHRMJR/OqXf4eNzXX7PaioVjWuXaeNiNB7MrPnrK83AHqJUbsUeQuAaQ3APPCYFqHIq1GxTXkR/uHxuBrcUjStToqikaoss/ZJZcyhEmRZBRliu1wsOqRarSKbzWJnZwe3b9/G2NgYxsfHAQA9PT2YnJxEKBTCiRMnEAqFkMtVkclkeNLBXqVMvXyT92Tb1KV4Hu6cSKBULBbDtWvX8POf/xzBIMsHSiaTGBgYwMTEBAzDwPXr17ncbmNjA8FgkF9wtlkN4vDhw+jt7YXHw7THW1tbmJmZwezsLDY2NuB0uBrsZZvBij/HKfw6H2KJS+wqNkZDQwpDMyAl2gaLMs0GGamhQzfqtkqaVv8/NU0D7M2aLZoq91GjzZqrxOyfJ/qDVatVpNPpBq9rur7EXnM4GjEG3WDU0lqthgcPHuDSpUv44osv0N3dDY/XbU8ymNF9MBiEz+dDNpvfs2x/UyeueP01TeP2U8PDwzh86JD9fHn4QUklMQG2LxotWpbBN99cLofFxWU8ePAAW1tbSCaT6O3tbeRaMxRTtUtgA6YFqKqMUDACn8+PdCKB+/cfYGTkAPz+APr7B/D5519gYuIowuEwxsfHIcsKHj9+gmfPniOXy7f0UH7dDwKxyPSAieU9SKfTuHz5MlcyjYyMcGri8PAwgsEgHA4HlpaWkM0yS18itESjUQwPD2NkZATd3d3weh0wDPC40sePH2NhYQF6rYr+vgFuaSMa/rUqI19mvvdDYj0t68UAjZhkT+Z17BSFADAytJO9XFYtWZbJT4dm9xbRIdMf8HJ3UYcDvMwVFVDNvlv0daaiK3MxBGUm+3zO+tfLJQASd/NsNmxgC98BRXGw+CHLQKVaxvz8Iq5c+RZHjhzB+Pg4AoEAisUi0mnGy/d4fPB6/chkcg0jmzftwyW6ldJG6nQ6sX//frzzzjs4/+GH6Onp4VRbIhvRxtlMKmqu1HK5DCc+bW9v4+rVaygUCjwCqQHsIvCCSqt0Oo2VlW1kMikAQEdHB4/IvH79Ojo7OzE1NYV3330X7777LhRFRqVSxfT0NP74xz/i7t27LMJCVfcc+rciJ7Q6lcXyh04bMr9/9uwZfv/732NqaopHidJpMjg4iLa2NiwvL/NZXtBW+ng8HkQiEbS1tbHUyJqFbDbL1TWPHj1CPB6HrDowMDDAd1NCx+nUaXXh99K/vjTM7QcuZIq3IUCwcSHXe9pWYXE0dyettdivWZYF0zB4siaRPkQDPQAoFAr2z1AbenAquSuVChyuerYWzaPD4TB6e3uhOl27zCZoAzIMwOl0N0TrEH+euP43btxgjiIDfTy5QvTFFhfZqwQk/JjyWvR/7+3txYkTJ3DkyBFEo1Huk864Cg7IMuzDQ9t1MIi/93rdCAYd/OdQXA6h8rvUT3QTarUaFhYWUCiVEY9v4vHjxzANoL2tE7pm4uGDx1BkB7SagbGxMRw4cADVahWLi4u4fPkyLn/zJ6ytrkOWFfh9wV09Xivq2osWM3GJaUcrFovwer0sdHtnB3/84x/h9Xrx2WefYWxsDLVaDalUijPAJiYm+KyYyCPU0zHSBxCPl7CwsIDbt2/j6tWrePDgAarVKtrb29HZ2cnpn0QcaRVGt9dp/DJW1kvzlV9h9izOkKmElWXwvlf0pqbrTAuO/MfYKcZMCEmUUa1WcXj8EFdI5fNs4hCNRnHo0CFEo1Fomm57r+nceoeM42lR9vb2YmRkBMFg0Kb1+uFyuTA8PIyjR49ie3sbuVwOhRzrLUulkr1hAF6vBw5FBUwLpmXAobDqwDRMbK5v4PI336C3pweRcBhetxcOh4pcJotMKo10MtUASO41/vtRXOqmqQGVzxQT29nZDlUFksk8YrEYrzAJyBPtelstZEmy+MRkfX0d9+7dw8rKCgqFgrDB8qDzCr/51WoVCwsLmJmbx8rKEpaXl+FwKNw9I5vN4sGDB8jlctw3yjRNxONxPHnyBGtra3A4HLxH0SvV1+YciwtfsXc6qhiq1Sp/4MrlMubn5vC73/0OhmHgV7/6FSYmDiIUCnHGVrFY5GZy4ijL43HD4wGSyRqmp6fx7bff4k9/+hPu3r2LUiGPYJj5RjkcDhQKBaRSKc5L3ivV4YeU1i97kGRZ4rPiVpGhdAJTb0tAkcsFOJ27TetFwgUzjihyNtehQ4dw6tQpjI6O2pVKDe0dLNN4aGgIwaADIyMjuHDhAiYmJuyTz4FKpYLVVRYWf/fuXWxsbPBK4ezZszhx4gTOnTuHt956C8FgEIrCNMZTU1Noa2vDfXvyMZPLAZbJRyuqCigSuGunQ3ZwYK5cLiOdTuPOnTsYGRnh/urhsIp4XOFWyGKoXPNz96b6ZfF6UrtDvnLVqobt7SwePnyImzdvYmtrq2GmTpvsXpu7aeoc08jlcojFNrgDDpGh6N6q1NsQbzmbzSKRTGF+fs4+zbx8HkuOis+ePcOTJ09shpebPxSqqjbk7qJFymKr3Weviyr2X9SPVSoVbt3rdLmY6ukPf4BhGHj//ffR3d3NyzoK4SY1FtFL6effvXsXjx49ws2bN7GwsMBK90AQvb29aG9vt3WxaaTT6QYtrnjKvQohZK+T+aUnwh4lcfMskh6MQqFgS0qLME29jgILDpfNIx4ixRw+fBgXLlzAO++8A59PQalkolwpcgtchqIqOHDgAEZGRuDz+eDxALUaMDOzhFqthqWlJWxubvJ++Pjx4/jwww/x3nvvIRxWUSwCtZqBtjYPTpw4wWNWs9ks0uk0D5VjwGMBm6tbXK/Mrq8EWa5vXhShOzw8DJ/Ph6Gh/UilUjxEYXsn0TBheJnH+g9ZxA1os8C4cjgc0Go6Ets7ePTwMS59zTTy1NuK7KyWz4dkweVy8LaAgWQsKUU0+eeltaQ47NIzAJ/Ph2K5ZIM7Onw+V4OYgJhCuVwOhWwGCYUlM1L/QwusVqsxip/H+8JsHjHdoNWFpfktjaAsy0KhUOBWuv39/Tzk/Ne//jVu3bqFo0ePYmJiAt3d3Q19OnFyM5kMP7Hv3LmDubk5LC0twTAMRKNRtLe3c51t3s7pLRaLHGUUc5p/rO74xy7khrhZXeNB7/fu3UOxmEe1ynTMaGKGiWmLps6Q1lQqhWw2a//K/qw6ZB6W5na7IUsqT2FkdFide4qXSiXua+Z2u+H3+7nj5sbGBhIJBw9m7+/vhyRJKBaLKBaL3Ke8XGR8/hs3biC9k0S5WMHs7DRSqR3UjArUqgxd99ie1UBNr+HRo0d8snHo0EHMz89jZmZG6N9fbG7x8tVqCrrf1ocNt3m2TBhW3ZopGvVge9vDN510Og3LljZKkHYlgdQNlFkOjq7XOFhIiL7TqQKQoGlVAG77+02oJiyksxm0tXfC5XHD6fZiazsByDLi8Ti6ujsY7bFYRKitjVnk9HQi53Mzkz1Vgm7UoDpkSLKFSpVtBD6/BwqUBjRUDAojZtFepxYRQOgNkJVMpVLh/arb7UZHRwdqtRq2trawvr7OH+S2tjaMj49z1NUwDMTjcaysrHC5I9nQwDQQbe/AwMAAuru7+b/d3txqGIvQSSyWRs2EjWaT+B83XpJsF1LL/qzTL0nuqWlVaFoNXr8Pqirj8uVLePLkERwOBx4+fIBarYZQJMKvJ1UrhKJqdl/64MEDFItFfPXVV3zm6/N7+PijWq1CAkOl6/NP2ASdBGKxGDdxqFariMViMDUdqUQK31/9noOGZGBIpoYbG6xczGfzkKAisZXApS8v4cHde7BME8vLy8gXsvB7vXaetQVFlbBv3wA2NjYgScDDhw+QzWYwODiIzc1NzM/Ps0lFwL/L7J5OuJexqgBAkdiCstD0/KpMvVUsMUGOw56sQJIRDEcQDIehGQZMCUjsbGMnmYAFE16fx0bufQ2jwVYhA+zgUBsYiiQFNk2gVqtA09xwuR1QVImZ74ytHDIAACAASURBVLldzJkwk2PQtt/vR0dHO3q6TqO3r5vTEwkwojC0p0+fYnt7m6fWk3KIkzFgtSR+vGpCfKu+U6R8EslBlmWEw2H4/X44HA5sbm5ieXkZ165dg9fr5RlP+Xyel160OD0eD6JR1gv6fD6elRyPxyHh9fKB/hxzyr3IAqQOo02DmdqlUSwWsbKyYo8vsrzHFP3GRWSXHprt7W2kUqmG8luSrYZkB8uUGkpVRVHtUwn8wXS5XPznra+vI5/PY3Z2tsGXW0S26X6GgiFeJTx//hyyDPh9XhtR1+FyOblogG0sLPa3WCxie4eJJujE13Ud7e3tqNkKrVaRq6/Aq7M3TTYBYN+rNFx/MX7XNE3OKy9VKshkMnj8eA5ra2vsYLOD3EnCKdortwLQWrdn9D4sZsYh5iMTkGSaJtLpNHcCOXToID65cB5dXR1c36tpGi+1TNPEd999hxs3buBPf/oT8/dyuLlAAZYMC9ZLH8aXURRbpfwR6YBGDgT8MOsXBblcjo2LyiVevtHrp5OIHrhgMMhIBbZXdiqVQiaTQS6XQ0e0bU8N8atuRj+Wotkq/7d57EEAIxnXUftB4BBVE2TRQ2O0Wq3WqJwizbjdg1VrdWtbU9MAMFNE2A8Tj2WXVMj2A0pzZGbAGIFpmsjlMihX2EzZoTr5qUJ4B4GjhFrncjmWKlLKw+10cz15M72RJhrN81x6PorlUkMv+ro2xiQJpQqCGblYsOx7T1gQP13tTTCXy2F9fR1Jm5nY09ODkydPIh6PI5/Po1gsciOMVuBbvQ0yX1nswfXIuq4DsoyOjg5MTh7DmTOncfqtCVQqmj1zVKGqgGFEeetGbh2maeLWrVvcCicSiWBgYACVwm495uswoVolCXK7XPvvmplLBNxFIhGUbHaZuOjIPD0YDCISifARRSKR4L0zlWKteMQvC/x6nVP5VYwVmsHCZkIIETtIxE5UQIYP1B9cOqlE0X84HOYhAAR8iflL4UiQq9Cq1SpgyQ2EEFUlN02Ta72pDKfxIS0sAlPFLC661nQ4EFBKIzBZcvEFTtnJojhDpDrSPaaNnl6LaHjQ6ll8VVCrIdZHuHfEH7csC5K96eVyOWxtbSFokzlGR0cxOjqKra0tzM/PY35+HrlcrqEielEI38toulyPTL1oOBLB2NgYzp49i/HxQ3j8eBrXrl3F1tYWRkZGcOrUKQwNDaFarWJrawuBQAAnTpxAR0cHxsbG8Pvf/x4P791FqVRiQv5iaU9o/VV5yM2jE7pRxAmmU4d8xQiYan5QqaQjbjl5ORUKBcTjcSSTSc7NJmCv1SJu9nvaawb+plw2X4QhNGckE6pPfaCquhsWqsgsoqDxVqFuxKSzLFejOANKgymALCv2+2/s7WiDSRXyUFS5Lo6HyftNTdOgGzo0XeMorWSTWHRDAyQLYZtMUSqVUKlV+Wula+53OlDVavz5pdGVw+GAZuh70jJ/yL0RnVBA6jRblGJZjbx0MTXU63ZzAlIkEkG5XMbq6ipnKtK1arVpWzJVtQxIMy0TJgV9ypKtNgdMCWz8JPphDQ0NYWRkBG438PXXX+O//tf/C6urq/jkk08wNDSE4eFhPH/+HL/5zW/Q2dmJ06dP4+TJkzh48CC8Xi+3ls1msw1MnWbB/Oss5L2keDRSoAtBIeYOhwOBQGAXUYK+t1KpcBQ7n89je3sb5XKZUxDFMkyU6DWLJJp39TfdI+9FXhARaFHoQIuV+mFVcGgRFUdUDtLIkHAP2vDYqMnD2Uj8nkHmZBH2ABr29zt5OUvX2jA0SJYJBfIuMKdOC5Y5BVEcN5LZA7UDVEaLZApRuklgEGnUqb3a6xmyBCHHy6+/Jbhy2H8vK3Y1aDYkj9A1pmhij8sF2b4n5D/e3d2Njo6OlvlUrSYa1h4j3OaNXqUdjkK7mDpFRbFoIZVKIRbbgF6twTAshMNRhMMqEokkvv32O+RyOcTjCXR0dOHYsRFMTX2EmZk5fP3119je3kFXW7TBaE1ErV9lIauSPTqABMmyOzKLuU9akOCQFWjVGvRqjQMIsgW4HU74PezkUSUZTqX+QMMCKsUSspDq/b6mw6U6EPD6OOoKc++RRTNJ44f2yi9d+NLePFz6O8I3qB2gB5mcQkStMS0y0oWTRJMSIKgc5biJpTckGVrCQmQ/T94VZlff8Az4vR7IMi1QIqNIHPEGLCgK+7u6Mb1l98QqL+lFvbwYUUNfp82c7gup5ojj0Hx4vGrFxN6bIeQ720wui71vleM3Mt8EnU4nOjo62Gzb40EiHue5ZTQPDgQCiEQiPHtLrPJEPEi39JagZ6tnUqVRApEJGEWOgAjm6VwrlzjRnXbBWq2G2Moybt68iePHj2NoaAj9/f0YGxvD/fv3sby8vKeg+lUX8sv+DdFKWcSkm4+ZRGooieHptKCbT6eYKNIWg8hEd4bXSfF7k6dyq767uSqhRUjURroezBzPtWu8QfJQj8fTYHtEJ5SIOvskD+d0W5YFQ7c44swMDMucqCHaJ5HYganVTH6CimNHKi2pFKfxIv2ZsbPYdEQ0OaTY1PpmJXEPN/JjoxbD4/G0rGJej/Ah8rXZ/ZDtrzkdTj4SFNu3SCSCvr4+wDQR39xEIpHgSaI7OzsoFosNmEXzQubGD1XtlfEXVTwlFUVBNpvF5uYm+vp6oKoq9u3bB5/Ph0OHDqG7uxulEnsTQ0NDWF9fx/T0NC5duoS3334bBw4MoKuri8sNm0vovcTee/0d7e5+v58vPkVROApNeUcul4uzzKjnTSQSDf0jGRxwfrFpQFVUjpqSyonohfW53d79sXjtWl3oZvfDvQQVrbTYJN0TaaH0eggToLJT9Lqm98w46Sw6hqitdKIRZ5yqFAKSaEMrFotsUbsdDaW5LKl8AxTVOyRM8fl8vOdzudz26WnyHpYWLv1b2nhp43S5XBy8ZGW03EBlpNA2VVVttl0Zvb0s57pQKDSAgDQ9EftWMcO5GQXf64NQfra5MRvgmsEMD4gt6HDYJCFb2EOClKrNwsrn89jY2LDTWtaxvLzckIRJC1q0AKLrTO0E28wa34PIMFRJ/aKqKnK5HObn59Hb24dwOIwLFy6gt5fNkU+ePIlgMIiFBZaVtLW1xRUplFfscoH3KiLjpRXa9iqeRQRmUT4uvSnK/KFUQRqd0YUdGBjAvn37+DiKFmatVsPm5iYPMiNUNZ1OczZSIBBArVZDuVxuALxe5aa38ur6MR/kIU7VB5XFxCUWpWytwJJMJs2NAKjfbTS4Uxs2DhqnULpFTWP30SRllCVzoAcAIpGo/eBWefXj8XjsDUZDpVqFplVRrVZsYoPKLZ9Eowl6hsj4j/jtFMZGLUChUOBVlMihz9kMvGq1yufjzQq1H8LqosMjEolgZGQEkUgbNjc3sRJbYyF5Mjmo1LGFTCaD69evw+10oqerCxuxGNbW1rj1sjgZEfGjhhbGvn/kGFtHx3V+8u8y3/N6vXXzea8XW1tbePLkCTo7OzEyPIzBwUEEAl54PMDCQhxXrnyLGzduIRbbsPOdVBQKJayuxmAYFra3d2AYFreRaTUjazYUaPV7omGKxA8iDFA/SIsumUxyfu3ExATeffddTE5O8lNYvLmZTAYzMzOYm5vDw4cPEYvFmNyxVICu6+js7GwQuu/VDryqad6LRlUv+xDBNerT8vk8qrb2WmpSkTVf40qpCMgK7yfp5KPylk5pIjbQWMhkLugcxCIwx9AbqxJCZkU+Nn2USiUoEqAoDqiqZRvvuXhaApmsV6tsPu10ajZjSUelUoOua6hWawAkeGwHETe5lygK3HbVR24gWq3GKJKmCROAU5LgENojkWv+qpszebgHg0Hs378f3d1MyL+8topCNgt/OMpRa0mSILvd0Go13LlzB0sLC+ju7IReq6Fmf5J/OjnWEI20VdwwtQ8GgYMmQ60Ny4RhGpANHZYE9gk7jZF6LWJFbWxsYmtrC59+fIGL8fP5PG7evIlvvvkGCwsLPASsWCwiFovh0qVLCIfDuH//Ps+A0nUCyNFSrtUMlLRaEKKaJJ1OI5VOIRwK89KGSioK/37vvffQ1dUFl8uFeDzeYE8TiUQwOjqK06dPo1Qq4be//S1mZmZw7do1PH78GNlcFqrK+OOhUGjXPPlVFuOrjNhe9cQW85iJGVWtVOD1+XjWc7PPtkgwKBYLfH5LP7NarSIej2N9fR2lUqlhdEfxsT6fD+G+Puwb7IfH4+EIcq2q88mAruuYn2dCE1lW+ViLynRARl9vL/oHWHVHLY3YIimKgvX1dWxtbfEph8/nw8DAAEuzsBlS9N7pOaV+nBRxqqqir68PwWAQlUqlLsBocnN5ndFnHYNhIHAmk4GqOjlpStQKEOUzEAjwanFleRlbGxtw2Ig6AYQiWEpMN7GKotNWMww4ZYtFCBGOIFt7+1qLA3YKkZ6ensHy8jLimxs8/CyfZ5rKjY0N1Go1biNLPOdr167B6XRiY2MD+XweLpcTlqbv+eC3OoGb57IOxTZUdypQZQV6TYPX5UE0HEG1WkVqJ4l9+/bh9OnT+Pjjj/HBBx8gGHRhYyOJ9bUYV84Q0hnf3EJnZyenkp7/cAonjh3H4UNj+OMf/4irV68imUpChoSenh7ki4WGPv9lD8CbZnuJ/s8E+nh9Ppw4cQJTU1M4ffp0w4ZIpTcBKS5XPbSNXDhisRguX76M7777DisrKxy4zGQyKBcL8PoDGBsbw7Fjx3D2vXfg8/m4Wb+usSCDfD6PSqWC3/zmt3j48CF2dlINZA0qCc+dO4e3334bhw4dgmEYHEylE6lSqeDq1av45ptvMD09DcM0MDJ8AO+//z4jUCTiuH//Ph48eICdnR2OhZAIgeykSF5JsbpXr17FnTt3GoggPyScnoDPbDaLubk5xGIb2NnZAQB09vRAdbjs01Yj5LiOX7hcsAwDMhptl9hrz9kTB1dLb3DeN1s6P5EBwGFXlwQo7jIWoB2FkdKBnZ0kdnZ2cOnSJY4Mi9RGj8cDRVGQTCaRy+UaSgHynGa9qzBEfwnJodXf0w5MkTYA0Nvbi0AggPX1dUSjUXzwwQf41a9+hePHJyBJwMJCDKurqxwYoRJS13UUi0U8f/6cjwBo/i3u5pcuXUIylWTjDo97l0dXq9fbysNrLxDsdc356PQRDQD6+vpw8uRJXLz4QYObiK7D9tYybMDHCV2HHW7G/t3KyjA2NzexuLiIjY2NBnvgcLQNY2NjmJqawtmzZ/Hh1PucayzLbBrGyl9A100YhgmXy4WrV68hk8nwjYdQ8QMHDuDo0aM4cWISigKUSqxsd7mc8PmApaUE90En3vjQ0BA+/vhjvP/++5hbnEc4HEYikcDOdhy6zVmmKUShUIDf78fExAQ+//xzTE5O4unTp9ja2sLdu3cbKL4/lCZMABxbwCmUy2UoTttAEI0WwCIC7/F4kNrZgdu+Hj6fD16vFy6Xq8EkQyQ50evUdR01XUdiJw5Jro+2ZCFup9nvS83n8ygECnyOTGWPZVnQNQMSZBi6CVlS4PcFOCJt2LQ8KtJrVY01/YYFt83vrZkMsm9VPrRy2diVooA62YPYYhQg5vf7uc1Pd3c3ajWWx7u6umrnOjtRLBb5rFhRmOC8WCxygQXNzz0epo9NJpPI5/O4d+8eC1MfGf7B47I3YZNLGIPozUWiiKdPn/JAOjoBCe9gii8n4nGm8yXDfgCYmZnB6uoq62EVhQfldXV14cyZMzh37hxOnjyJ4eFh6LqJVCqFRCLBkG83y39iFkAK3n77bds9pIjbt2/zzZZOv6WlFXR2TsPpZCq1SCSCQACoVICtrRIePnyM+flFpFIZ6Lppb7AhdHX1oK3NBUk9iHw+j7m5OWxsbCCdTje831IhD6fTifb2dvT19SEUUtHT08NjgHW7Ndk77O7l99TtdjeM9VRVBWwJpqw4bPyGRRAZtsxW0zR47I2ps7MTo6OjGBgYQG9vL5fI0giqeSFzE0VNw9LyAtKZDJaWllgEba3MNxcCwYQ2QIXqYEBHqVxAKpXm4eGDAwMIBAL8Avj9fgBANptFuVxGNBrl0jRi/HAXDpcbRrXCPZabG3oqHV84grLBDCqNRHXSwYMH8cEHHyASiSAej/ORic/nQz6fRy6Xw5MnT7C5uYlKpcJ106FQCH19fRgdHeVRqYVCAdFoFOfOnePxI89nn7dkmL0qYPWqyq4X/xvJvklOm+PsRDKxhSdPnsHj8eD+/YdwOlUEAiF0dLShv38fBgcH0Nvbj1AogCtXrmB9nckLCSFdX1/nLqGWZaFSLkN1OLBv3z58+OGHOH/+PLq6uiDLMr6/dgPLK4uYnp5GOp1GOBTFgQMHMDw8bC+efpw+fRrb29vY2dnG4uIyNK3KH/pr167ZpKE4Dh48yD2sYrEY5ubmcOnSJTx8+JCplrQqDxIoFosoVQGv14Hh4WFMTh7Ds2fPoGm63QrYTp52HI1hmLbbCdntMNxAe4lg52X3qFwuQ5Lc/Hkl8UlFY72+Bc0+CJhJoWHzrI1yGUVdx9D+IZx+6yTeP/cBjkyMo6+3H6FwEKZhoVgqQFUckGRAlhTICkOuNL2GaqWGilZFNpfG7NwcvvnmG1SrVayuLQO6joot2AA8jT0ygToOhwOFYg6SBJw4cRzvnDmDw4fGEA6HuUSNEFS/38/D32ZmZnDnzh1MT08jk8lAlphvUS6TgmkaAifV2mWs/iJRQM3Q4fWznqharaKma4htrOPw4cP465//DQ4dHsP09DQCoSDC0Qjm5+extraGmzdvYmdnB5ubmzwXajO+xUj7yR3kCnkUSkW89dZb3Gq3XK1g9NAwLv7srzA7P4eVtVVsbW3A4/Ggu7sbLpcHxWIeuq7xmXOdNGLZDKBmOt3eQMteXlziJw86MyXUDCYjDISi0DUT16/fhCypcDgVKLIDFgxMHj2O//3/+N9w/Fg3srk0EokE/vVf/1/Mz8/D7XY38M2DwRBkWYFpWmhvb8epU6cxNXUeBw/2oVQCnjx5it/85jf45ptvsLGxwamfkUgEJ0+exKeffmqXzyP427/9BYrFAn7zm98imdyBJDE989rGOqZnZjC/uIx/+qd/QjAchdvrxWpsA//3//OvuHv3LksjURzweIPs/coqsvkiVle34Pf7ISkKPv7kM1S1Gn77m3/H3PwMtuMJdHa1w7Rk5AoF5PJFxBMJjB4chqyqMEygWq1xkwMa3Yl0SgL4XuSYxoQoZsPcmcZGTqcTumFxQ0BN02DYX6dDanR0FB9/+hkuXPgEkYgfTieTRWoaEIz4bI429ePs0ycDbjdrh7LZfuzfvx8Bvx+KLOP6dQfmZ2ZgVmtwOZxQJNn+VKBaFmNC1bQKc4VQVZbIOD6Of/hf/zO6urrgcADVqsn9gyzLQiDgQa3GepDDhw/bQdglxGIxu8Qyob4ElX6V/pAAHApV83q9GBwcxOjoKGchETliY2MDjx8/xuLiIhRFwcDAAJ9FEwhUKBS4lCybzaKrq4v3/MViD/r6+jA5OYl79+5hfX2Ngzg0vhKRxz/7B3emsCBBgSQZkCUVimJAMqUGU3ldNxs0w2z810jIp08qFUW6ZTqdxvz8vN1Hr+DRo0e4c+cO1tbWUCkVIasMed3e3kalUoHT6cTIyAgAZsbe19eHzs4OlEpFPjZ82b0l906R4UV4jdPhRt42mevq6sLk0eOYnZlnApd4AoV8ieMGhmHANEhdycpUh8uJqs08e9MacQjjLGobS6USavaB2NHXh4MHD+KTTz7DkSNHIUkSFhfXuGUUtbAM8ZcbstGIGONyOdDf34eOzjacOHGCV8SWZWFpaQHlchl+v7fu2UWURnrIBwcH8dbJ0zh27Bja29vteSbzua5UalyqWC6X0dXVhX379mF4uA+qeh6pVAorKys8jykgGIT90IsmcoCJHHDkyBFMTk7CMAwueUskEpidncXCwgIqlQr6+/sRDAZ5vCrB/WS5Mjc3h1qthvfee4+J0G2yyMDAAI4ePYqhoSGsri43yPCcTmeD59KffR230B+LzpAEEInG8qyPUzioQkCJCPoQkk/fm81m8eTJEzidToTDYSwvL2N2dhaLiwvQdR2BUJiH3+0kEkgmk6xns1lMoVAQXV1dCAaD/P8neuOeCiJ7FEaouniSkYtGLp61BTAyTpw4wQ0jlpeXUSoWodqgFxF+mPNvnezyohL6deWmrcaPdfEOW8jVchmq243x8XFcvHgRn376KaLRKNbW1nD58mVesdIGRqe7+EmbsKrKmJg4gvfOvYuxsTGcOnUKmqZhbm4OKyvMr729PSr2yAw4MHTWyJ84cQIXLlxANBrBo3sPkM/nEQgEMDAwAABYXFzEf/zHf+D69esYHR3l89sjRw7g008/xerqKi5dutRABnldG9hG0nqdM12r1RAMBjE4OIienk5sbycRjUah6zoWFhb4fLu3txc9PT1IpVKoVqsNSZN0yicSCezs7ECWZfT39yOTyWB7exuRSARdXSzD6vJlc9dC/iG64zfJuxbRzVYjFfZwgYcNiEwuEaOgk9DpdKJcLmNmZgZbW1vc27xUyAOwEAxHEAqF+L9zOJ3w+/0Ih8MIhUJ2taPz3rYeCEA8ghfLMwm4EtleDMxxcMpwPO5CW5sfp06dsh/kFSwtLXFPNop+pbUr5l29KT48mQw0VIsmZX4zhhns6m1wcBDvvfce9u3rRqFQw7Nnz/Dll19yOyXacMVyvx4ETwQcExsb6/D63BgYGEB/fw8OHz6MoaEhPHwY4eourn4i9pOhsxs7NDSEnp4INjfT+Pbbb7G+vo7e3l5MTU1x43dJkjA3N8fDpqnMmpg4gMnJSdy4cQMLCwsI+r02oZ4+AUmSiXZu/1rvSYDmE6g+bBdzoILBINh1Y/S5ra0tLC0tIZFIoLe3F8Fg0B6p1ACwxAPTrJ9CNE7JZFJIpXYgSRZCoQAKhRzK5SIcDgWRSKihJyJixetuRj9q8cpNII3Eqjq7y4Zp6bBgsbGEKkFRmSmdJcgE6VPk5dLpR+HuqqqiUqkwu9a6Vg+hcIhHByWTSS50GBsbw5kzZ9Df3w/DMLCysoLFxUVsbW2hUirC4XLbkbdFAMwyqP4J/nvD1CDJ7PUbpj1nNTUYpgbdLrNjsRgWFxcxOTmJ/v5+vP/++1hZWUE2m0U2m+WMN7Z4G1Mf9uK2vzrYSLY6rUFOWoiEZVRswJU07wCQy2WwurqMxcV57GxvstdkU1UtowbLpkzpcr2K0HUdMNl1XVtdRzqdxuBgDyIRtqmSDoCBoWwNqUQKt0yJU+1ME0ilUtywPRKJoFAoYGpqCn19fXjvvfewtraGK1euYGVlBQ8ePMDa2hpGR/dxB4k34R8shnKL+TkOh4OnXxBhnuxt/H4/FEXB9vY2/H4vf0iJjSTOp9PpNGKxGM/RIconofbUu4iii+YT7i9xEjcL5EUjOZF+KGp0qZJotkmir4v8a8IISFFEJ5zH4+YzVFPX4HR7cPjwYXz22Wf47LPP4HK5sLa2htu3b+Px48c8HICNwjwolSoNr429FmHubgOhPDHTXpTEJ8/n81hZYdz+QqGAjz/+GOPj43j//fexurqK27dvc101Y6WhwezxVYk8r1NaM7dLNAhnqLKQ7YqP9AuFAjOKJOsiAPD4/Nx1ltoeGmuR+ovYc8TN3tnZQblc52BXq1XoNsmJR8YQ6KEqjBud3EmjVDJ4OX3//l0sL83hP/7jDzBNHb/85S/xwQfn4PN54HY7EY/HEQj4UKmUsL2dRjy+CU2rIhIJvdAx41XJEKIahnofp9OJfD6P1dVVzln1er12Ah44k4uRD1zciJ1KY8b7Zb0Z2f1SmUnxMdvb23whU8knPhh/iYXcSi3Wala9l69Xc25yM3GFKhSxRKWNkkQ0lUoFpq7B7fXh+PHj+OijjzA1NYWhoX2YnV3AnTt3cOnSJTx9+pQJWzxe3rvTzxc3FMqlaj7ZYBqAVJecstMsh0QigXv37iGfz6O/vx/Hjx/HqVOnsLi4iM3NTWSzWQ5C6vpu7XGrxfxDDphWpbXoA0cbvWmaKBQK2NnZQU9HJ/85iqJAUtSGWB1yCCE2nAj6kfKJBeHJkCWFP7NOpxuK093oa+10OuF2eTkFjyJJo9EofvWrXyGTSeHKlSscEZ6amsJbb41DVd+G0+nEzMwMwuEw2tvbOY2Tsp9+7IncTIYQFzJpcAm1DIXqZSAxoMrlEge5KE6UnDBEaZ/oMEkzaBrWi7xwcXcWF/lfciHvJc4QT6Lmr4mMI/F9EFAoSuOo/yZEWJIkhCJRHDt2DOfPn8fU1BSOHDkIRQGmp6dx//593L9/H2tra/w0ptOe5U7JTSNH4USW5HoahKxwZxBiQNEmu7GxgVKphOfPn2N8fBz79+/H0aNH8ejRI2xubnJpoyxLezLx/hwfVO2RUwjdIzJApPfSHH5H96o55pV+JalpNBoRym2jobLcZSxAiqKBgQEEQkz04HS68POf/w3OnDmDUCiACxcuIJFIMIWUx4N0uoKBgQDc7ndx8uRJftG/++47zM7Oolar8YXRLGoXH0YRgRWVPnUjPZUjr2RqVqlU8Pz5czugnJHmGasnhNnZWayurqKtrQ0ulwvhcBiFQoGXLjTvo5yiSqWCiYkJDAwMoFQqcTtZ5gDZxk84eqiJJF8ulxtUQXtxrRke8GoLttWJYcHaxfoRFyrt2iJyTaZ7zWOnVqqs5naDjzLszTKTSkJWHTh27Bg++ugjfPHFFxgf349UqoKHDx/i+vXruHXrFubn52EZOhwuNz9R2WtxwulyceEDA8Ysjv7DYg8zGQOIn4Sgu91uxNbWkEgk8OWXX2Lfvn08waJYLPJRI/u++kLweDwo5wsNhny0iETE+EX2LHslhFiC3pxRiNn11kslwLb66enpgd8PtLe3o7u7ImlgXQAAIABJREFUm7mcVqvQqlU4bD6GuAkXcjmQM6ks+KK5XC60tbXB51MQi2kwDSZvpdaPpZDKUA3DtN8su/hbW1u4desWZFnC3/8Pv8DY2Bj6+/sbZn6GYSCVMhEKOVAqsTDqZ8+e4fbt2xz5dLvdMAQDetEh4lURRPoemiOHQiGUSiUsLS1hYmICgUCAJ/DRCUMPiSzLKBYZsZ6YShQjk0qlYBgGjh07hqGhIUSjUdRqNUQikYbexDAMuN1u7udNwAr1k39uO9xmEcnrnuYve220MZGpAJWodCJ4fH4cO3YMX3zxBT799FPs378f6XQVt2/fxrfffotvvvkGW1tbPCGQZu1UEsbj2w25yGKrRMChOBKrC+gBpxPc8dTlZiYFKysrePLkCdrb2zE4OIiPPvqIn9b9/f2wLHBFXC6XgwSp5Sb7pk7sXRMMG0Utl8uIx+OoVg9BlmW0t7djYGAAsViMB5WLlRbpqpsdbSYnJ3HgwAGEw2FoGpBOp5HNZrkmW3wPKvV7YqxqLLaOpaVFFLM5dHS0oauri/dMNNQGmCG9YRiIxWK4ffs2Hj16hEwmw5v5WrnWYF/SYH5mMCdAy2SfEhTu48sE7PXxCgVqh0IhVKtVPHnyBMeOHePh5YVCgfuN0ZiEDekL8Ad8sGy7mWQyie1EHA6nA/t6BvCz//RXODR2EG6PBNXhQld3JxI721iLrWJxaQGSJKG9vZ0jkKIE73UliT9sERs2us9M4NifLeHvzIZPSbLsX2H/+mINtQiykKMmhQtUq1WMjR3C+fPn8Ytf/ALDw13Y3Mzh+++/x7//+78zxldsDZBkRNva4PP5UC6X+cbqdrvtRQ04HGwUpus1u/QsoVwuQnGocDgUKIpke13r0LQqGEkJdmJmgAWilYqYm5vDt99+i3A4jGAwiM7OTgwNDXEbnVQqzyWMeqUCxc6JatUvyz+SrCReT8IDZPsUTSQSePToEQ4ODyMSieDAgRH85CcfwOfzIpFI8M1K/H6REEJVyWefXcTExAT8fj82NuJ4+vQpFhYW+OgJkCFJtgMqvVFVVeFyu+F0OrG1FUcmk8Z/+S//J9ra2tDZ2Qm3281rdOoPyMCtVCphbW0Nuq6jo6MDbreb5QrZb7CVe35zmFhr0YHcEBVDvQYFkn/00Uc841fTNAwODkJVVczPzyOZTHBLGEIBDYOBeEePHsXp06fx3nvvwe12I59n/lZerxe5XA4zM0zG6fP5+MiNnB1ox2zOSf5zzJVfJ0u58STeu1wXH2a6prToiDfv9/vR2dmJixcv4vz589i3rwsbG1l8+eWXuHTpEq5fv46N2BoCoTCc9lxZjJYhSq3X6+X3hgBHArHi8XiD+2Q9hsZqCJSnvllSHaiVS3j48CE6OzsRiURw5MgRdHZ2IhAI2Lxolj7R0dEBl88Ho1Lb07jwhwpZWhk/0GFIJJxYLIZr166hp6MDJ06cQH9/Pz777DNMTk4inU5z6yNqk5r1B0RwOXRozB6llnD37l18++23ePbsGYq5HHz2IUbvT6WZm67r8CoKQqEwwuE8CoU8UttlrG+sYXNrnX8T7RbMfK2EUIjNW6s1Zifr83sanBiaS4BWbggvQghJbF4ul1EsFvkY6sGDB5iamoLX6+UnSEcHy28aGhpCIhHHxsYGCsU8MpkMLItxivfv34/jx49jcnKSB5ABLE95Z2cHT58+xfPnz1Eul9Db04fe3l44nU4kEgluKk76bLFN+POcyLtlns067lZeX+JCbt48G4LfBHphqVRCMZ+DLxDE4cOHcezYMfzyl7/E8PAw4vEM/vCHP+Df/u3f8OTJEzZmkmTOtxcN7smGmG2eVQ4gEgegQV9drSAvgHFiODnF0NBh4PF4UMprSKVSePDgAbxeL7q7u9HZ2QmHw8FFM4FAgAerF6rarvf+Jiuo+viv7qmt6zri8TjLJrMdWc+fP4+BgT6MjvbZ/AfGByCslBn8EW4Ezskul4FCoYyFhUVcv34Dd+/eRWonAUCGx+1rjNjV7ISASqUCd03j0ai6rmH//v2o1soNjgiiBzEBLRTLQrOyaDSKaFsYmZ3cLteKVkqnVk6BImxPNyqfz6Orq4szub777jscPXqUx4ak02n4/X6WYt/fi7GxMagOhaN85HYSDAbh9/sxPz+PfD7PtKOpFB49eoTr169ja2sLDgeTxzmdTqRSKcTjcdRqNa4hbRWruhv4+nEPyqt4L7+sR37R2IVOkFKpBFNnD/2+ffvwk5/8BOfPn8fo6Ciq1Sru3LmDL7/8Ejdu3EAuk7arOgWb6zF2jxxOzpwjD7VKpYJquQTVyUwEqN1yuVzo6OjAyMgINjc3uWOmbhvQ15+HRoquoijw+AMwTZMLY9555x10d3fzjV5k7ol+ZuKJ9yrxK69zf9h6kBpAwmIuh+TmJq5evcr/7YkTJ7Bv3z4+KWjeXMTEFDqRFxYWkUgkcOPGDdy/f59nrDndHh5sSPdapQXaCHTUUCgUIRmMeUPjGSolRYS5WCwCAPr6+iDLMgdKSAC+yz2/yYXyRSMXYiTRwyzu/MlkEl999RU0TePGgGQeyEwFfDh37hx6eruZdtUG62j2l0wmuUF9KpXC8vIyrly5gqdPn0JRFHR0dMDv9yOTySAej/ORGpWQogTzz5UDJV6vV334XnQitxqflEolmIaBcLQNR44cwU9/+lNcuHABx48fh2kyHnYyyYwWDh48yFsrp9OJXC7HZ6fZbBb5fJ4juQAQCLHc5ePHj2P//v382RkYGMDU1BTK5TKXjWaqlabxWR2MI68r2kRzuRxWVlZw79499Pb2YmhoyFZ0BRuC5Cr54i5j/De5kOv51AyDcTkcnG5aKxaRTu7g/v37KBQKePToEfbv38856yKFWRSMiLZbrMXNYG5uDvPz8zBNE4FQmLe1DaW16nDD5wvA7fYCYKyRQiGHbDoFmAY8Xhe/gCKHlUzxZFnG/v37cebMGbjdbjx+/BgLCwtIJTNw84G3BMPUYJmSnTerQJItG9QyhV8l/it7UxQtakGSyIVBt1+LhtXVVdy6dQOmaWJiYhzhcBSaVsX2NuvJ5ufnISvMtH1ra4t7iYXDYU651DQN29vbuHnzJq5fv45sNssjPlRVRSqVwsbGRoM4n04IQlr/0uKJV9VAvyxJkkYxXp8PExMT+Ku/+itMTU3h0KFD8PuBYpH1fT09PTh37hzOnj1bDwIQvKTi8Thu376Nu3fv8gpHlmUcO3aMGyEODg5y1lZ7ezvOnDmDZDKJubk5nmcsbliSBLicKiTZQq1aRa1ShN/ng9PtgJQDSuUCbt+6hbHDB9HZ0YFgOACvR0KhqDAjfd0ApN0a+FcnhMgAjCYaceOHYpNbDI1Z8sgAnLbFT9GyoFWrSCQSyGQymJ2dRU9PDz9UaEMU86pFpZ2qqra9k45UKmWbaTCXEeJQhMNh/lpVuripVArtnZ04fvwYenq6MTv9DKvLK6iVa6gUGSgSDAbhdXl5qp+lW3A73BgbHcM//Od/QHd3N/7lX/4FD+4+YDcjGISu1+yewIKiOLhaRNc1yLLKMiMk9nXJTiEwYUECy4CFxBQzkWiYC69hSejt68F2PIHZuRkmVXRIOPfe+3jr1EloNeY26Xa5UMgV8OzJMyQSCei6jra2NgwPD6NSYkP72elZfPfdd3j48CFymRyikSgG9w0iHA6jXC5znymqRqhKqFQqDX/X/ICIaXo/9KMVOi6qwpo5wHW7GXDDPp/P1xD/SYykQqHARom6jo7+fkxNTeFv//ZvMTTUAV0HMhkdlVIRbqcTb58+jXNnz8LpVOFwgIsT8nkTHo+M2dkVKJKEtZUVZNMp6DUFPT09+PCDn+DixYt4++0j0DRgY4O5nUYiEZz/6Rm0hSP47//9v2NteQV6rQa/zw8FErRKFQoAo6YhmUhgsL8Pz6ez0Cpl+P0edEQjSKR2sLK4gP/v17+GVdPx+d98AbcDyKRSKOVzcDlUGPZDL4Jnovzw5aNQ8ev1E12y76tDVVEs5qFKMjxuL/RaDdVyGYqiIhQIImcxT/FKqYh8NotYLGY3w9aumTVIn28HpvNnwOHkAQzBYMjGNPL18Dg7DEqFwcppXde5z9K7Z9+GbH2Om9dvYNN2lIjFmJkdeRAHAgG2WOySJhgMIhxmgVXkmkgjELaz0bhERt1Z0xT+nv1KRHUm1JfshHc0AGOWZQEG0NbO7Eh3kglcvnwZMzMzOHDgAMbHx20bX4Zmer1etLW1cX+q+/fvI5VKYXV1FcvLy1hdXUUul7NN3cM8aoQkZ3uhiy9S9byJk3Yvsj79mXopuj7xeBx3796F1+uFpml4+PAh4vF4g0SQqIB8Hm5vSisrK7h9+zY2Nvp4j+mzPcuIUdfsGe3xeJBMMryCHEsVO56HYkOXlpZ430wiB8aNDiMWiyGbzdqPsoRCkWUpf/vtt8zSaHUZz548QSqdZA+/ZEGyA98cioJcPovY6ipu3LwOWZHQ19eHtbU1LC0vchT7R4GRFiGuFn9uCdziOIOqsK+ZOkzDgmXb/BqmxXEIWfbs4sGbpgmtWgFssYRIMOJEJK0CRZWga41tKZXeDW0SpDpziG748PAwjowN4cSx41hdXsa9e/dw7949zM3NcQ/pSqWCZJLJCInyWC7X6WmlUgltbZE9H95XeeB5gp/QS4j9tphAwHyqH8DrZakYBw8exKmTp7jZPKX6LS4uYnFxkSfikTk/ldNUrqTTaa74EbOexEC0ViYDb3YMZfF+sdUCV1UFiiLD4VAhSUAstoY//OH3mJmZhmEYeP58GqlUaleweHPvnE6ncefOHc4BoPfndbt2aWXp/5JlGW1tbSiVSlhYWMCzZ89QqVRsG2QGUF25cgWxWAxXrlzhP0909VxdXcXq6iqSySRjfek1LpN99OgRdpIJrK2tYXt7m79WmrDQfSdd9PLyMqJRZpi/urrKiSg/RD77qh9EzACkhkgZQtt1Q+fjWwpLEKcF1KLRRtlcgaXSO7YGPMXsj0olfh9YHI7AtZZtlNrtdiOTyeDOnTvIF7JIbh/DubNn0NHWhkOHDuGnP/0pnj17hhs3buDmzZtYWFhAtVbhuwSRx2nHeBF7Zq+HvdWYoBkAE3esTCbDTefa2to40LC1tYVqtYqZ5zPcMdPv9yOfz3OyfVWrQpXZCdPR0cHRT9M0uTa5ajPEaMOgn91cTrc6kV8F/HrVELe9HkTaZEiOmMlkMD09jaWlJfshYQ8y2RxTG0VzXrLB0TQNS0tLiMVi/OFkzLxaA4GieZxIJ3uhUOD2T8FgkC+2p8+eYGlpiV8r4lDXbWHznGYaDAZ5GTwzM4Pp6WnohibEzbi5Ooirjex2gdh69H7E+Js3uZDr319fsEyIYyPHKjNIKJdK0PQa3LabzZkzZzAyMoJgMMiTNuj6ixtk8wa7Fd/A9vY2bt+6i4cPHyKbzfHrzEhKwkI27WNeVVUYpom5uTk8evwAl7++hET879Hd3c0MBE6OYmJyFOMTExgZHcWDBw/w6NEjdHd3o29gALKqolKrQVIUeP1+XjzvtaD34rE2o7XEV94VNm3nB4k7fTgc5koSl8uFp0+ecc6ux+NBpVJhYIzXi85AF7+Afr8fiqoib1cS2WwW2VyOK65oY6IHba9RWSvRwpsAufb6v0SAhK5FpVLh9sWKwm46OUGKM1+6vuI4pFQqsXIP9sZcKbdcBHUZpS7QPZ3cnJH+70g4ym2I6e+q1Sr7OXoNLlvBQxsRzZfz+Twq1TIXtNQdQOSGEQ3ZHBMfn7AMAouaY1Vet1oypaZpitR4PxxuF1SHg3uzKbIDlVoNmj3KozAEIoO0twehqmw+nMsxww7J1pi3mjIWSyxL2e9jE5nHjx9Dr9VJWY2ltWlwYQH1tnPzM3j+/Dm2t+Lo7e3FyZMncfbsWUxOTmJsbAT9/f24ePEivv/+e/h8PvT19aGjowPZbJaX1aVSCe5w8LX6yMYTWeLoZXPkh3hDaQHVhGgOYtmQvrhQKHDiB4F2NF4StZ+ZTKYha4nKnWZe9V4IaPPvX8W36sWFtfXCBU3Xg9xLaY5JTD1N0znK3Jwp7HA4mOOHPTKh76nZnGuXywXT63nha6X/l/zUaDHRSdXZ0cXtfIi2SRI9WZbR19fHXCd5+qLFR4TEU6DrL4bN0aZOs2kax4j6XnHDfRM65ObxHgC+eWqa0cBK8/r96O7uxscff4wzZ85gYmICnZ1B7i1OvxJSv1csUTjigcs1itx7BaTTaRiGgadPn8IwDBSLRfh8XmEhCyAOPfwejwfFYhGPHz3E9PQ0Hj16hBs3buDUqVM4efIkDhw4gEgkgo8//tim0Dnh9wPlspPfYNIEvyiF8EUnNb8ZplDOWQyAkCADloVCvsh5wg6HkwVx27lCumagvb2TUwTT6bRd3vkRCITg8wXgcDiRzxeRyxX4JkS6XEVxNGTjNj/MzTPwvUz3fyzhYC9llVil0EYmyhlF2iMtALGspYVMGw59ik6p4qy81fuhflkMhKPSnXjb4muhqoaiUEWDBHrd1P95vV4Ypt4g9xOrHZKnikARncLNTLHm5+2H3pf6QrMa7g9VOaY9LThwYBQffvghfvaz/4Suri5UqzVcv/6At3yVSoWnZO5l9SPLEoaGmcnk6MERfHbxE04NnpmZQSaTblzIDreHAxyEXjPDswD8Lg/y+Tw2N2LY3IjhyZMnuHXrFiYmJtDf349z587x0GZZ9nFRAT1cP3RHpAstniKtQqoDgQDfial0rBu/WTwFAwDKlTIAixvdE1hHaRmUAUwqHvYANdr4vmwjet3g8x+btUz9pejHJWp/KVxMlCpSKUqAlhhCL7psMoKD+sLXUwfdVN6H0ynt8XhQLpUb0G7Repn8x0WTB/oaaXcNO32QDgVx0ZLJO7WF4nMiUoR/jILsZYuaNkJNs09/i5X8o6OjuHDhAiYnJ6HrOqanp/HVV19xgwSRe073QZRwkhT14KED+NnPfoYPPvgAb731Fgr5EmZnZ7G8vIycXWFCYoIZlXbzYrEI2OqnTCbDAA+bcgeA945/usJyg9xuNyYmJnDq1Cl89NFH6O/v53GlFLolniwiBa3ZYaMVZY0uFnkTkw8xlY+FQoGXwdz32n5AyShPvHG9Pb38ZlJ6Ar13WZb5ZkYLmS3gxvmjWLaJxJhdCRlvSEhhmiZUR13KKUkSvJ66fZFpAZpe5a9DURQ4FAWKKsE0wDOJ6JSlk5nE/wS2kL6aWEeUr1wpFTlwRDRYeniJ3kmnCU0yxExfygYTJwf0QWMnQrBFySoZ+Gk6A81IJkkYBUkuiest2ujS78k5hp45ApPohKcoIXEa0mywQG2aw8E2IwpR40Qar9demAwh12oavF4v+vv7ceTIEYRCCjY2WArH119/jYWFBewkEoDFGFrkTCNKdeubjonY+ira2pgZ5OHDh3H48GF0d3dDlmX4g0FGsrItqlXxgSSuLIEIklKnizEPJ5aASA/EwsICstksZmdnEQ6Hkc1msba2xp0pW9X+r6IHFctI6oNEKqnoqkDieJfLxZFnOs09Hh/3c6IHieI2FEXhyCEtRhJfiOOWV9EIv8h0/odv+WSG0PjzyIGx+TWIM+66Z1dj/jGdmOKnaIYvItLVahXhcBj5fJ5vkAQ8UaZxNpvdNd+kXluSJGxvb/MTWVT70DybHCXF05b+rWEY0A2Nn1AiTkKbN4UEiB5x4qZLiDw5qdK9pwUsmgzQ6xc3G8OiTUDmJTU77evh6axCYBVBrarbY1gW9bq1pWJtbY1zFXZ2dgDLhKSoiEajmJiY4AtzZmYGT58+RTKZ5KSRra0tTkiSZVaBBoNBPkptALtEcQKZsNFuVimx3VdSWMngd6hwuJw8GVCSJKxvbiC2sd7g6K+qqr3LSg22OOL4oll4IN4IEQWmh4MeOtIm67qOVDoJn9ePrq4uLqUjTWylUoHDXeQnAo+yrLEeBaaBjq5u+2crzHkSFmBZ0EwDMiyoL2BW0cLZSxL340vruhE6bbRUktH9yufz4MqMZnM9wwDAfKII9RV7STKIoBOOpKJk6E/vi1VXbPOmaoUWJ5XK5P4h/ozmrF8i45iWAVliC7lSLUNCo9MnacqdTidMy9Pw3gkko4pPXJx0MtF1F2NcCeWlMHuPx8N55mQnJPID6DpWNZZBzJlWdoXGylnAbSP+bpeXAXkmoDhU6KaBSq2KNmfbrh7eNGUutfzkk09w8uRJqKqK3/3ud4jH47wdtCyTbwjsea7BggGHU+EjtkbUWtjJyWeLULFMMsUvVDOThGxzKpUKd+eg8YOmaajpGlwO9y5nkGaXkL36GMr0EcsNeniJXtjb09eQZp9KpSDLMnp7e9HX1wfV5eYotc/ng6Zp2NjY4Ew1Ks/JSZIeaBrFhPy+XSX/XqHtrUZtP3aObBgGLNQT+OgBpnGNSLxvFcOj1Uy+KOlhJamh1+vlmxwRJ6gdCgaDcLlc2FyP2YHywYYMZQJ3xJFbs+Uu87b2NSDIpE6ihetT/Hzxi0HgFEZHgJiYRkltQbFY4OCd2JuTgR0h6A6HA6FQiKPemUyG2znRuEr8Htau2YebwwUTlk0YBmTbxlZR65niVMXx1sY+eKiKoc2J1pYptGXd3d04cuQIfD4JT5484UAzw3o0OF0q562Xy2WO5VBl2TR+MhvApWw2i52dHWQSCcCyYBgq7yVFa1qv18uZJkxoUeDlL834YBotS+tXLUMdDhd03eR9nSwrqFY1aJoBv9+NY8dY+gDFqPb29uLMmTM4e/YsRkdHkUxn4ff7EY1GOeNoc3MTS0tL2NrawuXLlzlzqFgow+eT4XZ5G3p6UWbW7FTZqrpoFav6JuRy1OM5nU709PRgcnISkUhk10IWpYCGzvriZDKJ5eVlrKysoFYpI29vDrQRE6JNuAI5QWpaDfv2DWJychKBQICnQOZyOY5FiP2leAJbloV8ji22aDSK/v5+DAwMIBqN8k2JuACKoiCRSGBmZgaLi4vcicYf8PFFoes6otEoDh48CK/Xi+3tbU7cIaCTNgw6nYmlODY2BlVVsbKygtnZWSSTSZTLJfh8fuzfvx9jY2Po7Ozk1NJCoYCarsPt9sCSAFmW7F6etZhuD9vwV1dXMT09jYX5JXsqIgtAqQbLkiDLKhTFwWJoNbIzMqAoDlSrGkyTzZA9Hh/cbi8kibV8WrUEry+KUCiEtrYIPB4XMpn6Omw+CFSRHVIqlZDJZJgrZXs7PvzgJ/D5fPD7/XzXU2xzMTp919fXMT8/j+XlZZ582NbWhp6eHpg144VI7l6lNf17kRNMZTv9fI/Hg8XFRaTTaXi9XkxNTeHzzz/HyZMnYVkWtre3eW+czWY5AywUCuH999+H2+3G5OQk7ty5g6tXr+Lp06fIpJM8V5mBX4ptQdM6ZE60MHrRqO2HltaqqsKC0WBi6PV6MT4+js8//xzvvPMO32DEzYNeq8vp5Wy2mzdv4tq1a9wjemdnp8FFk9hclUoF6XQaeq2KgQGmTb548SIikQhu3ryJarVqJyMyYKceZCc1IN6WZUE3NPgdfoyPj2Nqagpvv/02+vv7+QlMlZwsy9wr7tKlS/j++++xubWBQqHOGnQ4HBgZGcFnn32G/v5+vhFns1leOosYAZn6TU5O4he/+AXa2tpw69Yt/O53v8O9e/dQKOQRDocxMTGBv/7rv8bbb7/NW8p8Po9KrYZsNgfIEo/gcbvZAeX2MJzg2rVr+PLLL5FOZbG5tgZA5pMTxvFX0dbGrLKi0SjW11YbQEdy3PR6PfyZIcMFMrvo6upCd3c3/H43n7eXy2VUOSnErM+R6c0TIHTs2DEcP34c/8v/9D9zsEvc5UjvKcsy8vk81tbWcOvWLXz11Vd4+PAhyuUyCoUCPPb4Yi9L11bh4I2ltcFBJ0I+qX+yLAszs9MYP3wEFy9exMWLFzE2NoZCoYB79+7h6dOnsCSlQSLm8/mwb98+HD58GB0dHdz3i+JPbt26hUwmw+bpQZ99CjaW1M3G562AvDflQkHpEiK4QwYJR44cwdjYoP1gALpu7TodfV4PLIuZBfT29uL/J+49u9y4znTRp6pQhQw0QqNzsyMz2YwiKZKmshzmeDx3XXvm2rPWPfMvzrr3l5x1P3vNh5nrmaPRWCNZFCVKDBJjkxRD5wSgG93IuVDhfNj1bmyA3aRsH5+hVy/JItkNoHZ43+d9QiKRwPXr1/HgwQNkNtMc3aXPkz5jVVURi8Xw4x//GD/60Y/wzjvvcG7BvXv3sLq6inK5zEtyKpfpVqSbsS/RjxMnTvDvMzk5CVWVUa02eGtGJJ0DB/YjFovxGJqbN29iJ7vtvBcTiuLB8PAwzp8/j0OHDiGdTmNrawuzs7PY2dnpmB7QawCYr9zMzAz27evjQpK5uTlUKmXeQ1PbwQ57DxKJOGwJqNdbLP7bpirM+adkdUxHVFWF4nbzpAsSi+yfOgCPx4NDhw7h4sWLUFUVq6urnJJK7jqNBjgopzebCITCGB0dxqnTMzhy5AiCwSCy2SIWFxeRTCZRb1ShqJ32zC4obXAAsoxQKISTJ0/i//r132J0dBCtls0DwlvNBi/HqMxjOUnMEod6y42NDei6Dq/q2jWftrv83OtmqteZfRDNDMvlMqLRKEdMR0f24cMPP8Qvf/lL9Pb24u7du7h37x5KpRL8fj+GR4b5qUf9xfb2Nu8PM5kMwuEwLly4wC1q7t+/3x5PaG4ALxMjXmWG8L+SoN9qtaC42p8RURGpT8pma/x5NJtNPk83DAOmYcPj8SIWiyEW68GJEyc4VZNGjK1WC7FYjFnfFgqcZTU1NYUzZ87gzTffxJEjR9Db6+NgkZgkInqWidxverZX3voRTp86g4sXL2JsbAzVahVra2s8sZPMGgYHBx1H03689dZbDKjUXPiPzz5zNloDFgB5dbkpAAAgAElEQVS314t4IoG+vgBMM4Hh4WGnd2/C5VI75unsubenEMxCR+sw3ctms3jx4gW++OILJJNJ9Pb2wu/3s17V78f45IRjtlHnLjiVSgX1RpUHqr148QL5fN5BvZl9czKZxLNnz3Dk0FEcPHgQMzMzAIDJyUk8f/4cjUYDY2NjHIHW9VYHKDcyMoLLly/hwptv4NChQwCAxcVFPH78mAlCdB3haLRDaulSXC74fB60Wk20TBNXrlzhpUg2V8I///M/Y2VlBa1Wiz98w2HaDA4OYmJiAh++9z6OH59EpfI+7t+/j7m5OXajetwdlEoR6OiWbIm9J/chcmtoWSZKBca86unpgdvnRa5YgKZp+PCnP8F/+3//H8zOzuLLr6+jUCggGAzi5P5pFuq9keZVBo0YCOGem5tDJpNBb28vzpw5g5/97GeIx+OwLAvXrl2DabXgkmT4/d4O1hRFiu7mpvmSnZH0agxAcb3axkcRUGDDMFAp12C2DOhNA/VaE8GAD4uLa7xcpBRDIlB4/X709LBNfPHiRZw8fRAWbMwtzOO727eger2oNeqoNerI5nOwWy0Mj43h8hV2C3/w3vtIp9N49GSFzZX1Fhp6C6VKFY1GAzu5PN/cNH8ulysAbJw4dQqT09N46923cez4QaytbeLGjZv47rvvsLi4jGaziUwmA7/fj/37p7C6sY7Lly/h1KmDePu9d1Co5LG0toy7d+/C5dEQ6gnCH/ShZeowbMCwDRi2gWBPEJ4tNjYNh8NoNBqIx6MsqqVSgwWgWC6jWI5hJ5dDanMTpUoFXn8AjUYDL+bnUapU8GB2luMGvb29+NGVS9jOZvD2O1dg2z7c+ugGPv/8c6yurrKEymAQuWzBAU1rfAqgNxrY2GAV6tHDx9BqtbB//35cvHgOx48f5/5x5FcdCgHb200+5ovGYrh8+TL+63/9v3HmjUOo1WzMz83h/v2HePjgEbI7eciyika1AU+/B5Jmo1oqwmUaLW6DE44wFVAsFodhGfjv//3/w///L//MlSXFfIGX1qZpwqUoGBsbg9ulYnh4GIODg5icnMSDBw+4Je1uhmfd4NCrgCFC/gjFJCbQ4OAgzp07h3Q6je+++w7NZpOffPPz88xDuFLn4xTqm6rVKg4fPoxYLMZHbqxP8WFoaAgnT57E/Pw81jdW4XN7oChtayNCT8UeWRwDdJsJ/rlJFKL5XJuw0P48V1dTPGT+yy+/5OM6YjyNjo0hGAwin88jHA7j5MmTCDg84L6hIW7P06zXAVnG+PQ03nzzTbz11ls4e/YsP/wIB6CSlf18qUO1w5+v82c1TcPU1BR6EzE0GhZevHiBGzdu4MaNG0gm07xSkiQJW1tpNj+FzcIFPCqGR0Yc90wFRrWBSr3Gx2OGCbR4cJvFabrEDRCFFWIIQvdhK8syTEe9RVVYqVRCOp1GKBzAzMnjkGWgVqsjl9vBxsYGt5IKBAKolGuoV6uQFJXPpouGgZ0dJj/85JNPcPToUei6jgMHDnBU2uViBnvZbB3NpszxJeLMk/glm21gbW0FN2/cwLVr13Dv7gPuk+Z2B9omlZbExk+ixS0rXRWsJ7extLSEleVlwLQQHBnh0LrP62UKoVwOzx0tcKPRQCLRg6GhISeNIg/TDOzaF+82pnmVwof6FzKfj8fjuHDhAnp7e7G0tARN0zA0NARVVbGwsMAsQ6tVVMpt50ZCYrPZLCRJwtmzZzE1NYVms8nL7kAggFOnTjEuazHnEBZ0DraJuTwiyUKcm4rAE4xX38ivM9ZrCfzj9ofVBtjC4TC/DUulElq6DpeqwtDZYn7x/feQHJLD8ePHcezYMcTjcYyOjmJ4eBiVSoXNpW0b09PT+PnPf473338fBw8eRDQaxtzzBei6zvvWDsscoUQVPxOHFwpVVZFIJJibZaXi6MVZf2oZJjQPm+U2alVsrK2iUqmgpyeMs2fP4tjxI5iamkI0GmVpIuUy5y6w14AOJRqZXVDfTWuJelhRSy4yuEhUQySjVqsFs6VzQKktlbRRqzF+dKFQgK2zYHVVVREIheB2ezn4qygKN8j//PPPsbKyglQqxXEZGuUqisKjiTY2NvD06VOUy8z5Y21tDbdv38ZGagOLi/P49vZtzM7OIrO1A0gyQsEgEolERyXoEo3YiAlTrxsw9Ba7Bb1eWIbJRfeapsHlGK7R4qeZVqvV7pMU6eVspL0M07uzlERgiXo/Jvlif3/fvn24cuUKYrEY7ty5g56eHiQSCczPz2Nubo7nIgf8IQ7KEUhFTDRFUZBIJDg4UalUEI1G4XK5MD4+jqXlBTx78hitFiPIiIAfbVS6ncQF3fGepT+P5dV92BG4RABLT48ffr+fEzVIzkh0xVyhAKvV4na0rAJRubSxVqsBpone/n68/fbb+M1vfoNjx8ZRKll48WIBd777DrFYjD9j6o+743KI7+5yuThBRRQB1I0mR4MZkcKPeDwOSZJQKKgol5gJ4s7ODqrVKp/9xuNxRoPMZvn7ZmPIl61yiRBEwF2r1YI/6OOXTzeRR/z/XPQgPDvx9YvPQZZlWCqzAqbnT4AZfTasymPed/Pz89ja2sLXX3/doeYSJaTE+yes4/79+0ink/AFfMhmt5F0Eio01cOrDAIl2xvZWZTEdikWi9B1HUNDQzhw4ADG943hxYsXSKfT/OTTARQKBZ6nfOjQIaeEKzBXjabOT/DXOUTuBRqJ7oL0sOj2SyQSGBkZ4Tet1+tFJpPB06dPkU6nITugnShkB4BgyA+Pl9nb3rt/B4GgDwMDA47SpoX0ZpIhimFWfi68eM5LaWKuiWoX0S1jt41sw/rBnly7EkK6iB4UQtee+YKj8jTyEamMqqqiKcj5xBB0RVFgt1qAg4ITsg0Ajx8/xrVr1/D94yc4ceIEpqamuJE9UTSpdBWliW63G03nNVLv7PV6YLSsDqUUHYIUGiAJlFh2W7Hnzy8JZ32Gw2H4/X6YJov9LZfLHSILTdN47E8mk0E40pk0If47VTpi2KCoxqLfVxSV0zF5FQClg/RhGBZ372Q8CjdM04Jb1aDrDaTT5Q7n2W71GD1PVVVgGBK2t7ews5OB5tFYtreuQ9E0Lps0HbJLMBjkrRZndlFtvrOzg2w2iyNHRvCrX/0KkmTjH//xH7G6uspvR9uyoFcqmDl7Fu+++y7efvttRKMyFhYy2Nra4gwdBP0v3cYitXE3hVS3Ekc8cSkWhm6TarXKADC3G0+fPsXq6iqfY+/btw9ra2v8xNQ0jRuXk4n47du38cYbb+DChQsYHh7G+vo6t2vd3t7G3LOnyGQyfDMRwZ02N932e5XWr9vIr0O2m86BIfKhxWRKTWOvwefz8dKSFGEAkNnZAZxNRQe1LIOnQyjOAgKA9fV1fPXVV5BlGV9//TVu3bqF7PYOent7HQqm9BLF0+/3s3AyYYxEC5bmwy4X+MZXVdX5721bYWKaeb1eHs+jaV28A4c7QHY5OztZzM3NMYKLrnORiyRJ6O3tRa1Ww9bW1kv9sHgbEk9BxB9I/EHVKWx5z1aQDgG2ed0dF1Gj4Qh47Pa4srtf7x4V0hyfGHSmybQOgBuG89nRwS87pKuO0lpxrnvqIVZXV/Htt9+iXq9h/8EDOHXqFO7evYt0Og04FDNd1+Hy+XBo/wEcP3IUoVAIz59v4uY3N7C+utahJnrVTdzNgOqOkqE/J4rHidhBkD9ZxmxtbUFRFPT19XHGkwIJVsuAAgkeVYPPzW6UVqIPkuUEUpcr8Lk9GBocQrXETvhYLAZNceHZk8ectkjAD90aouf2Xjfy68IYXweGeRRXx8HgcqnOvzOfKF2HE+kpQ9PczmJ1odnU+Sbx+/1IJBJ8ZlmtsmQJivchYOXu3btIJpNotVpYXV1FOp2GbVr8/ds2OMOKbhGiN4qMPtFzmd3U4Jxh27advtXDb3f2ubX4Jqc2jf5Os9kEHECLKJHb29u4d+8evv/+e9ZbB0OcutrT08OdQ8XnoShyB0ecCFDieqPqjairYoqoLMtQZJV9OWugXm/CNG0ALQcMNTt6d7nLIklsScgZhSpOOlTakkYXSpUyXC6Zrzeu8HMOShqZ2rYNlyj503Ud6+vrqNXq2NhYx9rGOgyjTQkLBALcCaKnpwe1Wg07Ozu4d+8eHj9+jC+/uIZkMsmzivPZ7T31untFxXS774tZss1mk6dEkJ8yUTODwSAymQy/eavVKv9ziqIgFApxpVM4HHZGJWUumyPjtlAohLGxMQBAX18fVlZWUK1WuWRP/MBpUf+pG7nbiqb7l+bxdqiGuiWV9brRYe1Df7ZQKKDRaCAc6UFPTw+i0SiP2ikUCkilUkin0x0c68XFRaysrPB+V5ZlSHabvWaa7Tk2KYUMATmmL3EjEEBIEtg2t13jtFs2CWBodKVScQA4i2d20UYW2YfEl19eXobb7UYkxML9RHVT90aWpM7A9W5tAeEK9BmK8kjRe9pstWA6QQ5EVGpLEMHL+56eHtSrnXN+mml3q/jo5xIjjI07Le5z5vcx6WqzwWyrG84B1Nvb26ZoktVNLBZDf38/1tfXsbS0jLt372BhaRHVahmrq6ssw7VSgcfjgdViD5tkjAGfH+l0GisrK5wV1BIiVXeD/slfebeNTRWCT2ORraVSiStXyMGjWq2iUCggEAjA5XJhaGgIT5484YT4ZrMJn9vDeeIkuaO+i6JUyUSBgtvOnj3LEx1FrWi1WuWiAyr3RZrmbhvZtIzX9sjighHLNkmSYAmheZSwQAcI3Y6NRoPfbjSa8AdDGBgYgOZx4/Dhwzhx4gQGBweh6zqeP3+Op0+fcj4zgVm02MrlMixdh+r1wufxcjCITCcInKnX6+jv72fSPOe9EKmBJKHFYhH5fJ4vYKJ/mqbNZ+OWZTHE3UHed3Z2UKkMOsINLwpZxmH2eHxQFBUulwZZdiGbzcPnDTie7AXnYLHg8fgcdZwFX0DjlEhJYpvC5eQx2abx0iFpGAZsy4KrSzopRutKisJfg66z/eDxeHk2GQCMjY3h4sWLaNTqWF9fx4sXL5geoMZ+X3apHSIise00TROmYQC2CX84jOHhYRw9cgSxWAxrq8yRtFYp8/BCj4cBn67uEHAyqKtUyihVytA0ASmlAGaF6VHX19eRSqXgkhXusEGxHblcDh7N9Vq3jFcBYgRkUV9Ki4Xm3vRnNE1Db28v4vE4MpkMz2gy9RZHeOnP02lNYyfR2dA0TeTzeSwsLGB+fh7Ly8v8ACDeN5kYkE1Lt2xPLIU9XvcrNzIRTcS/02GebtkdSiP6DGgTU9Vw/vx5HkJH79Hj8aB/cABjY2M4cOAA+vr6kM1m8ezZM4YnLC1BcRhdYr+laRqazoKi78MwCg/noFNJuLOzw3ECQlEbjQZsh+5LpgGBgM3BR9GlhKoI0hUTMi5mjMmqCsv5zImMMzw8jKNHjyKzyfCYhtODEiBJ/SZ9Xwa8dfbqxitieMjtYzc/LXEtkzFDs8my02DbXGf89ttvA5aNpaUlRCIReL1eTm0VjQl2U62xC8HEiRPHcfLkSVx8802MjIxgYX4JlUoF31y/jkql4oBdTplOG5nE5PRGGuUyGrUavAEvmwd6vZwCaBsm5zw3Gg3U9RqfQUejUZitFvKGAWiuPYUSu9Ead3OlJJMDgvcty0I2m+X0POphotEoYrEYVldXUSgU0NPTg0KlDMOQBS6tBkVhRvjVahk+nwcjI0Po6Qkhk9nE4GA/4vEoksl1fPXVNTx//hyFYh4+r5/fvIQOU/lJm263jfxDSutuQIYWG0neOlw7TRNmF5d4YGAAoVAIZ8+e7ZDOKYoCzeNGPB6Hx+PB5uYmHjx4gFu3bmFxcRFwqhMRhyAwiCR+IvVTFP+bpgmzpaMu+IDRTWw7NxwBN263G7Lk4ogzXRh0GIq2sux283AcJBgMIhqNYieVYnhGrQa3243p6WlcvnwZy07ImeZyYWBgAH19ffD5fNjZ2WGHpLPx2GWAlzKWXnehyLIMWXIxlBrKS5bAdKBRyQ0HA9g3Oo6TJ08iEvZh//5pDA0NYt++USwtLaFQKHQg5t3CG9HA/vDRQzhy5AjOnj2LkZE+hII9uHXrFu7duYNcLtuxdlyiLzXR04LBEDSNxYrorXZpRw9VtttG45IkwVI1/oKYeqP5km1sN+q3l6nbbswo+vBdLhcHtogTXCqVoGka720XFxc5Ck9JE4QwE+upWCwilUrhwIEDmJycRH9/P5aXlxEIBBCPx7GwsIBnz545zptSRxidOKsURwi7bWTLMn8QIUTUW3f4W1mdYxHF+e+0QWiRkpyQNqTX64LbDWxts4Wfz+fx4MEDXL16FXfv3mWh8U54O8kYqQekRUUYQr1ed57lyz0mgVMErNEcWXGsialFoFuRbjDDMHmbQvNg8QByuSRuBBkKhbCztcVbKRb7w2ymTp48yayldB19fX08yC+VSqFQyCMSi/Nbnt4rtQi7XRwSedMK3AZZ7lS5iaO8DncTVYXpVIv0ufXGfEgkEjh16hTGxsZ4yB0PmXOy07opy3y9awoikQji8TgUhX3+pNWmmfxLxgL1eh1hy8LBgwfR3z+AlZUpXLt2DcsrizyutF1OssVWq1ShqSpkzc3p203HvYMoaz9UaLDX7UwlGKGi+Xwe29vbqFQqmJiYQDabxcbGBker4/E41tfXsbi4iEQsCss04Xaqh2KhgJSDzCqKgn2jo+hLJNjvqypcioLtTAarKytoOA4U4UD7JqGTtO3pZf9ZYFdnjKjUEc1CG1lV3YIVUdOZCATg9wehKCpKpRK2t7exs7ODZrMJv9+P3t5eht4GfTyqZW1tDXNzc9hKJgFZRiQS4aW96HtG78eyLMBqW/hoGjriYsRyX/Q6E98bjbwk2Ny8nrHzah1gESyTH05sM4OPYcjtpOEAZqVSCcAAt2mWJAkLc3NIp9P8c0ilUgCAffv28eA0wwA3vBNv4z1La3QmW+7eFqLjYC/rJsqlKtfIu1UNiiJz0w22dhR4PO185N3IfZSXnC/W+IFRLDKtNNFURYEKlzESgGHbNst+uvAmVlaWsb6+js2tFL95+A1sdCYV8BB0p9dsp7c3/ig97m4nJPWuIqOoUGBk9XA4jFQqxaNRiTi/vMxeu2Jb/DYgC1LTNHHw4EGcOnUKExMTvJ+PxWLwer2YnZ3FnTt3HO4veF9I6DfNDunzetVGlpXXO4SITCPRRE9RFEi2DFk2+Uamm5raGk2TedzL7Owsstks/H4/RkZGkEgk8Nd/83OEQiEnL3oYw8PDLPmwVEKpVOJ5vYR8U5nbbDYBw0A4EuVGf5WKzW9vRVEAuY3ai2Qd1dmMxPdmIyeJ8/DT6TSSyXRH7rHfzwgp+/ax8DzLYp7P+Xye9Z6KApemcVtj0wRvpTRNQzKZxPLysnPbtpznFsLFixcxNTUFl0tBNlvB9vY2vxReR1jajYHYDdqKqjhN09it7FhRUfYUAYOEwHcTQ7p7ZHFSU2/WEIlEMNDfj3A43EE1FX0EOCGEej7LspBIJHD48D54PG5MTU3h8ZNZ7utktRzU0jkNNJfKF7AkSTAdMMowDE4/+yEEiL0+UCq3RNM5j8eDer2Oubk5Tk/UNI3rY3t7e3Ho0CEYhoFSLsu/j9h3HT58GFNTU/B4PMhmswgEAnwm9+TJE5YMn8sh3NODWCzGZZTUw9JrEplduxokSK8PaesOiBMBD8htDEDkCrfFAmzBLyws4NatW1hdXYXH48Hg4CB6e3vh9bMSdHJyEm+88QYn6ty7d49bxxByHAgEMDo6yiotpz/eNzKKkZERPvYhU8UTJ05w4zyRSFQsFjk4mclk8N1330HVFExPHXCkeZfh9XqxsrKGWq2GfJ6pp2KxCA4cYJwFv9+P1dUk7t67h83NTVQrNUiKCo/bi2q1hqWlZUxOTjljyCD6+vox0D+IYqHE26hYLIbJyUlcuHAB+/btQ7OpY3l5GSsrKzyoQKQ37kUjZr8vHroSD05g2IjSgSt1Z2NpmoZMZgvPnj3D3NwcUqkUF2iIJCzx5xFLz7Is9A0kMDMzA//Fi4jH43xOz+yrwt0OIeiYnbFeBggEgix5wCltParGSy8AcDknMr0QRRLfICsnSqXCKzW7P2RT0wioUqlwt0zDMLCxsYFoNIojR47wDZnL5aBpGiYnJ9EX72XZyg5glkgk0NfXx2iEjtNhMpnkIyld17GysoLbt28jvZVGwMcWdn9/P8rlMnONEMqaQqHAFTfdQMUPvZGJYirOYjsMChWK89Fg26ZTxtI8twmXCzAMHaVSCVtbaZQKeZTAettMZhP6b5v46U9/ir6+PoyP9wJ4i4e2r6ysYGtrix9wY2NjOH/+PIaGhvhraTV1jI6OIhaLwedjdNZTp05hYGAAkiTxni+Xy+G7775DNpvlgGAqlca///u/Q5IkBPwhxGIxnDlzBvF4HMlkGtVqlbuUxONRjIyMYGJiHIZh4NHsE3z2H39AOr2JsrPxzFYL29vbeP78OUZHRzE0NIQjR44gEolgsK8f6XSav+5oNIrJ/dPw+308NXR9fR0bGxs8TYS8v143ObHt3dNERA9wsVoScY9qtYJkMom7d+/i5s2bWFxc5J8Zca3Fy41wCtro0/snobpcmJyYQCgUwubmJra2tngyjPjaXXDKQxoj5PN5bG0ZyGQyKObzaNZY36VILvi9jJiu+BXAZIIGq+WwsHh5zRZnPpuD7JJ2tfHZLSK0+0ZjZoU2Wg1meq/KCqolZs8iSzIy6U1shHsQj0QxMTGBeCSKSqUCt0tFOBhyhustjI2NYd++fQiFmIFcs9nE5toG5ufn4ff7cfr0aSiKgs8++wy/+93v8HD2MULBCBKJBIaGhuD3+/nNRQcAneYix3nXRfEa9ROd5t0PRexbPR4PYFowLQO20YIFC61GHS5ZgqkDigRUigXUqxWEgkEEgn6UimWkNtagGzpcLgU+nxe/+MUvMD7ei1/84q+xs7ONdDqFra0K6vUagsEADh06iB//+EOcOXMctg1sbxcgSW2Utt5sIBqP4b0P3ucHDXm8Xb9+HU+efo+q47apqiq2t7fx8OEsPKobXs2DixcvMt+uwX6B3NF0Wh8XXC4gn6/jzp07uH7tKzx79hyLi4vweL2IR2MolUp49v1TNOsNVMsV/OpXv8LQwCAOHZrC1NQUlw5Go1EEg24HhALWk1lc/eIqrl+/jm/vfIfNzBYkRUapUkYoFIJl2mgZzONadimQFBlurwd1x0TDsk1mtqcwBhqLVpWh6w243V7IsgRFYZVpU69DbzWwuZXC7Ows8tks7ty5g2+++QbLy8tcoSYL7d5ez54ur8W5eTy4ew9bqTTS6S3ks1l+qdGot2UacKFLqyn2eXwobtkCw8cETKuDkYJdzOhkGYAsAbD2LK1/iItGtx6WFgoAPH36lG/80dFRHD58GPF4HLVaDel0GkUnXJp8yOgWpL4lHo9jZWUFKysr+OSTTziiS/2aLMvcnZN6PhrP/BAT+h/qcb1X3AyBTrrFDjNINvSmjlQ6iQcPHkCSJKa7rlU6Y188GiwpiJ3NTdxzqhhVVfHGG2+g5ITTxWIxrC0vc8JMuVxGsVhErWYgEHAxtHgn+5JcU3RBjcUCaLV83IyRAE5ZlmFLQKVYwtzcHL744guUSiUcPnwYY2Njjqqp3Vc3GgZyuRyePn2Kr7/+Gnfu3MHc8+eoNuodXGRd1zk5ifyrRkZGMDAwgJ6eHqgqQ+t1HSiVKlhPrmNhYQHffPMN7t+/j42NDViGgYBzqIvMPBF0ZO4xm3j27Bk8XiadnZ+f56aDxHmmCk1V21a7tVoNL168gK7rSMTjWFpa4joFkVhCdNNXrZdyocgOBEdPXqs1sLa2Bl3X+RrkJhwQPKPFFAgaa/DBvNMfsqvf4MjqbhuZLUDayHuj07u5T3Yb8IkzVroRRRnhxsYGvxk8Hg+Ghoa4TpfQVGIZkRzS7/cjGo1ieXkZqVQKjx49wsOHD1GulNAbT3BEt1JhdEdChAk5Fymar3oQf4yxwG6fkSjQIFS32WT6748//hiLi4tYXl7G0tJSxziHDAtll4rCzg6uXr2KbDaLJ0+ewOv14vvvv8fW1hYjWxgGj2O9du0astmsAzhZvJ/cixQRiURQqVTw+PEjbG1totXSoWmqQ8JxwWzqSG+mULpexNLyIg4fPoyDBw9iYGCA2xPTa06lUvj+++/x+PFjrKysoFZnPbjkGMT7fF7ojif54uICTNOAYbQwOTmJ6elpxGIxjnRns1lkMhmsrK1idXUVDx48QCqVgtlqQRHIJmLulTi+a7VaSKfT+PTTTzG/wDbl3bt3uTVRWzzT6qgiaYNvpVLY2tpCIh5npXyzCa/Px80KqbrbK7mTt2qmxSrjYpEz10QwuYNuKqqfCA31eBQeRep2uwHL7pg1ms4344tuD/aWmMHzKpj/daFZIuOJ0EDZGaFIkoRUKoWdnR1sbW0hmUxicnISPp+vA1VnQW9qB6nj2bNnePjwIZ48eQK91UQ41IPx8XGEQiHkcjlsbZU4R5huNbGH2Q3Z3OuG/VNubFHGSc+m2Wxic3MTX331FR48eMDnq1RBEUEBsoyJiQlsZrZQKRRw584drK6uwufzoVgsIruzg0RfH6rVKnfG3N7exldffcVbh24v893SIAFgZ2eHbb4aQ1lJZN+oVFEqlbC5uYl8Po/NzU08fvyY96di+kW5XEY2m0W5XObqqVZXzBCJIaiiunbtGh49esQNCAi0Je1zqVLmPluKosDvzLbJ85qYZqK23O12cxOK69ev4+mzJ5zFZplsikHEpLaqycUFDXTbUliCLMvwOGuP8KZqucQODbdnV/dVzhtw0kYI0G02W3wtdI8CXSLvl5hSzWbbDdHlcsE224mEov0qB2h2ccTcK6x8N2LIXj0yPTFS6bIAACAASURBVGQiQVBfRvaoxWKRlyrlchkPHz7E8vIyEokEQqEQhoYGXhq2E2+6Vqs5vPIl6K0GopEo9u3bh0Qi7tA3C9je3uaJBmJQOJWPu5XXf0xkzG6Oop2+3p1pgoRY0ubY3t7usEIiNF1VVcD57EKhEE9V2Nzc5Ash5AhbyKmiVqtheXkZy0tLbIhp2+38T1Id7IIEaZTw2GwCQjQMiXBobRmGge3tbWSzWT56ovUmRsnQBcGMAYKcNUb0WJHXnctm+cyYGGWKM6ZkBKaGs2HcvMKk2XdHaygY7bfVV1U0q1UkmzVecQaCPZxpKNogdU9VaByXWl+Hx/m59Cxp3Ygt4l63siLZHd9fEqio4vpjG1mQWFH6+4sXLxwkdIu597tUIU9I4T3ybhtZZDnBsvd0u3hVb7gbCEZlLT1U8cQj9E/XdX76u91uPH48+1KsJ3HJ6e8yYsg+jI6OIhwOQ9d1pNNp7OzsdPTV4tyTRlB/bpD2qz4bcSOTOIIWOmmqRY0tVSv8sLRtpNNpBMMhnhyRz+ehO6Qer2PXRAclxa6I76M7Grf7302njJckCXBuIsMwGKjT1AEHUxAD0GkNUQgcqXw8Hi/3Tyc6Jm0OeuaiYqnRaEBWFFimyTaaEO9KN5bb6+EEEDJ2pxFOJBLp8CATLyJG+NGcg0HivmDBQJAfMuzvUesjdRgE8BBD20I8Hsfk5CTnKRCWwHTVO6+8CKrlIm97MpkMN8AXtek850oSZFXVahVzc3Oo1epIpVJYXFxEpVJCPBqDZdmQZcDlUmFINiSZ+ftCspzZNPVOFmfD0ELvLpF3m6Hu5XtNpzsZCtCNSKMoWsD0kKmX1DQN29tbfK4tkjao36coGRLjU8xqNpvtCNoWw+v8fv9LJede5JYf0jrsxiYSWVP0WkWGmxilSmUw5WHR79GYrNXUoSqsqlIkGbIkw2wZqFdrnJUlyzJUIdSdXkNrl9JP7JHpZqPbUpZlWIbJxTdBpxQWDyQxXobKaJrzE/7AKZDOphfBNtGlhbmFtONoxLbJtm14NDds59LRWwbMlgFFcto9xcVaRtOEZAOaS4VkA6bDlZAA+Lxe2LbJ15/tEKeI9QcLMMwWZNkRfKgaLNNCvVpDtVLB1P6DOHfuHC5fvowRx0yQNjOV2t0jrfaesJDd3sL29jY++ugj3LhxA4VCibcVYp9vWRZcov1KrVbD2toaMpltLCzMo1apoFarQYrFO8gQksA7JpVOZy4vydRaHb1U92LdLRitG+wRWTTE7qIFQTeR+IAJhTUMA5FIhDNqRBcIYjtRtlC1WsX29rYjics5afB+fsB5PJ6OzB16Da8juPxQVH6vjVytVuHz+bi2lnpz2sQU5i2irvSMuALM6T9FtxWR9C9uzO7ol26pXffrC4fDnAkmmt6JBIluwozo1kGiDboZxRhUWmcicaN7fiv22uJnQrcw9a0k4KDXUqlUuHOqeLCLnmyEB1G0LvuZbVOGQCAAswvk5QZ+pgmXquLo0aO4cOEC3nvvPYyMxGHbAOGjtg3QKJs6GfGfAOCd2Y9KhbWCpVIJ8/OL2NjY4FUN+0yd507SvfHxccR6EyiXy3j27DkymS1oDlOKNiihxoqAcOu6Do/m5g6XtLjEHB6xtxFVNARgiQL1bsqaWK5RSUiATqVS4RGfVHrTf2fuDyY3mqNyjcYEiUQCmqZhZ2eH5/1wqp3DAaayq1KpQFVVRKNR/rAJP3h1af3DCTC7gYI0+6aNRZMC0VNKdJIUR4g+nw8Bx4ZHDDqnnrNeryMWi0HXdT5G6fYh8/rcnHJIBxmZM1iWBaPCEhptmDBMnX9/SZYQ741CrzdQrTY62GltiyTA7dYcPjWr9trgngpV1WDoTRimgw04r6XZbMIwDSguCblsBm5Hllqpljh2omqs7dFUD/e5ok1eqVT4fJ4wE3rm4oGot0jhpnSsR/p7rEz3OKW4xgkytUoZsd4ETpw4gTfffBMXLlxAJBJBMpnjIBxlQ9NFQtUE8c9ZDywhFokgFovgvffeg6Io+P3v/wO5XA6FQp4fuKrqtHoQei3RGyoQCKAnFILf7wUsG8VikbswiPLBcrmMolHgOlUxGlM3mns2869CdtvqIeul+bSoQqLe2LZt3u9RuclOe7PDkoZeo67rTugWONBD/a8oJfxz/Lb+nJ5ZJIzQexI5ut1GduLnIgJxVJlQuUmls9/v5wqa7hxqkc9Lh6c4JhErr24pp3jQEDmDrGW7TRVJVy4CrXQwiemT4k0rquDE6oI+J/oe9J5Vl5s7eIgVBnnAicg59d0kJDFM3RlhimPSzmdPm5ouI13XoXm8POvq8uXL6O/vx9raGm7evImlpSVulCGa99F0hSivJLs8d/YsLlw4h9HRUfzoRz+CrjOi1v3799FsNjuESS6PwzOmk5ZQTTES0zLakZWhUAiSbXMlBiXq9fX1cTYKZem+bvO+bjN3L1xaVOLcW9zYLqHPo4Vuw2L9kWUyyqRko1qroGWwm4i+yKBA1VzweNkHW6vWO17LXvGpf6lfVFbuRrSnW1FsP8TPBgBDkoV5Ns0gxQjQ7sNSjKYRwaHdonDpgBA3uhhYLlJW6YCnW1AED0VaI0WbUhCB2BOLNkPU5ogVHc1pSbtO61PMbxbD5qi16Ca7SJLEo1PxCgPF9iHD5sKG3oTXSXi8dOkSDh06hEajgdnZWfzud7/D06dPUalU+M1LBwxdNnSIsedu4fvHj1GrVfDXf/3X6O/vx4EDBzA4OIiHDx+iWCwiHA63UWsqrer1Olxag59KzWYTdUNHraZARnvEIUkSSsUiMpkM3G43xsfHceHceRw4cADpdJoZa29sdMxZd+uFu2NidtvsbUtSpWNu3T1bpvEULTp2erMHb1pGl0bY4r2TSG4XB/oi73kvosb/jo1MvHC6hUQgarfR3ksB7F29MG0UKqUpIkdMMRSD2Ch7mlDfbgmg2GPTBhX7VbJHoiQIunVE0FHMVabxHn2PWr3Bx0HirSu+X9H1Q/TB8vl8sK06X0OUIGoIyRLdaR6EeFMKJlUMuxGYRCGJ4jjm1Gs1fsNGnWymXC6Hubk5PHv2zLFici4DB0Slw5BYi5wx5nD/l5aWsLm5iXA4jGg06vgFBIUxsKN9sMj1Q5Dk0cDc61ah6w2oLhc8qoaW0USpXIDR1BEKBTA+Po533nkHf/erv8X4+Di++eYbrKwsIZlchyTZu2Yh7+WU2b0gdwONRDCGTOOCwSC3PCGLXDbeYBtbtKSlHqtarToZQXF+AIgbhLAAt9MDdd/I/7tKa0KqaVOT35TI0RXBJFECRxuNFqiqqpAVBTIAybYhA6iWy9A0jbdLdBubABRJQqNag9HUO8p0eu+maXJ7WkUILDANE5Zlo2VavCpr66nrbatkoawV5/T0Xv1+P1qOTpleF00uRAdM+vO0PmjzBQIBeJ0Rl67raDWbMJwDW1UUuB0cp9VsotZqoSbgN+xnms7rFCnGSseGbjaLUFUNoWAYfq8XVpDN7CXLhqm3oOsGqtU6yuUq6vUm8x7ztd1mgsEg1/izltbo2BtkRE8tUCgU4kaKlCHFS2u34/JAqB2FlteKBbAILAuQFUZxbDYB2BjbN47Dhw/jJz/5Cd544w3MzIzz0416IsuyoDixqnvZ+nSPn141yiGAqz3Ds3mVEAgEuAOjJDHt69jYKCYmJmDZbQJLs9nkRgQ7OzvM8tU5wERh+14l9G72vX/JX2LLQNRBuk3cbjdPj3AJRAyxyhGrDj5mcjZDIBBgNjkOY4ymFiS+Z+VnkwsnxPdumga/JcV4UfFzoZtf/HtisHq3FFQ02qf3TC4j4nyc5swtZ65OAKbH4+mgs0qShHw+zy+mer3mgEw2FMXFEXcRO2AIfMPZwMQRsPholUVbtT9Pj8fLkz7FTaXrOr+tu4kbImovVn4i9ZOtdZ2nZpJQhyokupA6ZIzsTbJdD5mdWIye6QEsg82FBVJCJBLBhfMX8Oabb+L9998HANy8+QTPnz/nmliiqrk0dVcSyKtom2KJ2G1/IjojUE4wOWAoioLp6WlMTEzg6NGjGBtjWtpGs84XPhnbJ5NJbG5u4pNPPkEul0Mmk+H6Whr3sLkhfrDDyV/iF5XS1C7QJu7v78fExATvIUXzcvHzpZuPDNtTqRQbJzrlHxFFTNPksaEux/8qHo8jGu3hAKZLIHwUCgXk83mkUilUq1V+cNPtTj1o2bnxe3p60N/fz03oxNkyrYtKpYJUKoX19XWUSiUUCgV4Wj6+ccmHe2RkhAfZ67qOjENaor6ZWFSsD29haIgZKkiShM3NTaysrMA0DU7bTCQSmJqawsDAADfYYBdFeyNzqa6idkxcbFvCs2fPsLK8ilqNWd+KPmgul+ykbThUZ7QPxO4WQQQp6eJSNZVbHvl8EioV8A0sTilYaW2asMFGKT2REEZHRxEIBBEKBdGbiAGmwUUHzWYT/X19OH36NI4dOwZJkvDowUN8/PHHuHXrFnYy26g3mdOh1+97qXTuFkf80BkrbeRualyhUECz2UQwGMSZM2fwwQcf4NSpUwgEAqjX69jZyaBcKfFF0Nvbi3A4jPHxcW7g9/TpU9y6dQvff/89P1lpUXb3pLu1Cn/JXyJiTSHkPp8PR44cwZUrV3D06NEObKC79KfPK5VK4dtvv8X169d54B5NJohXzPjaNgYHB3Hp0iUedq8oEv8ZpNhJpVJIpVL47W9/i42NDeTzedRqtY6blm7rQCCAyclpnD17GjMzJzE0NIBAIOQYr7thWQZqtQbW11dx794D3Lp1Ay9ezKNYzKNSKnHHkXg8zjObo1EWm/rb3/4WuVwOhsMTEDdIsViE1x/AydOn8c477yAYDOLRo0e4evUqFufnHcmtC1MTk/irn/4M586dY/JFJyyOVTYm38jsFlX54akoCrLZPD799FN89ukfsL6+zt8z0Sg1jfXq5MVO74UORfE5iwSqer0OvVFHX28c4XDYGZ+CWwjlcrmX8CUX0EK1WkGlyhZxIpHAuXPncenSRURjKgwDKBbZg5YkNtvy+1nw9aNHj/HVN1/h337/b0iuryEc6kG0Nw4FEgzbAiQZNpirAsCc9yVJgmXbMMwuAzT6n0REMYkvCCqhCUWlsVOlUoGmafj5z3+Ov//7v8fRo0dRqVTw7bffYm1tDaqqcPlhpVwFbAmHDh3CyMgIhoaGIMsyjhw5gkuX3sQf/vAHfPTRR1hfX4NptjAwMIBGw6ksJIXPk0msQWV858nTXRv/8cyujgNMBJQUCxYkNPQWIrE43nnvfZw6dQiKwmR7hsEIBuLUrNFokw6OHDsOXyAI+5NPsLy8jGw2h5bJNl69qUNSWOD4hYuX8LP/8nNcvPgmEoke0HojxZ3XCxjGSWxtFRBP9OPmzZv4l3/5F6STG3BpHjRbbO4suzRYVh3jk9N4/8Mf4+2338LMzAkEg5JTlsPJeGKvfWxiAtMHDuPUmTP49NPP8Omn/wFFUZBOJtGCDrfmhdfjxwfv/xjHj0/iwYM5LC+tYnVlHWW7DAkKfF4ft5tVHHeVg4cP4cc//QlGRgZx5NhRZPM5LC4uolGvIRwLQnOpGOwfwIHp/egbCDL5pYNxVWsV9PYGYJpApaJDUzXutwUA6XQZm5ltfHf3ATbSm5BcKmpNHeVaHaVqDfWKCdkG+uK9GB4YxGYyhWq5Atvrhc/NDg3JYokoqszK+3K5DL3egMftxf6paUxPTmHfyCjcKpDbyaJerUFzqWjWG3DJClyyAskGXP5gEEHHGM3tVlEqF/DkyRM0mw3smxiGZRn8xJbB+s/9+/ejr4/NIscnJ3Do0CFWy+sMJIpEIogEAshkdvbMRxYTEve63Wi0RRa4tm2jv78ftm0jn89D0zT83d/9HX71q1/B5/Ph5s2bWF5e5u4dlEBPAVtEw2wZDIGdnp5GKOTF1NQEN4C/fv06MplN5HI7CAYjTIXjtB+iWueluNM/cdb8593YQLnMblzGxe20tTVNE729vRgc7MPo6CiuXLkCXddx69Ytrq+lfm18fByXL1/Gu+++i6NHjyIQCKJeN5FK5Xnr4Xa7kUgkeCzLiRMnoKoq8vk8bty4wXGKerUKRVVx4tQZXLx4CWfOnMHg4BCazSby+Ro3T6T+mnzRhoeHHTkiG3/+4Q+fMR+slv4S0Ek3n4jIi2CfZVlomWwsZcKGLQOSS3kpMia1sYE7334Ly7IwPDyMYCQMSVEQ6gkDNvP2rlarWFxcxHYmy11F3W43crk8Hj16hEwmw3EbvdHA1tYW5ufnMTk2jnA4jOPHj+PSpUuoVqt4+vQpbw8JxSfsR5wmjI2N4uLFi9i/fz88Hg/yeSZ6ITluN8/BRXM7XdcdVU0G396+C7dbgwkdstwGL1yygpGREZw7dw4zMzO4cO4cI4BLDBm9c+cONzzv6enZNV2im+63Fye5nXfk4iBaPB6H3+9HLpeDJEm4dOkS/uZv/gZDQ0P4+uuvcffuXbRaLUxMTGBqaoprlSXJ5vY8sizzcrvRaKCvrw9erxv9/f04cuQIkskkCoUcisUCQqEo96Aizy4CT/4zf9FnWK+zLN1bt27h4cOHfGNSKWxZFkZGRnD+/HnMzMzgzJkznASTSqVQzOdgmkAgEMWJEyfwy1/+EhcvXoRlMR3s7OxDPH/OnDp0XUcwGOTzzOnpaUxOTnKgMZ/P4+HDh8jlcoAsIx6P470P3seVK1dw8uRJGIaBx98/waNHj7CwsMCzgcPhMDfmm5mZwfj4Ppw8fQqmbeH+/XvM2qald/iV2U6UDTH6aKZN1F3ui+4AowxvaFs4s83PDrD01ha++uorPJ+bQ29vLyK9MYR6erBvfAwnTxxHMBhEsVjEkydPcOvmt1heXkaj0XBGRybXPhPDsF6tIpVK4c6dO5gan8Dx48dx+vR+uFz/Bw9AoO9BbQBdajRfPnDgAN577x389Cc/xuBgPyzLwtzcHJ48eYJkMskRfPESdInzOE3TUCiUsLGxgUqlDEuvMAM5B9mEZWN1dRXJZBKPHj1C0O/H6Ogofvazn2F0dBQff/wxvvjiC2xvb7PQtz041NhF9rirM4gkc4KAqqoYGhriveLk5CT+4R/+AeFwGNevX8fDhw85UNPX14dGo4GlpSXn5G4TRUqlEsI9IQDA3NwcEokEYjGmhOnv78fJkydRKORw//4DDiyI82pxTPKX/vUqYzj6lcvl8P333+PLL79EKpXitFaiqyYSCWQyGfh8Ppw9O4Pjx4/j8ePHuHfvHlLJJGCzMVF/fz/GxsYQDEp4/HgNN27cwL/920eYn59HKpUS+j4Nhw4dwoULF/DrX/8aQ0MDOHbsGO7du4dnz54BlolAKIyJiQmcOnUKx44dQ2+vHw8evMDnn3+Oa9euYWVlhY+zPB4PIpEI9u/f75j3fQiPx4NEIsEMBL1eVErFjtuWNrKI1otjN35bCY43TKDlgqK142BUt4ZapYrl5WUsLi9D87jh9nrQE43i2MxxTDuVGsUNk37d0Jtwe31wuVTHHIFdXERySafTuHnzJnqjzLjx4sUTOHRoAqdPn8bt27exurqKarWKUCjER1409fF4PBgdHcW5c+dw9OghGIaJxcVF3Lp1C3fu3EEymeQzfhG/cdEHRIhfMBh0ws8M9AwnYBg653+aLVZmk7NGPpvFpUuX8F9+9lc4d+4c/H4/6vU6Pv30U2QyGfT29r2EVu/l3fWqm0fkExcKBQSDQZw/fx4HDx7kmU3k5Vwul/H06VMkk0lOYNF1xTkQWKA0habbsByCALO/CYfDOHbsGJLJJJ49e9ExlxbpkCJ18D/rNmZlaZt4kcvluGAdcpu1RQHuZ8+exenTM+jv78Ho6CgGBgbw5MkTwGYl5sbGBu7du4eNjQ18++23+Prrr3Hv3l0Ui0VYDq+8UChAb9S5Y8UHH3yAyckBjIyMYGRkhM/zKSGEwMVWC1hcXMSdO3cwOzuLZrUK1ZHy5fN57OzsoFwuY2hoCGfPnmXmiX19iMfjXEPcGU6Ol/OSBD4/t6TqcCfttI2i76k4jXqz2US92YCRz2Inl0M80csxEVGtZOjNl0aEIgqvqipKhTyelEpwSUC1WkatVsHg4CAajRpUVWEzar0B2/Y7xv8yt8cyzRbq9aoT/J7Hzk6GP48nT56gWC5CVVQ+O+elNX0QooqFTonu2Z6quLhLRTabxRdffIHFxUUsLSzi4sWLHBASaXTd6fDdvN29bmORnkm9RC6XQ71ex8zMDI4dO4bnz59jYWGBn+Db29t48uQJF0D09fXxfolIHsTxtSwLff0JPrtrNpuIRCIYGRnB2NgYIpEIMhkmqOjp6YHP5+ugLnYLJv6UHvmPRb6759u2DY7mS5IE2aXygHEij5SKRaTTaayvryOXKyESCfEFKPb/Dx48gK7r8Hq9WFhYwMLCAqfa0vcsl8vQBR8ttnbaLDS2kSVOwRR1xevr60gmk2hWq3B5PIjH4zAMgx2WxSKy2Sy3VPJ4VEQiEYTDYZ5LJd60tClFh5pdK5aOqUenKQbNjzW/Hy5Zhtc0YdoWtnNZGJbJ59c8h4uosarGBS31egOG8F5Fl1dDb2J2dpZr5EdGRlAul7G5ucm+p6TsKg8lz6+rX3yO7cwWCoUcZmdnMTs7i+3tbUF00mls4fL5fAj4Ax2uA0TcNg0TkqQ48zUdkltGIBCC388YKfmdLFLJTfyP//FvuH37O3g8HuRyOeh6C/39g7ANE5AY2gobgGlBggTYFsC1yRJsRyfEv2ybD+FrtRpHrSlqkzyaiLsad7yR5ubmuE/1wMAAP4wonIxmnDRQp3jYUCjE85aZr/dhHD9+HNeufYV6vY5oNIpQKIRyudzhtfSX/yU7X5LDKpI7/qnrQKOho9HQYRgWFEWFpnmgaW4ntFsHbKDZbPE/12iYqNUaqFRqcLu9PL1wczODQoH12NVqFYZeh+r2wOv1ORhBDbYNhHqiOH78OC5ceBOhUBjlcgsLC4tYX99Ao9GEpLggywoUxQVK+hQXOhwBCwW+UUwL4TBs9IMO7rTILxc3Kq+UumJXuJSxQwSCrvLccjKPFUjOTerVVJRqVb6RRbcS8voWaaHi7J7iUIPBIE/zrJTyWFtbQ7lc5tVKOp2GJEk8mF40WiS57OrqKlpf6Hj0cBa2zcw+Njc3mfTTG+D4R8eN3Gg04PMGOj1yXS7IsgRbsiArcJIGKtAda1o6JYk/26jXsby8zMsZ1nfGkM1s7ymceN3NQyV4oVBALBZDLBZDoVBArVZDT08PL3Fp2J5Op9FoNPjvkc+WOIAn8gN9kQsIaVRlGRgcHOTJDFROEVeXIk5F7vZ/VnnNbii8RF0V+0XbtgGJlYbhcNgJUlM6pJp+v5/1oQ7iTOVhT7QXgNXxe36/HxMTE7h8+TI++OADPoabm5vD/Pw8crkcbNOALHs4qETVAc8tdkpCMTRdc1If2wxDcFGDeBu+ZG8jkDPETUFzd0V1AQpt5PbnYjpMn2azCd1m4Xiyy4WgGnJyoS1AkbkqidiK9XodltGC4YBr4XCYk4iIv08iCACoOa1OLpdDNpvlDjWkxRZBU5FwU6lUnIifF/A4m9YwDASDYR6k0O3N7XK73YhEIqhWqwjrQj9sGlDdLqyuLXM/KMsw+WiHkGld16E4wENvby8HlFZXV+FRtY4AaZFm193H7IZw12o1HrzGXpOJyclJyLKMXC6HgYEBuN1uJJNJ1Ot1frOKSh+KimGMHzdKpSwMo+22sbGehCzLKBaLkCQJfX0D/HSkIG4agxFhxO/3/zBzvS7Dhd04569jdnUY3neFvrlcbfEBJXuQOwr1x7KiIBqNOnaxKi/NSIssSRJCoRC8Xi9fZPxWdsZ09H0TiQTOnj2L9957D2fPHkKlAly9ehV37tzBxsYGj9mhzeb1euEL+FEoFFGp1WBYFgzLQqvZdEpZVhbrhgGPLMPt9cKWJDQd4YTP58PGxkbHxmcsN3TwvOmzKhaLHai1KH2UXTJUt8ZbPkK6XbLCiMhGOzRedrVpr3QYEUqsuj28Zy4Wi1wWK0kSwuEw32SyLCMWi70Umk4ciHK5zF1ERZabpmkIh8OwbBOaS4WiSB2EFPK0bgfise/hqjkuioqiOSe1CkUpolwuobxdctLvWHB5qVDkKhTaJPRGdV3Hzs4OH3/09PSgXqn+SX2gaP9CMzPu3ytQBkm5VSqVOFVQlmUeZk46Y7GnY+9R4r1hNptFJNrjJB7EEQgEUC4XuUMIOY7Qa6J+lG731/XAe2UI/TlIdvsL/LbVNA2VchmVUhGQZMiOt1dvby+OHDmCyclJeL1s7lwqlTh/lzjQtFnolqOfQXzuiYkJvPvuu/jJT36C6elpNBpsE3/88ce4fv060ul0B5pvS3AOg7ZHFympRGCq2/6YFr0u6OTFdcEwAXCqaKVSgelsfFKxGYYBWwIMYmg5IYu73eri67WlvYHF3WjG7Wdp72nZsxfh54co6BRFeukz6v5efOrkccoa+sYej5urViqVCoZHBvHWW28hEolgM5XGgwcPsLy8zELUAkEOShBRXByY76YtfhUI1O2qKW5gmhGKHyopYOg2IoociQIaDR2y7IKqup1FWWn3/6aNYjHPT8ZYLIbBwUH4/YxTK8suTqQXc4fphiabmB+y8V41L/9TNjIt9nqdERZGR0cxNTXFb2E6XMfHx7F//358+OGHmJmZAQAsLS1hbm4OyWSyw/dJVDWJumZVVdHf348rV67g17/+Nd544xgKhSbu3n2Ihw8f4sWLF8hkMpz/qzfqqDnRtQR0vU6QIi5sEXzlemRZ6drIbf2x3++Hx/knJ4K0WpBbOgxHoCEqxdq3uPPznA1u42Whjhh5KlZD4g0rbmQR2GUlug1INiQZkHcxJpBkJ7FTsp0v4d9tdCjLujd+92Z20RyukmMLWgAAIABJREFU0ag6ZbOfo45utxujo6N46623MDMzg2q5gqtXr+Kjjz7C7du3OTwvOeUaGcMzO9kSvJr7B3s7d2/itgrE6FC0iO6OpmkiEolgamoK5TLzMM5ms3yMRhI4IuXX63XeHxInmAVihdDX1+fYGoGnS5DLI0c4BXXK6xxE/ldJHHcrx6lkbLVanDkUDAZx7tw5fpgRP3lychKnT59GMOjC0hLTiz969AjJZJIDiTyQXNAdk5fU2NgYLl++jF/84hc4f/4YJAl4+PAh/vVf/xVffvkl0uk0v8n5e7LbftzijdpR6gozect5zoQQi06lROIQNxJ90fMgME1Eyy2jBexy69HGZcHHEt/E/LaVABN8x3HFU7fqTTwguoVADGAzoUDitN3dbuBu55vuG9vlUl55+HfosnkkqnBqNptNFAoFNPQ6LBPwuH1I9PbAO9IDWf4QHo8PExNT+PzTz1AoFLCyvAZN0xCJRFgGrkq5No4lLn0BkGQJks1OKNOyO+jJEqlDnP9qCGYAsixzH2ZS6fT09CCRSGB0dBSbm5s8IpWUUQzZ1bnvFH1YFMPq9XoxODiI/r4BRCMxBINBtFrA9vY2Vwopiuslw7rdDBF+6G38R5fVNjsobdsCbDbOMw0bpmHD4/YgFu2Fx+3D/umDbXNEZ9PUajUGcPmCmHuRxNWrV3H16lXMvVhAvdaEobcAW4ZtSZAlF2QJaDaqDD/QWG996dKP8Ld/+3d4440zaLWA2dkX+Pjj3+P3v/8PrC4vQVJcXHzBLiQZskuFW/M6BBIXWi2TH8qWYfANRpI8OG1OWxbp6SQGddkaERmEo+JO/9xd1rqc9cw2FjplniLLcJcbub2hXi6F91LwcUaZZTE9PpgjzV6bca8yf7fyW7z5RTda7qLJrUMdX+FWi7ku1ooFDhqx8UQBfke7fOHCBZaEFwpjdnYWD+8/QC67jc00K2UiEcZRblTKf/Ti7R4vUA/n9XoRDoc52mzbNgYGBgCA0+Sod282m2g2mwiHI3wBKYqCYDDIedvlchnT0ycwPT2NaDTKAY1CoYbV1VVsbW1x36lYLMYFHGLQ+Q+9eV8X6v6qTbxbf9x2eOyM82SxsW74mKYFtRq5VFTw+PFjfPnll7h9+zYXwHh9Ac5X5lryWgWyoqInHMV7772Ln/70pzh//gwMA/jii5v47LPP8Pnnn2N1eQlur48nLxAwKR54YtXCmViKAtupJqilE7XX7PMFDEPlVsaikaNYIrdzndsOKmSgWK3XWNnNzQLb4y3DMAC7Xa7ar/CVE8vhvXrm7lgkjp5bFiufd92Uu+vd9zoYRDPH3f6eq+5EahgGM7Bj80gFgUgUQyPDOHr0KAYGBlCpVLC+tgbTNDE0NIQDBw7gN7/5Dc6ePYuH9x/g/v37eP78ORqNBs9J+qFyxVeRKOiB0UZMp9NYWVlBuVzGvn37sLCwwK1sBwcH4Xa7OblcUVRebZCFjK7XuUjg7NmzOHjwYIf/djqdxvPnz5FOpznls7e3F7UaE6aLZPe/dGm9a18tJHy0WkZHZGi5XIbP58PQ0BASiQT6+/v5rUfofalUgmkY8AcC3POJuPa6rsPt8WFychKnTp3CL3/5f2JmZgbNpolr167hn/7pn3Dnzh1sbm7yDUWyP2pziAREfuO6bnDcgsQRVScggKdHaBqi0Sii0agzS7W5NLJWq8HQmxzEMoUYGZqmELuNDgs6FAKBADeDp95ZdBVtnzLSrlHWxAjbbSOzW5GMCXcHrkzHM1vsscVnL7IDdwO0RAumDuppF6HKtm24VIe543IpkCw2Wjl+/Bh6enoQjfXg9OnTmJqc5NmsrVYLvdEYfG4FR4/uw/T0Ppx/4xy+/fZbfPTRR3j48CF/uK9dlK/ZxDRnpNEDjbYouR4AUqkU5ufnkUgkcPr0aYyPj+PmzZtIp9PI5/NOtm8AzWYdhmGh0ahx/fLMzAyGhoa4uAJgZfXq6iqy2awTwh1DOBxGsVjkkkia9/3FaZoSI84w6Q6V8466x2Y/X281sL6+jutff4knj59Ckm3snz6I/Qem8PZb76Kvn5XekWgYsVgMPZEQmo0WgiE/TMOCabVQrzfQMppQXW70DyRw8eJF/OyvfuIEj/vw7Nlzprv97DMU8zloHi96ojG43W4hkVDlpvPNeg2lYp7lSukNeDUPPF43QoEAvD4PquUyGs066tUq3D4PQoEA+voT6E8k4PG60ajVsL21ycttgKVadMzHARw6dAj79u3j7ZRo6asRy82lQgZLFDUdk/ru4ATqjSFgTbLNZKjd6r3db2UbkmQ7cl0LgOLIdZmMkYWjm5AkF3ccYVpnxbHEYiZ/zH/LcvSwFizLfgkjab8O4eaGCRcsG416HbFoALbVwsTYMN668g5OnjyJcDiCYrGMYq6IaDiKN06zWE6P5oHZAjKFBvx+D0ZHQ4jH34equlEuV3H79m3U61X0xaIwTB02TAe9kyErbIHacNIqOjZ7J2Tv83mcEjmIQiGHZ8+q6O/vQ7lcxtWrf0A8HoXX68bw8CC8Xi88Hg3DwxNwuWR8/fXXmJ+fx/a2gWCwAbdbBWAhEgnj8OHDOHz4IPr6+lAoFLgnUnIjheRGCrlsHqZhcYIJmRgQkFKtVjscDLvDqrlxoCQzpbVlOn3Y3g4j/7O4K21u47qypxfsCylxE0XJlKiFtuTIS6yyLMVTcTmVpSrjTJJP+Yf5kKpUaiYT1diVSHEcU2VLlCWLEvdNpMAVBEEsvb2eD6/vw+tGdwMkohm6WJJMAAS633v33nPPOVcO0Lwa4pY6XASRgq6rUFT+Wi4c5HIZJJIKEgkNB5V9PH/+DNOPH4HZBlZWVrC4dBHNZhM///lPcfPmu7h+/S3cvnMLLix8//0MFhbmkMnkADDYNkMqxUUp77//Ln708W289947SKUSWF5ewtOn36HRqGFsbBS5XEZ4R5EtFKl5GMt715ljJI1aDZvra3jz6lv4+PZHUB0Xo6PDeP7sBTZevUQuk4flmCjkivjhzffx8Z07GD83hvLeAba3XnEOQz6DA9tANpvFwuIcvvzHfYyeHcHY2CgKxRx+/Ztf4czoMObn51Eul8W8q1P9A7h16xbef/d9TJw/B8aAvdIOagdVJPUkDNSha/xANkzu7JFMpKBBRTqdhWPZsAwDuqIgk8wgqSWhel5muqpCV9V2cz6X18RgLlzFRSKhgSav8I1KRgWa9P+IMup4LD4GwBvy4Gn5Wym5A03zAF+zwbEbzeuHO5YhWDuqqiKp62CujVqthu3SDvL5Is6eHUU+D2xsmNhY5ykcuR6k02n09fXBMAzs7OzAcRwvnVF6nh0sexwTsEHPq1QqmJmZwY0bN3Dt2jUx/pRol7/4xS8wNDSEVCqFwcFBoaRJJDiPd2hoSChJ9vf38erVK2xtbeGbb77B9PQ0DLOJNyfeFMqXarUqPKFIKUb/PikzKzZDUYAENFiMO4Iqis4lpZqObJYzp7JZeC2nQ2/YnALGNFSrFczNzSGfz+PUqT6MjIzg3LlR/Pa3v8bFi+P44x//iFJpU6SZ6XQa165dw6effopbt27h8uXLYoxOsVjE1atXoSgKJiYm0Gg0kPfScnIMefToER49esTtojxcZW1tFf/z+V1YtoFUMonh4WH86OPbuHT5IlZXV/Hq1SuRCufz3Mjx2rU3YVsWXszO4MGDB9jc3PTNutrZ2cHTp09x+fJlmObb+MEPfoCRkRFMTk5ic3NTzMEmH7erl67i3Nh57G2XMTc3h6mv/onlhUUY9QZoXhOVSQSImpaJDMtAdVvjgeUBCkFjQ99apgnDiitFVkgGfkyMVQr+//Y/XQBadKYGQFFdEZ11Muum+ubFixeYX1wEc4DzY29gcnISN2/exOnTpzEzM4N79+5hbW1NDMIicbiiKFhbW8Ps7HNUKmXoCRVIaTwiucwXa/yxp31jt1xDWoZxJHagi7q7u4svvvgCyWQSFy9exMTEBFZWVrC9vY1Go4Hh4WF8cPOHwhCgr78oXDMty8LO7jaaRpMbnJtNLC4t4OHDh3jy5AmqR4coFAo4d+4cLMvC9va2oC8GLXWOW/cf57mqpkAFtW24SiaR0OG6DIeHFagq0Gw2cHhYgWE0kctlBYe5vL+H+/fvo9lsIp1O47PPPsP586cwPPwpNjY28O2332Jzc1Owiy5cuOCZqn8ATQMqFQe6rmFwcAADA6cxOXlViE2IbplKcaruP/7xFSzLxJdffgnbtqCqCpr1Gu7fvy8orh999BGuXLmCy5fH8NFHH+DgoOZlXVlkMhwdtizg6dPnuHfvHv7yl79gfX3dZwpRrVYxPT0tNNBkAD8xMSFwAFI0qaqKgf4ctrYqePDgAT7//HN8/fXXWFxahAuG/v4+KCqgqSo0XYXDbFg2N5t0mI1Gs+4FkKaPZx30Ww9j6nUzQrj7dRDN61dV/q0oCpcxEnRvmiaPbPv72NraQkrP4urVq5iZmRGDwR8+fIhSqeRzdiSzcBpZqmka0plcaAQOq5WjEF2iKFLPkNhbxGvd3t7G3bt3oSgKfvazn+HChQtikxuGgTOjI9jZ2cH29jaKxSKuXLmC0dFRodIipHZ2dhbT09N4/Pgxtra20NfXh/HxcSQSCWHORwZ+BA7RuNXj1PzHPQBkIwbqTzqOg83NTTx8+BCZTAZPnjzB7Owsdnd3xUyilvCBK3Bo2PudO3eQTqdRrVZF35hbAjW9edBbKJX4OJPd3V3k8zkxdCyXywl6oaYBus43XjoNITes1WqCv91QVRxVKpienkaz2cTq6ipu376Nd955R2RKvK2owDCA/f0y5ufn8dVXX+HevXt48uQJ4DgoegGGWHYbGxv4+9//ziWVpokrV66IzkMul4Sq8vfVaBiYnV3Fs2fPcPfuXdy/f1/MTcrn8+jv7xcGfCSs4NmfLqaSLi8vC+rn4uKiIA/JJJEoQDdI/ug6EzumOaOYUilT5pLJJFdveALy5fllzM7OYm9vD9lsFvV6HeVyWSwqArUIYaNeciaTQS6fQa1y0NXI1Kh0m4j9NJ+HUjkSL2QyGayuruKvf/0rkskkrl+/Dtd1hVppZWUFGxsb2N3dxdDQEN544w1BE2w2m3j+/DlevnyJb7/9FtPT09jZ2UEmkxHkkGq1iu3tbW7w5jGUZAT0OGBX3FjZuNJCkSYxqKqKRr2OhYUFfPHFF+JQnZubw/7ujk/2yTnzfKTIs2fPsLOzg7/97W/o6+sTjpo0z8kwDDx58gS///3vMTMzg2Kx6N3PhM/cT17AZEWraRpWVlbw4sUL1KpVaJ7dbjKZxAG4g8bU1JR4zNtvv41z584JnTHRQEulEpaWljA/P4+lpSXAcZD1UG6ZsVetVrGwsIBKpYL9/X2Mj4/j0qVLGBwcRKFQEAHl6OgI3z36Duvr6/juu+/w8uVLMSydxDTyjGIi/FCbsVQq4U9/+hOGhoZQq9Xw/fffC4cZWu9xPeAWku2eOCOLSqnbX8uFMjA46urJLCYmJtDfd5r7GnsnkmMxNOqGkJuRBzJtqv39fR/ryde01wC72YDj2L4hYsHh0nFROZlKC5eObJYbq9FmJgeMRCKBQqGA/v5+DAwM4Pz587h+/TouX76Mre2SmIVcKBQwPj6O/v5+7O7uYnV1FVNTU57KZA4HBwfI5XI4e/YsRkZGkM/nuU/Tzo4QSySTSbEAyaolDuzSVa2n1NpybOieAIJO/soB7+8Pj4wIC1YZzST7G177ZkRbqdFowLEspLx2TL1eF4u60WigUTtCMt0yA+Bcctt38MpTP2hBE1+9VCrBbDaQK/BRtbZtQ9UgsihS/NAo20QigVwuB9M0UfMonQcHB2jW64CiIOHV1Ywx0fem9yr7pcnZAol5SBK5scZtcY6OjuC6rpAY0nqkskOeVMkYQ7VaFcGiWCwKu2Bd14Vdsq7rotwKX7/+ujhu6mbYoc7BLi1yEwMMZ86cQaPRwNraqudrbXB6YybN6ZmuxwwqFvugaTWOlrou0umUkDCaVhPJlC6xU1xYtuHTfBYkhk5cGyoqtTYtA6k0NzIwzCYUFUgkddiOjkRSR+WQSxwdZmN5ZQnPZr7H4OAg1tZXceHCBcE/tiwLW1t81qxpmlhbW+P2LouLfPE0m8jlchgYGEAul0O9XhfSMxKGyGoaWez+OlNrPrVeEUykZCKBQj7Pe/WNBphtw7EsFAoFYbhOarREKgXHtrisEC40BXDAYJsGlEQCmgIkNBW5TBq6V9OazTq2Xm1iZ6vkE4kw5ggETj6ISSxjWRz0y+cLyGYysD0xSz6fRS6dQc7LDBqNBtb3V8Tny+XyPp8tPpdYQSrJJ024tgOj2YTCXO4hZ1pIqBr6Tp0W42KrBxUc7O23lSCcpNJA0psUSgAlrQeZIUX6dABCTsmZcdypgwguZBAvz5uKEkTIHtbHNZyI3rz+mpkf7qydokknkuEtiKOjIwFuyM32mkciGRsbE3RAokK2+LWsDcyKMqSP+iKhNi1QWjz0e1pT71s3j0zg5ufnMTU1JYQP1AMmCdne3p44vQnVJsPAvb090TMnOR0tRHrPlA28zi/aNPKwd1qQdL9oRCc9jgzoiaNMn5mQXPkecjeOtBA8pFIp4YRCEYjqMHlRyqIBYsRRZkRTDR3HQqVSEQIW4srTOiFlG20e6prQ/SR1G6Hq2WxW+DnLunKZb8DdKFudhHQ6I0gjtP5IlklEGSqVSCVH15fWmkwwIeyBRrOSnDW8t6y0AVW918bBjS3ZZ/X1D7mpTIE7IuaK2N7exsHhISqVCs6eGRM2nfI4DkqtqtWqqJVpQ/T393tQfg2uZYEx23fRKcUOckVDbXM11TckTJ5KSOoneaQKpVtkT0QpsXxzaeAWASi5XM4DSrjfGNXEzWYTo6NjvqFmfsUL2jZym1meGy6dkw0Pw2RvLV9rJzb1IkRY9hRzJeYXcdSDpYw8eoVSZqpriZHVaDREGRGVXYTpyOVFzX8f64q5FpZy0gYNjsNpTX7QQsUMrfuktI2CPc7IH8fprBeP23Suyx1yojKzjgQp138dWuo7Jg43TdMwN/+Cg12UNgLgYJV30tBFSSQSXAzh9U5J51sul4V3dLlcxtbWFkzTFHpgw9PuymlPlA6zWyqnfPNl8CVMFkduIbQJyemDENtMJiNIDeVyWXhM0akvb4huZJj/SrqmoihCPBKmaw5bmEF1UDcRX+bzygdVmNgjihccNYwvbhN3IzAJT1nhOyiC68vvoKL1dL9etwNMp3ukQIl9LHeA8fra3BEhLVLoyclJDI2MYGNjA//9X38Wcj5CBOv1ugAPyIu4WCzixYsXmJmZQbm8B11X0dc3AqNWCz2F5NokaqRMmCA/+EU9XRmAkR8ro62UmhIphIgL9XpdjJ6Rm/2UvgU38klaCFHqp6iROnELKewgk4E2+TvuwKSMoGWi53TELLpdjMfRXocdFmHRPXjtKZUOo03S/aaN3IuE9OQb8XWMFHJFOg0AzLXhurxk0emikNvG2NgY/u3HP0a1WsXjR9xZkSYDUA9X0zQUi0X88pe/xJ07d3D+/Hk8fvwYf/jDHzA1NYXDw0MMDJwWJ3KYgDxqo4Yt+jD1kJxahek6qaaVtazEZJJlflRv0/AtUtpwSxkWGuFOMh85+LniIlrUggpukODnDn4HifrBaBucB+2X4Skd31NYan3SLCvsPodFYvlzh31O+TnHIWyEf0a1Z+HLvyJqh81Mc+GAMco4XOi5XA56MsmhdHcLhmFgdHQUFy5cwK9+9Rk2NjZQLpfFRTEMA5lMBgMDA/jss3/HW2+9haGhLMbH38DRURWvXm1iaWkJOzs7SGlqeO3YRWrNdcmuBxooEle1dTP4DXQ9Ajkhn5zS6DgWbLtVJ1L0l4dyywAPMaIIyCBVS9j77dZUIBjFO/XNo2qk1vXwP08ld1Ih6G9pv7nhBEeBeYrmQiEA0nMphcs9TBVx7Vqvo4AJDblMG5VgFv65XD9hT5G+T7Bq/e0XPuaktZFFycH17PQzlzHy8hFGF90M3Ot4/ZXXv0nj468rgVqsRdlUmHSwe0BvOp2G47Ym9/G2QA6nTyfxu9/9DrVaTaCeBDCRATk3beMI39BQFjdu3MDk5CRKpRIfsFYshNaYUVMZu0mto1IxSovpc3CAQG8D1YLOI4RAE4mAmGlySh7lwXSSuj5sM4cNUg+mwZ0OvbCDI+p0lwkncY/pNSIfZzdH6XBlb/Ru1ojsQ42Qz3KcqHySskLehq/rIGj93paGW9d1HWaTuxOSPU69Xve1OKhupHYEQfUzMzOtWci6jpcvX4qWBPFe5R6hXL/EkUHCUsm4gyCIdJLulEBF+cbTZ6C2A9E95dm4hIAr3hTG4ED2OHP942zmTsBU8PDoFFnaBess9r0QOy1odh5VToTZMnVTGnVTMnTazGGHXpgZnu+5EeYP3W/m1586H+uAA1e+BQFPTdO4aKJeK8N1k0h69ikrS8vQdR2PHj1ExZsCYBiGMHmn07xWq/nmRu3t7WFpaUkYAUTZ3PYChkTdELlFQQisYVg+V0jZgVPuiwvyhcftpsdwHakbubF6vUFhETguJew2RRTXK4JBJBvZyfbEcZ8vbuNG1rlKb4s37k95JlfU85jLIjOUbg7ibg+i1/elCHBLIV26v8hr+XuNDA3j5doGl8WlUzg6PMCDr/8Jx3Hwn3/+M9bW1ni96xkQULRTVVVocm3bFpGNWjzZbBZmvRY6l4cuQNCpoS1VcrnzILFXuF6TDOjcNtCLoqimJZBOs0hLUlrAxDX2TbXzNj5n70RnDZ3SW3h1nIzSB1NS+fMHWyrBLKDTMLywBaqqulcSe/OSoHmTPgDGXGhqAgq4Z5cLb6G4LlzGDd21ZGccI+reuW6Y3ry75wcjbVgJIJdHQQBVIPbewg/z43KlPnAUSu8q8Qc3Y/HYj6rAu6bhcb5TQuCqimfnpHpWRTY0TYeq8XumgE8TqdUa0IkMkfE26fLiEuZezGP/oIyFhQUcHB4Kq5VgU56E3ESzI+1oEFUMSyW72giqFrmBwgzQZEKAr1aKuNAUmYMIKKXetm32dJ4S2T8MXe4GNAuirsFrEGzfRUXxsPsQ/NlJMIBeI1I3HYrX2esNM1H0XU9NPfH7INpyL1+yjVArCDFxgOXzeTCHs9R0oqERSaJUKmF5eRnbu9tIp3NIJvnQaZnFItucEudUVVWRevtm9CisxRlVFC/Pd8XPWnB6yCZnnYAK+fGKQK35N4Oq6oGTPriQmM9grQWIxYNtcSlYcABdsOV2HMIGY8xXE7VdB/jZYEETOSZfW+k/LoB3wVzHixgqVGq1KDySqgrE7z5pe6ZTbt3rQRFuhCc/oENEjbmvrutCQ6dBfW7opm39W+lxI9uhLEjZ471Wq3HqLnFgUylOVJeJEWT+TYoRuQEvu0rSjByKEo1GA7ZjIpPQfWllFFUx6lsJMSzztV+kSBfFBor7OxnPB4EzHpHJekU9duuIXr/TRo6vuRkMsxGLJkdNhIzDFYL+4VHA1v81mBMWmbuJgr3ofYPPPck16FUY0y0YKPfQidqr6zrvKqmAnk6n4LoOTLMJ5trQEyr6+guwmQVF4YomyzYE2VymdDabTWSzWe4GonDgwXYsQGGCdRX23WkTi5scstB9FztQh7oAXEWBRr3EQI9SXGRaLIGepyv3Y8W4Tof/nDZ6oKcbf+Iz329hzI1pN8nvRIlcXJ3q4yhQJ+xnUb7Kfq50TzGlAwrM2iKaT2PbIeLzpegGWj5ydOxcunSbdXVzELT/rNP168zlDhJ8OM7ESU4Os2Ba3FdON00Th4eHngFdCywo5PMwLQem514YvPFUD1MqTaAEqZIyyQQqBwe+/m2wrRBWlwUjRtwpTjWO7NZwnPYQTSoIRjwC5WyLxYMhEdEjKiIHD6zYjaIwIYCPTK07gEWdNrVcAvUkt+sh4vQS0Xp9f1EROUwv//8RlcPWMI/IHMPZ398HwOeA6xyhdVA5rIgeMIXtTCYNNBgctMZzkPQs6Y2GYZaJpmUKdJp6taZnA8SY3Ubyp0Uc9Olt/cn/HrTUDV4gmnqnSS4aMijXfqP8r6OqmlQ3c/YMnaR8AgHz1eJeaG5tIgVtbR45IrTGpXiutl6QZ4wiPoOvgBe4giKBYUzCAFqzo9tRU9cXzfzXTU6522tceYqBv0fZKS3utNCVDhFV7Qp973YDtT+edXj/Tk8ROb4+7v1Lbo3S1AvXZbBtHjRpNvi7796APjIygsHBQeFhJTeZKcrKflHUO8564wxk1QxdfNM00TTq0BTVl0YGJWmk+wzjYof1WoMnJrXBCDGXo14Yah3WwpBfW9adygBar6h1mIOIzHWOSksdh8XWyMfdCMGsSGauhcpIld7Aqt5T094jWDcbJWoTd1o/r7M+pvcnq/sA1yfkSaVSGB8fx3vvvQf9g5vvo1ar4ZtvvsHKykprip5jQ5pA5SMOKIqCw6oZuhD9pH7yLIL3JmzfoqlWm21jQILoXFSNLY84pcAdp20Nu1lhfUj52zQtfz0fOGk1tUMfEt3L1PyVk3dNPF/s+Bo8+jXlciPs/ScTyZ4iZlz7sFM5gog+rvw4Ih8FNevHJRVFBQoKXFHrS854wt5j3OjUbg4uOeKGPSao0xeBk3G86tKlS/jkk0/wk5/8BPqHH36IvuIpXLlyBQsLC1heXsb6+jr29vageWNfZHG93EsmY/dg/9b10kZd01s3QU4/vN5YoVCQBArtKF0QlQ1GpbATNdgnjoogckQMG/UJcHO/uB548MQ+LlMo7MSXW2udvuSMopsa+bgRlFD9bhdqtz7mwZlGUa9L2Z97wlRVVdTYVpVlW22HoPwYhznH/p0+DXGwxAn2hAOvHzzYiXlI14l7mWeRLwwIi+MPP/wQo6OjUFzXdQ3DwuHhoZhCSGaWhRiVAAAAq0lEQVTfyVRGbFBZjECbj4zfgjpYAUJBge205grJKTgxq+TXbAN2mOt7/aBJOPksRaWetNBPmjrpejISVe9EWQQAtQNzqFNqxxiL7YV2AosoY4n6eSeDfdnbKuz5YVExbuNHpfpRfwbvXzA6db5/emzEjMrIRJrusNj3GOZx7rs+ir87EDTBCNOM+64fNF+5k8lkcPr0aZwZHcapU6fwm9/8B8bGxjA4OIj/BaWEl97SZMVSAAAAAElFTkSuQmCC;" vertex="1" parent="1">
          <mxGeometry x="1503.71" y="699" width="209.29" height="320" as="geometry" />
        </mxCell>
        <mxCell id="ci0PkuUXpUz1SFx85wW--1" value="" style="shape=image;verticalLabelPosition=bottom;labelBackgroundColor=default;verticalAlign=top;aspect=fixed;imageAspect=0;image=https://content.arduino.cc/assets/Pinout-Mega2560rev3_latest.png;" parent="1" vertex="1">
          <mxGeometry x="50" y="250" width="1200" height="1200" as="geometry" />
        </mxCell>
        <mxCell id="ci0PkuUXpUz1SFx85wW--3" value="1" style="whiteSpace=wrap;html=1;aspect=fixed;" parent="1" vertex="1">
          <mxGeometry x="853" y="1028" width="20" height="20" as="geometry" />
        </mxCell>
        <mxCell id="ci0PkuUXpUz1SFx85wW--4" value="2" style="whiteSpace=wrap;html=1;aspect=fixed;" parent="1" vertex="1">
          <mxGeometry x="853" y="985" width="20" height="20" as="geometry" />
        </mxCell>
        <mxCell id="azgMCvpfqpiOP1GUNGo0-16" style="edgeStyle=orthogonalEdgeStyle;rounded=0;orthogonalLoop=1;jettySize=auto;html=1;startArrow=classic;startFill=1;" edge="1" parent="1" source="ci0PkuUXpUz1SFx85wW--5" target="azgMCvpfqpiOP1GUNGo0-15">
          <mxGeometry relative="1" as="geometry" />
        </mxCell>
        <mxCell id="ci0PkuUXpUz1SFx85wW--5" value="Sniffer&lt;br&gt;Device" style="rounded=0;whiteSpace=wrap;html=1;fontSize=24;" parent="1" vertex="1">
          <mxGeometry x="695" y="60" width="120" height="70" as="geometry" />
        </mxCell>
        <mxCell id="ci0PkuUXpUz1SFx85wW--8" value="&lt;font style=&quot;font-size: 20px;&quot;&gt;MAX3232&lt;/font&gt;" style="text;whiteSpace=wrap;html=1;fontStyle=1;align=center;fontSize=20;" parent="1" vertex="1">
          <mxGeometry x="1570" y="660" width="90" height="40" as="geometry" />
        </mxCell>
        <mxCell id="ci0PkuUXpUz1SFx85wW--9" value="" style="whiteSpace=wrap;html=1;aspect=fixed;fillColor=#f8cecc;strokeColor=#b85450;" parent="1" vertex="1">
          <mxGeometry x="1541" y="833" width="20" height="20" as="geometry" />
        </mxCell>
        <mxCell id="ci0PkuUXpUz1SFx85wW--11" value="" style="whiteSpace=wrap;html=1;aspect=fixed;fillColor=#d5e8d4;strokeColor=#82b366;" parent="1" vertex="1">
          <mxGeometry x="1541" y="860" width="20" height="20" as="geometry" />
        </mxCell>
        <mxCell id="ci0PkuUXpUz1SFx85wW--13" style="edgeStyle=orthogonalEdgeStyle;rounded=0;orthogonalLoop=1;jettySize=auto;html=1;exitX=1;exitY=0.5;exitDx=0;exitDy=0;entryX=0;entryY=0.5;entryDx=0;entryDy=0;endArrow=none;endFill=0;fillColor=#d5e8d4;strokeColor=#82b366;strokeWidth=2;" parent="1" source="ci0PkuUXpUz1SFx85wW--12" target="ci0PkuUXpUz1SFx85wW--11" edge="1">
          <mxGeometry relative="1" as="geometry">
            <Array as="points">
              <mxPoint x="1410" y="580" />
              <mxPoint x="1410" y="870" />
            </Array>
          </mxGeometry>
        </mxCell>
        <mxCell id="ci0PkuUXpUz1SFx85wW--12" value="" style="whiteSpace=wrap;html=1;aspect=fixed;fillColor=#d5e8d4;strokeColor=#82b366;" parent="1" vertex="1">
          <mxGeometry x="853" y="570" width="20" height="20" as="geometry" />
        </mxCell>
        <mxCell id="ci0PkuUXpUz1SFx85wW--14" style="edgeStyle=orthogonalEdgeStyle;rounded=0;orthogonalLoop=1;jettySize=auto;html=1;exitX=0;exitY=0.5;exitDx=0;exitDy=0;entryX=0;entryY=0.5;entryDx=0;entryDy=0;endArrow=none;endFill=0;fillColor=#f8cecc;strokeColor=#b85450;strokeWidth=2;" parent="1" source="ci0PkuUXpUz1SFx85wW--15" target="ci0PkuUXpUz1SFx85wW--9" edge="1">
          <mxGeometry relative="1" as="geometry">
            <mxPoint x="430" y="640" as="sourcePoint" />
            <mxPoint x="1540" y="980.0000000000002" as="targetPoint" />
            <Array as="points">
              <mxPoint x="40" y="680" />
              <mxPoint x="40" y="1500" />
              <mxPoint x="1290" y="1500" />
              <mxPoint x="1290" y="843" />
            </Array>
          </mxGeometry>
        </mxCell>
        <mxCell id="azgMCvpfqpiOP1GUNGo0-5" value="5v" style="edgeLabel;html=1;align=center;verticalAlign=middle;resizable=0;points=[];fontSize=15;fontColor=#FF0000;fontStyle=1" vertex="1" connectable="0" parent="ci0PkuUXpUz1SFx85wW--14">
          <mxGeometry x="0.9349" relative="1" as="geometry">
            <mxPoint x="58" y="-20" as="offset" />
          </mxGeometry>
        </mxCell>
        <mxCell id="ci0PkuUXpUz1SFx85wW--15" value="" style="whiteSpace=wrap;html=1;aspect=fixed;fillColor=#f8cecc;strokeColor=#b85450;" parent="1" vertex="1">
          <mxGeometry x="430" y="670" width="20" height="20" as="geometry" />
        </mxCell>
        <mxCell id="ci0PkuUXpUz1SFx85wW--21" value="1" style="whiteSpace=wrap;html=1;aspect=fixed;" parent="1" vertex="1">
          <mxGeometry x="853" y="1051" width="20" height="20" as="geometry" />
        </mxCell>
        <mxCell id="ci0PkuUXpUz1SFx85wW--22" value="2" style="whiteSpace=wrap;html=1;aspect=fixed;" parent="1" vertex="1">
          <mxGeometry x="853" y="1006" width="20" height="20" as="geometry" />
        </mxCell>
        <mxCell id="ci0PkuUXpUz1SFx85wW--23" value="2" style="whiteSpace=wrap;html=1;aspect=fixed;" parent="1" vertex="1">
          <mxGeometry x="1541" y="977" width="20" height="20" as="geometry" />
        </mxCell>
        <mxCell id="ci0PkuUXpUz1SFx85wW--24" value="1" style="whiteSpace=wrap;html=1;aspect=fixed;" parent="1" vertex="1">
          <mxGeometry x="1541" y="950" width="20" height="20" as="geometry" />
        </mxCell>
        <mxCell id="ci0PkuUXpUz1SFx85wW--25" value="2" style="whiteSpace=wrap;html=1;aspect=fixed;" parent="1" vertex="1">
          <mxGeometry x="1541" y="922" width="20" height="20" as="geometry" />
        </mxCell>
        <mxCell id="ci0PkuUXpUz1SFx85wW--26" value="1" style="whiteSpace=wrap;html=1;aspect=fixed;" parent="1" vertex="1">
          <mxGeometry x="1541" y="890" width="20" height="20" as="geometry" />
        </mxCell>
        <mxCell id="ci0PkuUXpUz1SFx85wW--27" style="edgeStyle=orthogonalEdgeStyle;rounded=0;orthogonalLoop=1;jettySize=auto;html=1;exitX=1;exitY=0.5;exitDx=0;exitDy=0;endArrow=none;endFill=0;fillColor=#e1d5e7;strokeColor=#9673a6;strokeWidth=2;entryX=0.133;entryY=0.55;entryDx=0;entryDy=0;startArrow=block;startFill=1;entryPerimeter=0;" parent="1" source="ci0PkuUXpUz1SFx85wW--21" target="ci0PkuUXpUz1SFx85wW--24" edge="1">
          <mxGeometry relative="1" as="geometry">
            <mxPoint x="883" y="590" as="sourcePoint" />
            <mxPoint x="1460" y="930" as="targetPoint" />
            <Array as="points">
              <mxPoint x="1420" y="1061" />
              <mxPoint x="1420" y="961" />
            </Array>
          </mxGeometry>
        </mxCell>
        <mxCell id="azgMCvpfqpiOP1GUNGo0-2" value="RX1 from D1" style="edgeLabel;html=1;align=center;verticalAlign=middle;resizable=0;points=[];" vertex="1" connectable="0" parent="ci0PkuUXpUz1SFx85wW--27">
          <mxGeometry x="0.8521" y="-4" relative="1" as="geometry">
            <mxPoint x="-138" y="97" as="offset" />
          </mxGeometry>
        </mxCell>
        <mxCell id="ci0PkuUXpUz1SFx85wW--28" style="edgeStyle=orthogonalEdgeStyle;rounded=0;orthogonalLoop=1;jettySize=auto;html=1;exitX=1;exitY=0.5;exitDx=0;exitDy=0;endArrow=block;endFill=1;fillColor=#ffe6cc;strokeColor=#d79b00;strokeWidth=2;entryX=0;entryY=0.5;entryDx=0;entryDy=0;" parent="1" source="ci0PkuUXpUz1SFx85wW--3" target="ci0PkuUXpUz1SFx85wW--26" edge="1">
          <mxGeometry relative="1" as="geometry">
            <mxPoint x="883" y="1071" as="sourcePoint" />
            <mxPoint x="1551" y="977" as="targetPoint" />
            <Array as="points">
              <mxPoint x="1240" y="1038" />
              <mxPoint x="1240" y="900" />
            </Array>
          </mxGeometry>
        </mxCell>
        <mxCell id="azgMCvpfqpiOP1GUNGo0-1" value="TX1 to D1" style="edgeLabel;html=1;align=center;verticalAlign=middle;resizable=0;points=[];" vertex="1" connectable="0" parent="ci0PkuUXpUz1SFx85wW--28">
          <mxGeometry x="0.8652" y="1" relative="1" as="geometry">
            <mxPoint x="-126" y="1" as="offset" />
          </mxGeometry>
        </mxCell>
        <mxCell id="ci0PkuUXpUz1SFx85wW--29" style="edgeStyle=orthogonalEdgeStyle;rounded=0;orthogonalLoop=1;jettySize=auto;html=1;exitX=1;exitY=0.5;exitDx=0;exitDy=0;endArrow=none;endFill=0;fillColor=#e1d5e7;strokeColor=#9673a6;strokeWidth=2;dashed=1;startArrow=block;startFill=1;entryX=0;entryY=0.5;entryDx=0;entryDy=0;" parent="1" target="ci0PkuUXpUz1SFx85wW--23" edge="1">
          <mxGeometry relative="1" as="geometry">
            <mxPoint x="872.9999999999998" y="1016" as="sourcePoint" />
            <mxPoint x="1380" y="880" as="targetPoint" />
            <Array as="points">
              <mxPoint x="910" y="1016" />
              <mxPoint x="1450" y="1017" />
              <mxPoint x="1450" y="987" />
            </Array>
          </mxGeometry>
        </mxCell>
        <mxCell id="azgMCvpfqpiOP1GUNGo0-4" value="RX2 from D2" style="edgeLabel;html=1;align=center;verticalAlign=middle;resizable=0;points=[];" vertex="1" connectable="0" parent="ci0PkuUXpUz1SFx85wW--29">
          <mxGeometry x="0.8471" y="-1" relative="1" as="geometry">
            <mxPoint x="-138" y="28" as="offset" />
          </mxGeometry>
        </mxCell>
        <mxCell id="ci0PkuUXpUz1SFx85wW--30" style="edgeStyle=orthogonalEdgeStyle;rounded=0;orthogonalLoop=1;jettySize=auto;html=1;exitX=1;exitY=0.25;exitDx=0;exitDy=0;endArrow=block;endFill=1;fillColor=#ffe6cc;strokeColor=#d79b00;strokeWidth=2;entryX=0;entryY=0.5;entryDx=0;entryDy=0;dashed=1;startArrow=none;startFill=0;" parent="1" source="ci0PkuUXpUz1SFx85wW--4" target="ci0PkuUXpUz1SFx85wW--25" edge="1">
          <mxGeometry relative="1" as="geometry">
            <mxPoint x="883" y="1048" as="sourcePoint" />
            <mxPoint x="1551" y="942" as="targetPoint" />
            <Array as="points">
              <mxPoint x="1260" y="990" />
              <mxPoint x="1260" y="932" />
            </Array>
          </mxGeometry>
        </mxCell>
        <mxCell id="azgMCvpfqpiOP1GUNGo0-3" value="TX2 to D2" style="edgeLabel;html=1;align=center;verticalAlign=middle;resizable=0;points=[];" vertex="1" connectable="0" parent="ci0PkuUXpUz1SFx85wW--30">
          <mxGeometry x="0.8751" y="1" relative="1" as="geometry">
            <mxPoint x="-136" y="1" as="offset" />
          </mxGeometry>
        </mxCell>
        <mxCell id="azgMCvpfqpiOP1GUNGo0-15" value="USB Serial&lt;br&gt;11500 8N1" style="rounded=0;whiteSpace=wrap;html=1;fillColor=#f5f5f5;fontColor=#333333;strokeColor=#666666;" vertex="1" parent="1">
          <mxGeometry x="700" y="290" width="110" height="140" as="geometry" />
        </mxCell>
        <mxCell id="azgMCvpfqpiOP1GUNGo0-17" value="Device 1" style="rounded=0;whiteSpace=wrap;html=1;fontSize=24;" vertex="1" parent="1">
          <mxGeometry x="1910" y="1006" width="120" height="70" as="geometry" />
        </mxCell>
        <mxCell id="azgMCvpfqpiOP1GUNGo0-19" value="UART 5v" style="text;html=1;align=center;verticalAlign=middle;resizable=0;points=[];autosize=1;strokeColor=none;fillColor=none;fontStyle=1" vertex="1" parent="1">
          <mxGeometry x="1380" y="1080" width="70" height="30" as="geometry" />
        </mxCell>
        <mxCell id="azgMCvpfqpiOP1GUNGo0-20" value="RS-232 13.7 v" style="text;html=1;align=center;verticalAlign=middle;resizable=0;points=[];autosize=1;strokeColor=none;fillColor=none;fontStyle=1" vertex="1" parent="1">
          <mxGeometry x="1760" y="686" width="100" height="30" as="geometry" />
        </mxCell>
        <mxCell id="azgMCvpfqpiOP1GUNGo0-21" value="Device 2" style="rounded=0;whiteSpace=wrap;html=1;fontSize=24;" vertex="1" parent="1">
          <mxGeometry x="2000" y="600" width="120" height="70" as="geometry" />
        </mxCell>
        <mxCell id="azgMCvpfqpiOP1GUNGo0-22" style="edgeStyle=orthogonalEdgeStyle;rounded=0;orthogonalLoop=1;jettySize=auto;html=1;exitX=1;exitY=0.5;exitDx=0;exitDy=0;endArrow=none;endFill=0;fillColor=#e1d5e7;strokeColor=#9673a6;strokeWidth=2;entryX=0.371;entryY=0.015;entryDx=0;entryDy=0;startArrow=block;startFill=1;entryPerimeter=0;" edge="1" parent="1" source="azgMCvpfqpiOP1GUNGo0-25" target="azgMCvpfqpiOP1GUNGo0-17">
          <mxGeometry relative="1" as="geometry">
            <mxPoint x="883" y="1071" as="sourcePoint" />
            <mxPoint x="1551" y="977" as="targetPoint" />
          </mxGeometry>
        </mxCell>
        <mxCell id="azgMCvpfqpiOP1GUNGo0-23" value="TX" style="edgeLabel;html=1;align=center;verticalAlign=middle;resizable=0;points=[];" vertex="1" connectable="0" parent="azgMCvpfqpiOP1GUNGo0-22">
          <mxGeometry x="0.8521" y="-4" relative="1" as="geometry">
            <mxPoint x="5" y="1" as="offset" />
          </mxGeometry>
        </mxCell>
        <mxCell id="azgMCvpfqpiOP1GUNGo0-25" value="1" style="whiteSpace=wrap;html=1;aspect=fixed;" vertex="1" parent="1">
          <mxGeometry x="1542" y="774" width="20" height="20" as="geometry" />
        </mxCell>
        <mxCell id="azgMCvpfqpiOP1GUNGo0-26" value="1" style="whiteSpace=wrap;html=1;aspect=fixed;" vertex="1" parent="1">
          <mxGeometry x="1542" y="716" width="20" height="20" as="geometry" />
        </mxCell>
        <mxCell id="azgMCvpfqpiOP1GUNGo0-27" value="2" style="whiteSpace=wrap;html=1;aspect=fixed;" vertex="1" parent="1">
          <mxGeometry x="1542" y="803" width="20" height="20" as="geometry" />
        </mxCell>
        <mxCell id="azgMCvpfqpiOP1GUNGo0-28" value="2" style="whiteSpace=wrap;html=1;aspect=fixed;" vertex="1" parent="1">
          <mxGeometry x="1542" y="744" width="20" height="20" as="geometry" />
        </mxCell>
        <mxCell id="azgMCvpfqpiOP1GUNGo0-30" style="edgeStyle=orthogonalEdgeStyle;rounded=0;orthogonalLoop=1;jettySize=auto;html=1;exitX=0.665;exitY=0.006;exitDx=0;exitDy=0;endArrow=none;endFill=0;fillColor=#ffe6cc;strokeColor=#d79b00;strokeWidth=2;entryX=1;entryY=0.5;entryDx=0;entryDy=0;startArrow=block;startFill=1;exitPerimeter=0;" edge="1" parent="1" source="azgMCvpfqpiOP1GUNGo0-17" target="azgMCvpfqpiOP1GUNGo0-26">
          <mxGeometry relative="1" as="geometry">
            <mxPoint x="883" y="1048" as="sourcePoint" />
            <mxPoint x="1551" y="942" as="targetPoint" />
          </mxGeometry>
        </mxCell>
        <mxCell id="azgMCvpfqpiOP1GUNGo0-32" value="RX" style="edgeLabel;html=1;align=center;verticalAlign=middle;resizable=0;points=[];" vertex="1" connectable="0" parent="azgMCvpfqpiOP1GUNGo0-30">
          <mxGeometry x="-0.8424" y="1" relative="1" as="geometry">
            <mxPoint y="9" as="offset" />
          </mxGeometry>
        </mxCell>
        <mxCell id="azgMCvpfqpiOP1GUNGo0-33" style="edgeStyle=orthogonalEdgeStyle;rounded=0;orthogonalLoop=1;jettySize=auto;html=1;exitX=1;exitY=0.5;exitDx=0;exitDy=0;endArrow=none;endFill=0;fillColor=#e1d5e7;strokeColor=#9673a6;strokeWidth=2;entryX=0.574;entryY=1.002;entryDx=0;entryDy=0;startArrow=block;startFill=1;entryPerimeter=0;dashed=1;" edge="1" parent="1" source="azgMCvpfqpiOP1GUNGo0-27">
          <mxGeometry relative="1" as="geometry">
            <mxPoint x="1733" y="897.86" as="sourcePoint" />
            <mxPoint x="2078.88" y="670.0000000000001" as="targetPoint" />
          </mxGeometry>
        </mxCell>
        <mxCell id="azgMCvpfqpiOP1GUNGo0-34" value="TX" style="edgeLabel;html=1;align=center;verticalAlign=middle;resizable=0;points=[];" vertex="1" connectable="0" parent="azgMCvpfqpiOP1GUNGo0-33">
          <mxGeometry x="0.8521" y="-4" relative="1" as="geometry">
            <mxPoint x="-3" y="-13" as="offset" />
          </mxGeometry>
        </mxCell>
        <mxCell id="azgMCvpfqpiOP1GUNGo0-35" style="edgeStyle=orthogonalEdgeStyle;rounded=0;orthogonalLoop=1;jettySize=auto;html=1;exitX=1;exitY=0.5;exitDx=0;exitDy=0;endArrow=block;endFill=1;fillColor=#ffe6cc;strokeColor=#d79b00;strokeWidth=2;entryX=0.367;entryY=0.983;entryDx=0;entryDy=0;startArrow=none;startFill=0;entryPerimeter=0;dashed=1;" edge="1" parent="1" source="azgMCvpfqpiOP1GUNGo0-28" target="azgMCvpfqpiOP1GUNGo0-21">
          <mxGeometry relative="1" as="geometry">
            <mxPoint x="2090" y="1020" as="sourcePoint" />
            <mxPoint x="1743" y="942" as="targetPoint" />
          </mxGeometry>
        </mxCell>
        <mxCell id="azgMCvpfqpiOP1GUNGo0-37" value="RX" style="edgeLabel;html=1;align=center;verticalAlign=middle;resizable=0;points=[];" vertex="1" connectable="0" parent="azgMCvpfqpiOP1GUNGo0-35">
          <mxGeometry x="0.9088" y="-1" relative="1" as="geometry">
            <mxPoint y="6" as="offset" />
          </mxGeometry>
        </mxCell>
      </root>
    </mxGraphModel>
  </diagram>
</mxfile>
